<?xml version="1.0" encoding="UTF-8" standalone="no"?>
<svg width="100px" height="100px" viewBox="0 0 100 100" version="1.1" xmlns="http://www.w3.org/2000/svg" xmlns:xlink="http://www.w3.org/1999/xlink">
    <!-- Generator: Sketch 3.6.1 (26313) - http://www.bohemiancoding.com/sketch -->
    <title>Group</title>
    <desc>Created with Sketch.</desc>
    <defs></defs>
    <g id="Page-1" stroke="none" stroke-width="1" fill="none" fill-rule="evenodd">
        <g id="Group">
            <g id="programm1_Training5_1" transform="translate(50.000000, 50.000000) scale(-1, 1) translate(-50.000000, -50.000000) ">
                <g id="Page-1">
                    <g id="Artboard-9">
                        <g id="Stretching">
                            <g id="Group-14">
                                <rect id="Rectangle-114-Copy-4" fill="#EA6A64" x="0" y="0" width="100" height="100" rx="8"></rect>
                                <path d="M25.4712838,52.2826087 L7,52.2826087 L7,54.2608696 L7,78 L10.6336952,78 L10.6336952,55.9347826 L25.4712838,55.9347826 L25.4712838,78 L29.104979,78 L29.104979,31.2826087 L25.4712838,31.2826087 L25.4712838,52.2826087 L25.4712838,52.2826087 Z" id="Rectangle-85" fill-opacity="0.4" fill="#000000"></path>
                                <path d="M81.3602774,36.2874407 C76.0582469,37.1121083 68.3243199,39.4034333 64.7407982,39.0381235 C63.0107352,38.8617582 60.4923199,36.9999855 58.9269388,35.7047565 C55.430968,35.9886756 47.4478006,36.5149297 39.8076584,36.152879 C36.7619781,36.0085505 33.7708097,35.0304716 31.1401493,34.7096676 C26.4016953,34.1318222 21.7968848,31.2438651 21.7968848,30.9782609 C21.7968848,30.3618003 24.56286,30.9782609 24.56286,30.9782609 C24.56286,30.9782609 32.8299758,31.5203278 36.4265817,31.4347826 C38.7773868,31.3788688 41.6981953,31.2524305 44.6911376,31.0989491 C44.3080215,30.2767908 44.0939716,29.3591717 44.0939716,28.3913043 C44.0939716,24.8614844 46.9409779,22 50.4529381,22 C53.9648984,22 56.8119047,24.8614844 56.8119047,28.3913043 C56.8119047,29.094333 56.6989695,29.7708501 56.4903386,30.4035284 C56.8438024,30.3805402 57.1805989,30.3584654 57.4986247,30.3374879 L57.4986247,28.6841171 C57.4986247,28.6841171 61.2874479,26.8052751 65.9440207,26.3802126 C71.874956,25.8388234 80.5571791,25.5835255 85.7987479,24.5688094 C95.1556451,22.7574063 93.9493073,36.0591159 93.9493073,36.0591159 C93.9493073,36.0591159 93.9167068,36.0566951 93.854325,36.0523956 C93.1661988,38.067458 91.5953717,42.0083857 91.3175829,45.8945354 C90.9174997,51.4915307 91.8872327,56.4036627 91.3175829,60.7227903 C90.7412068,65.0929162 88.8003929,72.0121855 88.236111,73.0146139 C87.6718291,74.0170424 86.5103896,74.8043478 85.6339899,74.8043478 C84.7575902,74.8043478 83.2831864,74.0603591 83.2831864,72.53862 C83.2831864,71.0168809 83.43758,58.6136044 83.0047908,50.264441 C82.8281232,46.8562554 81.9117574,40.1313815 81.3602774,36.2874407 L81.3602774,36.2874407 Z" id="Oval-24" fill="#FFFFFF"></path>
                            </g>
                        </g>
                    </g>
                </g>
            </g>
        </g>
    </g>
</svg>