<?xml version="1.0" encoding="UTF-8" standalone="no"?>
<svg width="85px" height="66px" viewBox="0 0 85 66" version="1.1" xmlns="http://www.w3.org/2000/svg" xmlns:xlink="http://www.w3.org/1999/xlink">
    <!-- Generator: Sketch 3.6 (26304) - http://www.bohemiancoding.com/sketch -->
    <title>Group 6</title>
    <desc>Created with Sketch.</desc>
    <defs></defs>
    <g id="Page-1" stroke="none" stroke-width="1" fill="none" fill-rule="evenodd">
        <g id="Экран-1" transform="translate(-15.000000, -130.000000)">
            <g id="body" transform="translate(0.000000, 105.000000)">
                <g id="Group" transform="translate(15.000000, 25.000000)">
                    <g id="Group-6">
                        <rect id="Mask" fill="#409FDD" x="0" y="0" width="85" height="66" rx="15"></rect>
                        <path d="M53.0787074,31.7171839 C52.0449302,31.6332918 50.9505944,31.9821045 49.9791712,32.8014221 L39.7634282,41.417582 L36.426539,32.4955059 C36.2975852,32.150713 35.9002079,31.8987216 35.5419333,31.9320552 C35.5419333,31.9320552 26.8126446,32.7610618 25.2641782,32.6852194 C23.7157118,32.6093769 23.5301293,32.2795294 22.6649935,31.4545128 C21.7998577,30.6294962 21.6338311,28.2974486 21.6338311,28.2974486 C21.6338311,28.2974486 21.915482,25.7342055 22.3360298,25.0534226 C22.7565777,24.3726398 24.1701492,23.5701497 24.8426533,23.6228075 C25.5151575,23.6754652 30.3640077,23.6754652 30.3640077,23.6754652 C30.3640077,23.6754652 24.2060858,21.6410508 21.3048675,23.1660572 L20.671747,23.4988529 C16.6578843,25.6087136 14.7987963,30.6975888 16.5197193,34.8649836 C16.5197193,34.8649836 19.0598588,41.3261343 20.6259624,43.9136194 C22.6743217,47.2978778 28.5165178,54.3797892 28.5165178,54.3797892 C29.2811,55.3360798 30.2288434,56.0891136 31.2784752,56.6277264 L31.832918,56.9926589 C34.6244617,58.8300437 38.6915633,58.3022317 40.921415,55.8166349 L53.6916316,41.5817826 L67.9502607,55.4837285 C68.98813,56.4956352 70.7372894,56.5684601 71.8474297,55.6369418 L71.993886,55.5140505 C73.0998762,54.5860146 73.2492775,52.9279767 72.3183137,51.8184972 L56.6627779,33.1609562 C55.7466682,32.0691792 54.3891366,31.5742605 53.0787074,31.7171839 Z M25.1234249,19.8987101 C27.8368677,17.0888577 27.7752724,12.6273341 24.9858479,9.93361815 C22.1964233,7.23990218 17.7354679,7.3340493 15.022025,10.1439016 C12.3085822,12.953754 12.3701775,17.4152776 15.1596021,20.1089935 C17.9490266,22.8027095 22.409982,22.7085624 25.1234249,19.8987101 Z M22.2109886,28.0392364 C22.2109886,25.5449946 22.9756144,25.1854324 22.9756144,25.1854324 C23.4617312,24.5318613 24.5278421,24.0234112 25.3415531,24.049291 L52.3572004,24.9085162 C53.628956,24.948964 54.6599176,26.019213 54.6599176,27.2811523 L54.6599176,27.2543633 C54.6599176,28.5242863 53.6350097,29.6376961 52.3697689,29.7413117 L25.3311753,31.9556116 C24.5163518,32.0223408 23.4236502,31.5764802 22.9756144,30.8930404 C22.9756144,30.8930404 22.2109886,30.5334782 22.2109886,28.0392364 Z" id="Oval-45-Copy" fill="#FFFFFF"></path>
                    </g>
                </g>
            </g>
        </g>
    </g>
</svg>