<?xml version="1.0" encoding="UTF-8" standalone="no"?>
<svg width="85px" height="66px" viewBox="0 0 85 66" version="1.1" xmlns="http://www.w3.org/2000/svg" xmlns:xlink="http://www.w3.org/1999/xlink">
    <!-- Generator: Sketch 3.6 (26304) - http://www.bohemiancoding.com/sketch -->
    <title>Group 7</title>
    <desc>Created with Sketch.</desc>
    <defs></defs>
    <g id="Page-1" stroke="none" stroke-width="1" fill="none" fill-rule="evenodd">
        <g id="Экран-1" transform="translate(-15.000000, -227.000000)">
            <g id="body" transform="translate(0.000000, 105.000000)">
                <g id="Group-2" transform="translate(15.000000, 122.000000)">
                    <g id="Group-7">
                        <rect id="Mask" fill="#4AE2B1" x="0" y="0" width="85" height="66" rx="15"></rect>
                        <path d="M46.551439,37.1444116 C46.2926268,37.3853207 45.9910609,37.5816826 45.6551637,37.7163294 L15.412622,49.8392695 C14.2578641,50.3021624 12.961472,49.7315431 12.5153308,48.5602447 L12.4864743,48.4844848 C12.0411024,47.315206 12.608642,45.974464 13.7549134,45.4895137 L36.7177803,35.7746675 C36.6397628,35.4892525 36.4917384,35.3559043 36.0023942,35.5452104 L13.6448867,45.2119196 C12.5738802,45.6262457 11.864754,46.7874653 12.0528368,48.0583058 L10.3176655,48.7295684 C9.55941118,49.0229042 7.74805164,49.434839 7.1441407,47.6058124 C6.54022975,45.7767857 7.98852305,44.5991238 8.6374275,44.3182734 L37.2258828,31.683681 C37.4800489,31.2667319 37.8359981,30.9103226 38.2782903,30.6638239 C38.2782903,30.6638239 41.014041,29.0746881 42.4146113,28.532868 C45.0982062,27.4947013 48.4487845,27.1477028 51.1323794,26.1095361 C51.4478428,25.9874969 57.3020966,22.1181294 60.3425845,20.9418962 C61.0707985,20.6601818 63.6488227,20.8849308 63.6488227,20.8849308 C65.1639733,20.9697749 66.8330098,22.1957367 67.3778258,23.6260959 L68.2880986,26.0159251 C68.6379434,26.9344072 68.4645389,27.9054948 67.9137777,28.6134624 C67.3413236,27.6533059 66.2111329,27.1358214 65.0511169,27.4057201 L63.2411398,27.826844 C61.9209405,28.1340122 61.1110989,29.426794 61.2977201,30.7312122 C61.314875,30.8511185 61.2756062,30.9811766 61.2787864,31.1053591 L62.9530184,39.8790352 C63.1614714,40.9714161 62.4567716,42.0602442 61.3820899,42.3102884 L61.2523505,42.3404746 C60.1762976,42.5908377 59.0170133,41.9377404 58.6644278,40.8859509 L56.1030618,33.2451995 C56.060797,33.2615702 56.0201305,33.2773127 55.9811821,33.2923802 C53.4225039,34.282222 49.5469211,35.888394 46.551439,37.1444116 L46.551439,37.1444116 L46.551439,37.1444116 L46.551439,37.1444116 Z M73.6254548,26.8328924 C76.5937342,26.8328924 79,24.4078668 79,21.4164462 C79,18.4250256 76.5937342,16 73.6254548,16 C70.6571755,16 68.2509097,18.4250256 68.2509097,21.4164462 C68.2509097,24.4078668 70.6571755,26.8328924 73.6254548,26.8328924 L73.6254548,26.8328924 L73.6254548,26.8328924 L73.6254548,26.8328924 Z M61.7331434,31.0892473 C61.2916872,29.7723498 62.0258049,28.4507226 63.3699399,28.1379853 L64.9781225,27.7638125 C66.3235564,27.450773 67.6257051,28.305138 67.8866191,29.6724363 L70.5326478,43.5387339 C70.7411008,44.6311148 70.036401,45.7199429 68.9617193,45.969987 L68.8319799,46.0001732 C67.755927,46.2505364 66.5966427,45.5974391 66.2440572,44.5456496 L61.7331434,31.0892473 L61.7331434,31.0892473 L61.7331434,31.0892473 L61.7331434,31.0892473 Z" id="руки-copy" fill="#FFFFFF"></path>
                    </g>
                </g>
            </g>
        </g>
    </g>
</svg>