<?xml version="1.0" encoding="UTF-8" standalone="no"?>
<svg width="85px" height="66px" viewBox="0 0 85 66" version="1.1" xmlns="http://www.w3.org/2000/svg" xmlns:xlink="http://www.w3.org/1999/xlink">
    <!-- Generator: Sketch 3.6 (26304) - http://www.bohemiancoding.com/sketch -->
    <title>Group 9</title>
    <desc>Created with Sketch.</desc>
    <defs></defs>
    <g id="Page-1" stroke="none" stroke-width="1" fill="none" fill-rule="evenodd">
        <g id="Экран-1" transform="translate(-15.000000, -324.000000)">
            <g id="body" transform="translate(0.000000, 105.000000)">
                <g id="Group-4" transform="translate(15.000000, 219.000000)">
                    <g id="Group-9">
                        <rect id="Mask" fill="#E24A89" x="0" y="0" width="85" height="66" rx="15"></rect>
                        <path d="M34.3415938,40.7940415 C32.594993,40.4630558 30.7883303,40.0781079 29.6209832,37.8684135 C28.453636,35.6587191 29.1749761,33.8589394 29.8130943,32.7685126 C30.4512125,31.6780858 31.6133658,30.7684484 31.7046459,30.7089168 C31.7046459,30.7089168 33.1119795,28.6739309 33.7094433,26.3731028 C34.1209462,24.7884085 34.0166758,22.5272118 34.4331505,21.5945344 C35.6371845,18.8981519 36.3703303,18.2359004 36.3703303,18.2359004 C36.6606107,17.766845 37.300646,17.5756662 37.8000155,17.8089495 L42.0468161,19.7928668 C42.0468161,19.7928668 46.102994,20.4428668 48.131083,20.4428668 C54.4287841,20.4428668 67.0241864,19.7928668 67.0241864,19.7928668 C67.5754384,19.7928668 67.9308898,20.8366556 67.9956963,21.2695344 C68.0605028,21.7024133 67.3719622,22.1158569 67.3719622,22.1158569 C67.3719622,22.6675565 57.5579447,24.0728551 53.2378047,24.339969 C50.1753767,24.5293187 46.0681042,24.4800429 42.7346117,24.4097095 C42.4073157,25.8790605 41.9872646,28.1146282 41.5299269,29.0971758 C40.8519204,30.55381 39.723691,32.5205817 38.2636879,34.1512406 C37.8567252,34.6057721 40.7926073,35.8779425 41.994258,36.2547235 C43.752034,36.8058791 46.5323951,38.4551258 46.5323951,38.4551258 C46.9182228,38.6759001 47.4916833,39.3542908 47.7129638,40.1515603 C47.9342443,40.9488297 47.9389876,41.2714441 47.6682097,42.2771749 C47.3974318,43.2829057 46.6827382,44.0989192 46.6296509,44.1752316 L37.7152544,58.2213719 C37.4195946,58.6872339 36.734414,59.0346154 36.1845135,58.9972466 L35.0831503,58.9224028 C34.5334052,58.8850446 34.2867249,58.412857 34.378619,57.8683203 C34.378619,57.8683203 35.9050763,53.899052 37.1428658,50.7446686 C38.0607347,48.405571 38.3606097,47.4376389 39.0428049,46.2517157 C39.725,45.0657925 41.5205398,43.6451844 41.9942586,42.2771753 C38.9467333,42.0403263 36.7396783,41.2484852 34.3415938,40.7940415 Z M40.8535725,16.9277977 C43.5900811,16.9277977 45.8084597,14.7053845 45.8084597,11.9638989 C45.8084597,9.22241322 43.5900811,7 40.8535725,7 C38.1170638,7 35.8986853,9.22241322 35.8986853,11.9638989 C35.8986853,14.7053845 38.1170638,16.9277977 40.8535725,16.9277977 L40.8535725,16.9277977 L40.8535725,16.9277977 Z" id="Oval-102" fill="#FFFFFF"></path>
                    </g>
                </g>
            </g>
        </g>
    </g>
</svg>