<?xml version="1.0" encoding="UTF-8" standalone="no"?>
<svg width="85px" height="66px" viewBox="0 0 85 66" version="1.1" xmlns="http://www.w3.org/2000/svg" xmlns:xlink="http://www.w3.org/1999/xlink">
    <!-- Generator: Sketch 3.6 (26304) - http://www.bohemiancoding.com/sketch -->
    <title>Group 10</title>
    <desc>Created with Sketch.</desc>
    <defs></defs>
    <g id="Page-1" stroke="none" stroke-width="1" fill="none" fill-rule="evenodd">
        <g id="Экран-1" transform="translate(-15.000000, -421.000000)">
            <g id="body" transform="translate(0.000000, 105.000000)">
                <g id="Group-5" transform="translate(15.000000, 316.000000)">
                    <g id="Group-10">
                        <rect id="Mask" fill="#50C6EA" x="0" y="0" width="85" height="66" rx="15"></rect>
                        <path d="M34.2380397,34.9091961 C34.2503964,34.4524664 34.3421399,33.9721033 34.5210189,33.4801171 L38.4021649,22.8054705 C38.4018203,22.7257892 38.4077338,22.6443397 38.4203062,22.5616015 L39.9917301,12.2201629 C40.0456558,11.8652808 40.264266,11.6037793 40.5575211,11.4969686 L48.2004261,5.27114117 C48.7623339,4.81341721 49.510225,4.94877902 49.8716667,5.57482952 L49.7226779,5.31676708 C50.0837708,5.94221349 49.9739283,6.86631799 49.4733144,7.38498073 L43.7920704,13.2710532 C43.738743,13.3263032 43.6806815,13.3771699 43.6187438,13.42353 C43.6401542,13.565681 43.6450236,13.7100973 43.6312858,13.8537568 L43.2100338,18.2589104 C43.8714552,18.2367179 44.5520889,18.3527612 45.2138601,18.6240193 C45.2138601,18.6240193 45.3229335,18.6598526 45.5505454,18.7659898 C45.7220889,18.8459818 46.443135,19.1822111 46.443135,19.1822111 C47.8858134,19.8549431 48.8579867,21.1346046 49.1965411,22.5738138 C49.2947173,22.6723185 49.3815016,22.7875124 49.4532816,22.9184997 C49.4532816,22.9184997 50.6308528,25.0673817 51.2188385,26.1403631 C52.383258,28.2652454 54.7178864,32.5255748 54.7178864,32.5255748 C54.776479,32.6324969 54.8195955,32.7382039 54.8479891,32.841196 C55.1672225,33.4683361 54.9334499,34.229436 54.3047204,34.5635384 L46.0704725,38.9391606 C45.4300486,39.2794774 44.7193822,39.0024347 44.4826444,38.3188952 L44.5802294,38.600655 C44.3437201,37.917775 44.6375163,37.0264405 45.2262999,36.6168585 L50.7045635,32.8059545 C49.9180603,31.5357735 48.4656132,29.7232607 47.327823,28.199376 C46.6013141,29.2210842 45.7868981,30.3900452 45.3228031,31.3853001 C44.5714164,32.9966542 43.4078217,36.707442 42.9410046,38.2326392 C43.2748298,39.2833097 44.5925468,43.4635262 45.1368819,45.6818967 C46.0817317,49.5325155 46.1874243,57.6488489 46.1874243,57.6488489 C46.2163081,58.7959707 45.3384307,59.9673971 44.8718452,60.0924183 C44.8718452,60.0924183 44.6556487,60.150348 44.8718452,60.0924183 C45.0005652,60.0579279 44.8718452,60.0924183 44.8718452,60.0924183 C43.9714512,60.3336781 43.1036287,59.5962659 42.9319731,58.4634172 C42.9319731,58.4634172 41.8444932,50.8689917 40.8917861,47.3134406 C40.2787031,45.0253838 38.6726948,41.1712582 38.0614796,39.7363952 C37.5449297,41.7925669 36.8106097,44.7678388 36.4452925,46.4903313 C35.5607856,50.6608345 33.1876406,58.0482592 33.1876406,58.0482592 C32.8416468,59.1549223 31.8757975,59.8657782 31.0333017,59.6400321 C31.0333017,59.6400321 30.8688785,59.595975 31.0333017,59.6400321 C31.2458346,59.6969801 31.0333017,59.6400321 31.0333017,59.6400321 C30.5597988,59.5131574 29.8248266,58.3500374 30.0378248,57.2152608 L34.1814351,35.1396282 C34.1964666,35.0595459 34.2154243,34.9826928 34.2380397,34.9091961 Z M49.1247007,19.7735474 C51.4457437,19.7735474 53.3273208,17.8975951 53.3273208,15.5834906 C53.3273208,13.2693862 51.4457437,11.3934338 49.1247007,11.3934338 C46.8036577,11.3934338 44.9220806,13.2693862 44.9220806,15.5834906 C44.9220806,17.8975951 46.8036577,19.7735474 49.1247007,19.7735474 Z" id="Oval-56" fill="#FFFFFF"></path>
                    </g>
                </g>
            </g>
        </g>
    </g>
</svg>