<?xml version="1.0" encoding="UTF-8" standalone="no"?>
<svg width="85px" height="66px" viewBox="0 0 85 66" version="1.1" xmlns="http://www.w3.org/2000/svg" xmlns:xlink="http://www.w3.org/1999/xlink">
    <!-- Generator: Sketch 3.6 (26304) - http://www.bohemiancoding.com/sketch -->
    <title>Group 8</title>
    <desc>Created with Sketch.</desc>
    <defs></defs>
    <g id="Page-1" stroke="none" stroke-width="1" fill="none" fill-rule="evenodd">
        <g id="Экран-1" transform="translate(-15.000000, -518.000000)">
            <g id="body" transform="translate(0.000000, 105.000000)">
                <g id="Group-3" transform="translate(15.000000, 413.000000)">
                    <g id="Group-8">
                        <rect id="Mask" fill="#EA6A64" x="0" y="0" width="85" height="66" rx="15"></rect>
                        <path d="M40.1541986,30.4298168 C40.2837897,30.0640945 40.7869654,30.0008397 40.7269926,28.8578918 C40.6791831,27.9467474 41.7945056,26.9658282 41.7454432,25.9771066 C41.7006823,25.0750696 41.8016436,24.1638008 41.7454432,23.2597663 C41.6879579,22.3350627 40.7342746,21.4884532 40.7269926,20.6207807 C40.7164272,19.3618649 41.7130494,18.3497135 41.7454432,17.3558713 C41.7766966,16.3970152 42.8543014,14.6471664 42.8543014,14.6471664 C42.8543014,14.6471664 45.5016127,13.7484626 47.2575757,13.7484626 C48.5430017,13.7484626 51.8398664,14.8408641 51.8398664,14.8408641 C51.8398664,14.8408641 50.4409191,14.809184 49.5954052,15.7932609 C48.8974116,16.605642 48.1835794,17.8875892 48.2838394,18.9985008 C48.3109891,19.299327 48.4328762,19.5877396 48.5875655,19.8756856 L48.9257446,19.8756856 C48.6184639,19.2660704 48.3757712,18.7054655 48.5916909,18.1832823 C49.0133907,17.1634378 49.3566698,15.4855624 51.3025566,15.059811 C53.2484435,14.6340597 53.3424918,18.3910195 53.3424918,18.3910195 C53.3424918,18.3910195 53.3948857,18.9764908 53.4727662,19.8756856 L58.0518487,19.8756856 L58.0518487,22.4899452 L57.3159992,22.4899452 L56.6779136,37.8689524 L56.5575944,37.8689524 C56.5614814,39.2902893 56.5871196,44.1782352 56.7562263,46.8226691 C56.9555528,49.9396709 57.6531956,56.0731261 57.6531956,56.0731261 C57.6531956,56.0731261 57.0950108,56.1044118 56.8159184,56.1200547 C56.4970312,56.137928 55.859257,56.1736746 55.859257,56.1736746 C55.859257,56.1736746 55.1616142,49.9396709 54.9622877,46.8226691 C54.8026204,44.3258449 54.770852,39.8289797 54.7645312,38.1383756 L50.5091263,39.9021193 C50.4104385,39.9430226 50.2986028,39.9798967 50.1784513,40.0121893 L50.1784513,61 L48.3845126,61 L48.3845126,40.1056709 L42.1697041,39.1632886 C40.9837558,39.3494773 39.7217483,39.5019623 38.51785,39.5871355 L38.51785,58.0840951 L36.9232379,58.0840951 L36.9232379,39.6584259 C36.1124672,39.6706685 35.3637788,39.6398734 34.7276304,39.5534014 C33.4398864,39.3783577 32.643975,39.969096 31.7742144,39.5534014 C31.6375294,39.4880739 31.8796642,42.2369083 31.7742145,44.1359686 C31.6403397,46.5469385 30.3213588,48.2336964 30.1829802,48.1265832 C30.0031129,47.9873554 29.7066762,53.3406046 29.0568293,55.9110085 C28.5733543,57.8233452 27.6926752,57.2194212 27.5921049,56.8632085 C27.1962243,55.4610292 27.0714719,50.9892876 27.1755626,47.0210382 C27.1779315,46.9307308 27.1815481,46.839256 27.1862835,46.7467648 C26.4433635,43.6411973 25.4575603,37.183147 26.3621945,35.3030324 C26.8813138,34.2241392 30.7471668,32.4805493 34.4242296,31.4715915 C36.8064506,30.8179283 39.1426537,30.5315888 40.1541986,30.4298168 Z M48.4808955,36.5621083 L53.0928473,37.0972234 C52.883446,36.9811162 52.7081217,36.8683735 52.7081217,36.8683735 C52.7081217,36.8683735 52.2155784,32.6313854 51.3025566,27.5803305 C51.0520053,26.1942209 50.1393817,23.9487905 49.7771242,22.4899452 L49.634722,22.4899452 C49.7083231,22.928362 49.7416603,23.3409113 49.7416603,23.6460337 C49.7416603,25.7275022 48.8915942,29.2155723 48.6734106,31.6870305 C48.5264537,33.3516734 48.9824922,34.5557587 48.9824922,34.5557587 C48.9824922,34.5557587 48.9824921,35.5768364 48.4808955,36.5621082 Z M54.0699831,37.2105984 L54.7979235,37.2950598 L55.8324433,22.4899452 L53.6942567,22.4899452 C53.8402817,24.2563353 53.9946234,26.2234729 54.0769776,27.5803304 C54.265599,30.6880326 54.4639714,36.8683729 54.4639714,36.8683729 C54.4639714,36.8683729 54.2858287,37.0689912 54.0699831,37.2105984 Z M46.989227,13.0383912 C48.9157144,13.0383912 50.477441,11.4627937 50.477441,9.51919561 C50.477441,7.57559754 48.9157144,6 46.989227,6 C45.0627396,6 43.5010129,7.57559754 43.5010129,9.51919561 C43.5010129,11.4627937 45.0627396,13.0383912 46.989227,13.0383912 Z" id="Rectangle-146" fill="#FFFFFF"></path>
                    </g>
                </g>
            </g>
        </g>
    </g>
</svg>