<?xml version="1.0" encoding="UTF-8" standalone="no"?>
<svg width="159px" height="51px" viewBox="0 0 159 51" version="1.1" xmlns="http://www.w3.org/2000/svg" xmlns:xlink="http://www.w3.org/1999/xlink">
    <!-- Generator: Sketch 3.6.1 (26313) - http://www.bohemiancoding.com/sketch -->
    <title>Group</title>
    <desc>Created with Sketch.</desc>
    <defs></defs>
    <g id="Page-1" stroke="none" stroke-width="1" fill="none" fill-rule="evenodd">
        <g id="Экран-3.1" transform="translate(-108.000000, -362.000000)" fill="#414850">
            <g id="timer" transform="translate(106.000000, 362.000000)">
                <g id="TimerSet">
                    <g id="Group">
                        <path d="M86.2941176,12.8 L92.680604,12.8 C96.2114123,12.8 99.0784314,9.9346224 99.0784314,6.4 C99.0784314,2.87256985 96.2140265,0 92.680604,0 L67.1233176,0 C63.5925093,0 60.7254902,2.8653776 60.7254902,6.4 C60.7254902,9.92743015 63.5898951,12.8 67.1233176,12.8 L74.3088235,12.8 L74.3088235,20.8037973 C74.3088235,23.0111696 76.0956235,24.8 78.2997529,24.8 L82.3031882,24.8 C84.499798,24.8 86.2941176,23.0108391 86.2941176,20.8037973 L86.2941176,12.8 Z" id="Rectangle-212"></path>
                        <path d="M20.5081699,41.883871 L25.077703,41.883871 C27.5660956,41.883871 29.5637255,39.8742067 29.5637255,37.3951602 L29.5637255,37.2887108 C29.5637255,34.8047395 27.5552648,32.8 25.077703,32.8 L6.8830813,32.8 C4.39468869,32.8 2.39705882,34.8096643 2.39705882,37.2887108 L2.39705882,37.3951602 C2.39705882,39.8791315 4.4055195,41.883871 6.8830813,41.883871 L12.0185866,41.883871 L12.0185866,47.5931853 C12.0185866,49.141449 13.2736826,50.4 14.8219219,50.4 L17.7048346,50.4 C19.2555027,50.4 20.5081699,49.1433462 20.5081699,47.5931853 L20.5081699,41.883871 Z" id="Rectangle-212-Copy" transform="translate(15.980392, 41.600000) rotate(-45.000000) translate(-15.980392, -41.600000) "></path>
                        <path d="M151.547386,42.683871 L156.132138,42.683871 C158.605311,42.683871 160.602941,40.6801637 160.602941,38.2084656 L160.602941,38.0754053 C160.602941,35.6047395 158.601295,33.6 156.132138,33.6 L137.907077,33.6 C135.433904,33.6 133.436275,35.6037072 133.436275,38.0754053 L133.436275,38.2084656 C133.436275,40.6791315 135.437921,42.683871 137.907077,42.683871 L143.057802,42.683871 L143.057802,48.3931853 C143.057802,49.941449 144.312898,51.2 145.861138,51.2 L148.74405,51.2 C150.294718,51.2 151.547386,49.9433462 151.547386,48.3931853 L151.547386,42.683871 L151.547386,42.683871 Z" id="Rectangle-212-Copy" transform="translate(147.019608, 42.400000) rotate(-315.000000) translate(-147.019608, -42.400000) "></path>
                    </g>
                </g>
            </g>
        </g>
    </g>
</svg>