<?xml version="1.0" encoding="UTF-8" standalone="no"?>
<svg width="11px" height="15px" viewBox="0 0 11 15" version="1.1" xmlns="http://www.w3.org/2000/svg" xmlns:xlink="http://www.w3.org/1999/xlink">
    <!-- Generator: Sketch 3.6.1 (26313) - http://www.bohemiancoding.com/sketch -->
    <title>Pause White</title>
    <desc>Created with Sketch.</desc>
    <defs></defs>
    <g id="Page-1" stroke="none" stroke-width="1" fill="none" fill-rule="evenodd">
        <g id="Pause-White" fill="#FFFFFF">
            <path d="M2,0 C0.896,0 0,1.12 0,2.5 L0,12.5 C0,13.88 0.896,15 2,15 C3.104,15 4,13.88 4,12.5 L4,2.5 C4,1.12 3.104,0 2,0 L2,0 Z" id="Shape"></path>
            <path d="M9,0 C7.896,0 7,1.12 7,2.5 L7,12.5 C7,13.88 7.896,15 9,15 C10.104,15 11,13.88 11,12.5 L11,2.5 C11,1.12 10.104,0 9,0 L9,0 Z" id="Shape"></path>
        </g>
    </g>
</svg>