<?xml version="1.0" encoding="UTF-8" standalone="no"?>
<svg width="96px" height="100px" viewBox="0 0 96 100" version="1.1" xmlns="http://www.w3.org/2000/svg" xmlns:xlink="http://www.w3.org/1999/xlink">
    <!-- Generator: Sketch 3.6.1 (26313) - http://www.bohemiancoding.com/sketch -->
    <title>refresh</title>
    <desc>Created with Sketch.</desc>
    <defs></defs>
    <g id="Page-1" stroke="none" stroke-width="1" fill="none" fill-rule="evenodd">
        <g id="refresh" fill="#414850">
            <g id="Group">
                <path d="M2.233,67.666 L2.217,67.669 C2.223,67.681 2.227,67.691 2.233,67.705 C2.241,67.806 2.259,67.9 2.273,67.998 C2.275,68.015 2.273,68.027 2.275,68.043 L6.204,93.557 C6.68,96.655 9.578,98.778 12.674,98.3 C15.772,97.824 17.896,94.928 17.42,91.829 L16.809,87.864 C17.521,88.451 18.239,89.033 18.984,89.578 C29.09,96.998 42.095,100.565 55.47,98.504 C68.842,96.448 80.172,89.134 87.579,79.017 C91.241,74.029 93.932,68.322 95.501,62.224 L80.022,57.962 C78.978,62.153 77.14,66.071 74.617,69.514 C69.605,76.338 62.051,81.227 53.024,82.619 C43.997,84.007 35.319,81.617 28.488,76.615 C27.647,75.999 26.843,75.333 26.064,74.639 L30.552,75.074 C33.424,75.35 35.997,73.049 36.3,69.93 C36.6,66.81 34.517,64.057 31.645,63.78 L7.986,61.489 C5.418,61.241 3.102,63.061 2.422,65.677 C2.372,65.862 2.346,66.051 2.313,66.242 C2.292,66.374 2.252,66.497 2.239,66.632 C2.235,66.673 2.241,66.709 2.238,66.746 C2.225,66.92 2.234,67.097 2.236,67.274 C2.235,67.406 2.224,67.539 2.233,67.666 L2.233,67.666 Z" id="Shape"></path>
                <path d="M93.767,32.334 L93.782,32.332 C93.776,32.319 93.772,32.308 93.766,32.295 C93.758,32.195 93.739,32.1 93.726,32.002 C93.724,31.987 93.726,31.973 93.724,31.958 L89.796,6.445 C89.319,3.348 86.423,1.224 83.324,1.701 C80.227,2.178 78.103,5.074 78.58,8.171 L79.192,12.138 C78.477,11.551 77.759,10.969 77.015,10.423 C66.909,3.004 53.903,-0.566 40.531,1.497 C27.157,3.552 15.828,10.868 8.422,20.984 C4.758,25.973 2.067,31.68 0.5,37.778 L15.979,42.038 C17.021,37.848 18.861,33.93 21.382,30.487 C26.394,23.663 33.951,18.775 42.977,17.382 C52.004,15.996 60.68,18.384 67.513,23.384 C68.354,24.002 69.158,24.668 69.936,25.36 L65.449,24.926 C62.577,24.648 60.004,26.952 59.702,30.07 C59.399,33.189 61.484,35.943 64.355,36.22 L88.014,38.511 C90.582,38.759 92.898,36.939 93.578,34.323 C93.628,34.139 93.654,33.949 93.685,33.758 C93.707,33.626 93.748,33.503 93.76,33.367 C93.766,33.329 93.757,33.292 93.76,33.255 C93.774,33.08 93.767,32.902 93.763,32.725 C93.764,32.595 93.774,32.462 93.767,32.334 L93.767,32.334 Z" id="Shape"></path>
            </g>
        </g>
    </g>
</svg>