<?xml version="1.0" encoding="UTF-8" standalone="no"?>
<svg width="16px" height="14px" viewBox="0 0 16 14" version="1.1" xmlns="http://www.w3.org/2000/svg" xmlns:xlink="http://www.w3.org/1999/xlink">
    <!-- Generator: Sketch 3.6.1 (26313) - http://www.bohemiancoding.com/sketch -->
    <title>Group 6</title>
    <desc>Created with Sketch.</desc>
    <defs></defs>
    <g id="Page-1" stroke="none" stroke-width="1" fill="none" fill-rule="evenodd">
        <g id="Экран-1" transform="translate(-342.000000, -35.000000)" fill="#000000">
            <g id="Navigation-Bar/Combo">
                <g id="Settings" transform="translate(340.000000, 32.000000)">
                    <g id="Page-1">
                        <g>
                            <g id="Settings">
                                <g id="Group-6" transform="translate(2.000000, 3.000000)">
                                    <path d="M12.7122981,3.38910969 C12.3754984,2.94411365 11.9772003,2.54824277 11.5301946,2.21416361 C11.6821169,1.39827803 11.7423611,0.88804147 11.7423611,0.88804147 C11.7489186,0.83656178 11.7246137,0.7718254 11.670962,0.7332678 C11.670962,0.7332678 11.4784666,0.56474748 10.8456272,0.29612309 C10.2127878,0.02749869 9.9578459,0.00609317 9.9578459,0.00609317 C9.9014413,-0.00337138 9.829186,0.02181756 9.796913,0.06224772 C9.796913,0.06224772 9.4751001,0.45589985 8.9978567,1.12555099 C8.6733845,1.07016934 8.3399885,1.04132399 8.0000002,1.04132399 C7.6598418,1.04132399 7.32639978,1.0700863 7.00197251,1.12531077 C6.5248233,0.45580571 6.20308738,0.06224772 6.20308738,0.06224772 C6.17061121,0.02176987 6.10716013,-0.00571629 6.04215448,0.00609317 C6.04215448,0.00609317 5.78721259,0.02749869 5.15437318,0.29612309 C4.52153377,0.56474748 4.32903842,0.7332678 4.32903842,0.7332678 C4.28304825,0.76726725 4.25097491,0.83674107 4.25763923,0.88804147 C4.25763923,0.88804147 4.31779777,1.39755223 4.46948166,2.21242258 C3.93906757,2.60857443 3.47744033,3.09174768 3.10575823,3.64076783 C2.27813117,3.51603327 1.76115819,3.47322326 1.76115819,3.47322326 C1.70948101,3.46846638 1.6456323,3.49501578 1.6089706,3.54998048 C1.6089706,3.54998048 1.44727093,3.74823985 1.20089595,4.3900686 C0.95452098,5.03189736 0.94202584,5.28743098 0.94202584,5.28743098 C0.93453554,5.34413155 0.96223081,5.41546375 1.00376266,5.44630609 C1.00376266,5.44630609 1.42496262,5.76678193 2.13632462,6.23550416 C2.10826205,6.46896638 2.09382184,6.70661437 2.09382184,6.94762961 L2.09382184,7.0523708 C2.09382184,7.4001738 2.12395925,7.7409553 2.18175325,8.0722586 C1.49748757,8.5765096 1.09466482,8.9177198 1.09466482,8.9177198 C1.05475992,8.9508975 1.02838532,9.0148186 1.04132749,9.0796082 C1.04132749,9.0796082 1.0671791,9.3341377 1.34680715,9.9621926 C1.6264352,10.5902475 1.79828936,10.7797724 1.79828936,10.7797724 C1.83308628,10.8251622 1.90310927,10.8560182 1.95428555,10.8484596 C1.95428555,10.8484596 2.46807053,10.7786844 3.28770236,10.6108908 C3.62450207,11.0558868 4.02280014,11.4517577 4.46980586,11.7858368 C4.31788361,12.6017221 4.25763942,13.1119585 4.25763942,13.1119585 C4.25108193,13.1634381 4.27538686,13.2281746 4.32903857,13.2667322 C4.32903857,13.2667322 4.52153377,13.4352529 5.15437318,13.7038773 C5.78721259,13.9725017 6.04215462,13.9939069 6.04215462,13.9939069 C6.09855927,14.0033714 6.17081458,13.9781824 6.20308757,13.9377522 C6.20308757,13.9377522 6.52490033,13.5441003 7.00214363,12.8744494 C7.32661579,12.929831 7.66001186,12.9586764 8.0000002,12.9586764 C8.3401586,12.9586764 8.6736006,12.9299141 8.9980279,12.8746896 C9.475177,13.5441944 9.7969128,13.9377522 9.7969128,13.9377522 C9.829389,13.9782301 9.8928401,14.0057163 9.9578457,13.9939069 C9.9578457,13.9939069 10.2127878,13.9725017 10.8456272,13.7038773 C11.4784666,13.4352529 11.6709618,13.2667322 11.6709618,13.2667322 C11.716952,13.2327327 11.7490253,13.1632589 11.742361,13.1119585 C11.742361,13.1119585 11.6822025,12.6024479 11.5305187,11.7875779 C12.0609328,11.391426 12.5225601,10.9082527 12.8942422,10.3592325 C13.721869,10.483967 14.2388417,10.5267769 14.2388417,10.5267769 C14.2905189,10.5315338 14.3543677,10.5049844 14.3910294,10.4500198 C14.3910294,10.4500198 14.5527294,10.2517605 14.7991044,9.6099318 C15.0454794,8.968103 15.0579742,8.7125693 15.0579742,8.7125693 C15.0654644,8.6558687 15.0377691,8.5845365 14.9962373,8.5536941 C14.9962373,8.5536941 14.5750375,8.2332184 13.8636757,7.7644963 C13.8917383,7.531034 13.9061785,7.293386 13.9061785,7.0523708 L13.9061785,6.94762961 C13.9061785,6.59982657 13.8760411,6.25904503 13.8182471,5.92774172 C14.5025125,5.42349081 14.9053351,5.08228079 14.9053351,5.08228079 C14.94524,5.04910313 14.9716146,4.98518199 14.9586725,4.92039232 C14.9586725,4.92039232 14.9328213,4.66586269 14.6531932,4.0378078 C14.3735652,3.40975292 14.2017107,3.22022812 14.2017107,3.22022812 C14.1669137,3.17483835 14.0968907,3.14398241 14.0457144,3.15154102 C14.0457144,3.15154102 13.5319296,3.22131613 12.7122981,3.38910969 L12.7122981,3.38910969 Z M8.0000002,3.87878885 C6.29138997,3.87878885 4.90628772,5.26418477 4.90628772,6.96342424 L4.90628772,7.0365761 C4.90628772,8.7401732 6.29486665,10.1212115 8.0000002,10.1212115 C9.7086104,10.1212115 11.0937127,8.7358156 11.0937127,7.0365761 L11.0937127,6.96342424 C11.0937127,5.25982715 9.7051337,3.87878885 8.0000002,3.87878885 L8.0000002,3.87878885 Z" id="Cog"></path>
                                </g>
                            </g>
                        </g>
                    </g>
                </g>
            </g>
        </g>
    </g>
</svg>