<?xml version="1.0" encoding="UTF-8" standalone="no"?>
<svg width="263px" height="370px" viewBox="0 0 263 370" version="1.1" xmlns="http://www.w3.org/2000/svg" xmlns:xlink="http://www.w3.org/1999/xlink">
    <!-- Generator: Sketch 3.6.1 (26313) - http://www.bohemiancoding.com/sketch -->
    <title>девушка</title>
    <desc>Created with Sketch.</desc>
    <defs>
        <path id="path-1" d="M32.6524338,100.112716 C31.5902459,105.198734 30.3659011,108.974777 30.2252925,110.560219 C30.0482054,112.556977 30.5721991,114.167518 30.7292107,116.140363 C30.9192039,118.527621 30.7345213,121.282708 30.2252925,123.789366 C29.3213992,128.238744 31.6054647,132.568313 30.2252913,136.79855 C29.8751525,137.871726 27.3105899,138.424137 23.8038045,139.268717 C20.6879986,140.019132 16.8283587,141.147756 13.1172435,140.84007 C12.2379415,140.767168 11.3204104,140.337443 10.41043,140.233099 C8.28007463,139.988818 6.19110288,139.9578 4.73091506,139.200569 C1.95871935,137.762951 0.713150031,135.695932 0.713150031,135.695932 C0.374106806,135.228919 0.114640154,134.382711 0.134849701,133.794212 C0.134849701,133.794212 0.518294425,121.544122 1.21260265,114.594514 C1.45372695,112.181004 2.60689747,109.749237 3.14879971,107.300852 C4.51362402,101.134397 4.69444577,94.862528 5.25148418,88.511437 C5.44387676,86.3178669 6.6490656,84.0283058 6.77775107,81.6785733 C7.32341988,71.7149327 6.0130152,60.6693872 6.65312352,51.2729312 C7.66052393,36.4848191 13.8986918,25.1267968 14.7910743,11.4100233 C14.9069719,9.62856571 13.5460148,8.03034564 13.1172431,6.83061874 C13.0404483,6.32626327 12.9346796,4.75812625 12.6695852,3.58468875 C12.9346793,3.11376926 14.1138113,2.8745907 14.7910745,2.66955107 C24.6297557,-0.309083213 54.6439588,-0.346804954 55.4764871,0.525867991 C56.0830048,1.161632 65.1306248,10.6669385 65.6476758,17.391346 C66.2221533,24.862602 66.332253,33.1341472 61.6146049,38.002356 C61.2987732,38.3282672 61.2010378,40.6532931 61.3303892,43.9175744 C61.3909675,45.4463142 61.2277966,47.1810581 61.6146049,49.0129416 C62.4586706,53.0103473 64.2929508,57.6534586 65.3532744,62.2545861 C66.6301742,67.7955166 67.1001888,73.2755608 67.5318149,77.4937061 C67.6511295,78.6597296 68.3987939,79.7293267 68.3549668,80.6771282 C68.338091,81.0420842 69.4535404,81.9613156 69.7117133,83.0912797 C69.9846854,84.2860163 69.4232539,84.6651327 70.2632768,85.9249665 C70.6236107,86.4653814 71.7151473,86.6921427 72.1317588,87.3040364 C72.7369863,88.1929577 72.6960436,89.8559796 73.3968094,90.8853109 C74.0859791,91.8976091 75.180007,92.6095144 75.9606391,93.7202929 C76.463837,94.4363043 76.2773519,95.8775026 76.7990873,96.6409358 C77.3311241,97.4194427 78.2324086,97.8603633 78.7953499,98.6658836 C79.7770066,100.070549 80.0723548,102.591775 81.05829,104.123323 C82.3914228,106.194206 83.1498373,108.510772 84.5423513,110.560223 C85.3271138,111.715208 86.6621705,113.467152 87.7345157,115.399735 C88.9453648,117.58193 89.9240914,119.863952 89.9240914,119.863952 C90.1578305,120.38996 90.0652951,121.179905 89.6905294,121.628885 C89.6905294,121.628885 88.5406233,123.301886 86.1478546,124.694681 C84.2684524,125.788653 81.2280368,126.267054 78.7953488,127.2935 C75.9073955,128.51204 61.4124612,130.017635 61.4124612,130.017635 C60.8438142,130.078772 60.14664,129.710554 59.8648759,129.209762 C59.8648759,129.209762 50.1342608,112.089209 46.1587219,102.280398 C43.0271879,94.5539936 38.4671857,79.2746161 38.4671857,79.2746161 C38.0187022,77.7959934 37.3904744,77.8286833 37.0663112,79.3388241 C37.0663112,79.3388241 34.5467625,91.0422 32.6524338,100.112716 Z"></path>
    </defs>
    <g id="Page-1" stroke="none" stroke-width="1" fill="none" fill-rule="evenodd">
        <g id="iphone-settings-01" transform="translate(-93.000000, -89.000000)">
            <g id="девушка" transform="translate(93.000000, 89.000000)">
                <ellipse id="Oval-201" fill-opacity="0.200000018" fill="#000000" cx="145" cy="348.5" rx="118" ry="21.5"></ellipse>
                <path d="M112.549056,38.4436513 C112.376973,39.1999185 109.516113,46.5192145 110.306998,53.071833 C112.144432,68.2952873 119.294581,89.8330642 119.747956,90.1370846 C120.079996,90.3597415 121.088405,88.09266 121.65342,85.2688088 C122.218436,82.4449577 124.004275,84.8000678 124.714773,83.8228248 C125.397596,82.8836465 127.34331,83.5900324 127.974639,82.2766167 C128.682039,80.8049422 126.569347,80.2446314 126.206526,78.7852349 C125.460957,75.7862888 124.972067,71.5413367 124.364363,65.658504 C122.917155,51.6489097 123.538736,34.6224104 122.638095,24.2591933 C122.158161,18.7368378 120.738608,14.7331491 120.738608,14.7331491 C120.191486,12.8880344 118.19139,11.1933572 116.283711,10.9160181 C116.283711,10.9160181 112.899466,10.6013588 110.306998,9.59812269 C109.090039,9.12718233 107.578264,12.1050103 107.333223,14.1528771 C107.123578,15.904929 115.051949,14.3337116 115.051949,16.3121215 C115.051949,17.5979195 115.177705,26.8913147 112.549056,38.4436513 Z" id="волосы" fill="#342017"></path>
                <path d="M88.6970107,86.2025064 C78.0431746,92.6780026 68.1795271,99.1932522 68.0876157,99.9463523 C67.5676444,104.206874 70.1416089,102.814358 69.7809357,107.692927 C69.6702433,109.190183 68.8421881,112.145142 68.7884357,113.70858 C68.6650102,117.298526 70.0560355,121.135831 70.3715847,124.977929 C70.6257125,128.072165 69.8128846,131.169509 69.7809351,134.143258 C69.7197872,139.834697 70.1889786,144.75532 71.6763187,148.769495 C72.862501,151.970877 73.1159847,154.647923 73.7381458,158.73401 C73.9496829,160.123295 75.5278735,161.702863 75.4119759,163.484321 C74.5195934,177.201094 68.2814256,188.559116 67.2740252,203.347228 C66.6339168,212.743684 67.9443215,223.78923 67.3986527,233.752871 C67.2699672,236.102603 66.0647784,238.392164 65.8723858,240.585734 C65.3153474,246.936825 65.1345257,253.208694 63.7697014,259.375149 C63.2277991,261.823534 62.0746286,264.255301 61.8335043,266.668811 C61.1391961,273.61842 61.474789,280.39514 60.7201596,286.924627 C60.2742162,290.783186 59.5007357,296.251344 57.3868894,300.975893 C56.1985166,303.631964 55.925824,306.026471 54.689833,308.211545 C54.2865747,308.924455 53.3677302,311.637129 51.2616751,313.409301 C49.0726055,315.251326 45.6572254,316.13358 43.2369613,315.729792 C39.7709869,315.151542 34.9792919,311.464337 34.8401451,312.660892 C34.4707482,315.837419 28.6014355,304.73521 26.8632458,304.73521 C25.1250562,304.73521 19.9462621,304.368038 19.7925584,307.211673 C19.625186,310.30819 19.8856652,312.568866 19.8796912,315.37939 C19.8771456,316.577013 23.3896443,326.352609 27.5640657,330.617387 C31.9826687,335.131632 37.0783358,334.141589 37.1233056,335.268451 C37.2083462,337.399417 39.0963751,341.001146 41.9036075,343.46018 C44.8075299,346.003912 47.9354761,345.292846 48.1765725,346.871148 C48.2439196,347.312025 54.9100896,344.67167 60.7201608,335.618853 C62.3640383,333.057486 59.1058955,329.790962 60.7201608,326.764868 C66.3662486,316.180736 76.5825044,303.819862 80.5348811,293.360141 C91.1300633,265.320645 97.3932616,231.415349 97.3932616,231.415349 C97.6898942,229.905886 98.7294876,229.62965 99.7211006,230.811426 C99.7211006,230.811426 119.094793,253.196208 128.975868,275.549558 C138.02476,296.020311 142.588601,317.748795 142.588599,317.750298 C142.586504,319.217072 139.623283,320.715284 137.872632,324.359054 C136.298689,327.635031 136.178634,334.365517 132.010407,335.618846 C123.205987,338.266216 119.589225,341.877196 121.423031,344.160983 C123.414048,346.640559 133.074896,348.535379 142.588599,347.148036 C145.715142,346.692105 147.904698,342.781828 150.613229,341.720219 C154.027127,340.382142 157.641561,341.894377 158.007337,341.78915 C159.736006,341.291844 171.358396,338.922607 170.991499,334.788616 C170.661183,331.066796 165.675062,323.723526 161.935549,319.942136 C160.016031,318.001123 157.861033,318.881658 158.007337,317.750298 C158.141631,316.711813 157.163364,311.910915 155.503324,306.881995 C152.931357,299.090485 153.292088,285.258904 149.868978,273.405837 C149.569545,272.369 150.284344,271.347303 149.905015,270.346111 C148.75937,267.322331 146.834138,265.093668 145.163253,262.634521 C143.770739,260.585069 143.012324,258.268504 141.679192,256.19762 C140.693256,254.666073 140.397908,252.144847 139.416252,250.740181 C138.85331,249.93466 137.952026,249.49374 137.419989,248.715233 C136.898254,247.9518 137.084739,246.510602 136.581541,245.79459 C135.800909,244.683812 134.706881,243.971906 134.017711,242.959608 C133.316945,241.930277 133.357888,240.267255 132.75266,239.378334 C132.336049,238.76644 131.244512,239.590883 130.884178,239.050468 C130.044156,237.790635 130.605587,236.360313 130.332615,235.165577 C130.074442,234.035613 128.958993,233.116381 128.975868,232.751425 C129.019696,231.803624 128.272031,230.734027 128.152717,229.568003 C127.72109,225.349858 127.251076,219.869814 125.974176,214.328883 C124.913852,209.727756 123.079572,205.084644 122.235507,201.087239 C121.848698,199.255355 122.011869,197.520611 121.951291,195.991872 C121.821939,192.72759 121.919675,190.402564 122.235507,190.076653 C126.953155,185.208444 126.843055,176.936899 126.268577,169.465643 C125.751526,162.741236 116.703906,153.235929 116.097389,152.600165 C115.082251,151.536077 108.963094,147.5381 106.725102,143.327168 C105.739088,141.471915 104.074348,139.610933 103.5749,137.497752 C102.897569,134.631947 103.569175,131.691826 103.5749,131.306477 C103.621619,128.161581 106.424036,120.859469 107.379896,116.357859 C108.980536,108.819666 114.279053,100.571409 116.696458,93.0483225 C117.102698,91.784083 118.230485,86.8054614 118.093089,82.2115311 C118.31938,80.5036202 118.438525,78.7309958 118.438525,76.9131526 C118.438525,68.2510904 115.733301,60.6157419 111.620829,56.1162652 C111.456338,55.139886 111.172225,53.9350618 110.682145,52.6295139 C109.799595,50.2784484 107.25899,47.5369859 106.982711,45.3629392 C105.958267,37.3015537 105.473361,17.8704819 105.473361,17.8704819 L71.6023997,15.9581941 C71.6023997,15.9581941 70.12712,20.4533796 71.6023997,23.0723188 C72.1098418,23.9731377 73.0340707,24.2306298 73.08865,25.2699088 C73.1973125,27.3390237 69.9930041,29.5453468 69.168258,31.7095492 C68.9850632,32.1902675 68.9192724,32.6689076 69.033271,33.1435042 C69.2630235,34.1000048 72.0958444,32.972693 72.3032194,33.9295994 C72.5083013,34.875924 71.3879473,36.1240104 71.6023996,37.0281197 C71.7520798,37.6591561 72.9488141,38.2757406 73.0886499,38.8720531 C73.2350865,39.4965145 72.6783045,40.0987449 72.8187912,40.6720607 C72.9705593,41.2914153 73.7051323,41.2363291 73.8401678,41.7873994 L74.7163266,45.3629382 C74.7163266,45.3629382 76.6132326,48.92192 80.7158505,48.3554217 C84.1612055,47.8796796 82.8969731,46.2550144 85.483886,46.2550144 C87.1969463,46.2550144 89.7821843,57.4490129 91.9839018,57.6469653 C92.2298614,57.6690791 91.9630719,58.7802232 91.811136,59.711008 C89.2020789,64.1986025 87.602459,70.2523256 87.602459,76.9131526 C87.602459,80.1952538 87.9908458,83.3299505 88.6970107,86.2025064 Z" id="тело" fill="#B97D62"></path>
                <g id="тело-copy-2-+-тело-copy-3-Mask" transform="translate(60.620902, 152.074297)">
                    <mask id="mask-2" fill="white">
                        <use xlink:href="#path-1"></use>
                    </mask>
                    <use id="Mask" fill="#000000" xlink:href="#path-1"></use>
                    <path d="M33.7632715,11.1149556 C24.3278051,12.6409656 14.4673967,13.0754099 14.4673967,13.0754099 L13.9323894,16.7182899 C13.9323894,16.7182899 18.3150245,16.437929 21.0399453,16.0516869 C26.4937906,15.2786352 35.2210102,14.3048929 42.4011019,12.5927516 C52.5391001,10.1752775 61.1856582,7.05630073 61.5002145,7.38602502 C61.7084308,7.60428149 56.8877329,2.00768731 58.3989212,3.84519303 C59.9406135,5.71978956 46.0791867,9.12308694 33.7632715,11.1149556 Z" id="тело-copy-3" fill="#2F598B" mask="url(#mask-2)"></path>
                    <path d="M33.7632715,11.1149556 C24.3278051,12.6409656 14.6430011,13.2796884 14.6430011,13.2796884 C14.6430011,13.2796884 14.7392216,12.2070488 14.7910743,11.4100233 C14.9069719,9.62856571 13.3287812,8.04899791 13.1172441,6.65971298 C13.0721596,6.36361743 12.6344119,4.36298736 12.6872504,3.71043498 C12.7655788,2.74308302 13.5023613,3.05970554 14.7910745,2.66955107 C24.6297557,-0.309083213 54.6439588,-0.346804954 55.4764871,0.525867991 C55.6847034,0.744124461 56.8877329,2.00768731 58.3989212,3.84519303 C59.9406135,5.71978956 46.0791867,9.12308694 33.7632715,11.1149556 Z" id="тело-copy-2" fill="#C4DE63" mask="url(#mask-2)"></path>
                </g>
                <path d="M51.6754633,316.708542 C51.2260289,319.788839 56.0917601,320.030476 54.4352482,323.135766 C54.2777235,323.431061 53.9250205,324.336829 53.4421455,324.552843 C52.7992492,324.840443 52.276019,324.446826 51.3250534,325.01286 C50.533304,325.484126 50.9349399,330.327275 52.0258731,332.459522 C52.5650327,333.513319 53.8928643,333.1642 54.785658,333.431051 C58.1691916,334.442368 60.7041859,331.20442 60.7041859,331.20442 C60.8275439,331.061947 61.0511083,331.042211 61.1968625,331.160772 C61.1968625,331.160772 63.0256038,332.503311 62.5984724,333.431052 C61.3762052,336.085847 59.7442712,338.739286 57.9934404,340.978812 C54.075327,345.990558 49.6642632,348.397885 49.6642632,348.397885 C48.8426343,348.909341 47.5039678,348.914271 46.6825633,348.397935 C46.6825633,348.397935 43.7563004,346.704715 40.852378,344.160983 C38.0451456,341.701949 36.5075265,337.749819 36.4224859,335.618853 C36.3775161,334.491991 31.281849,335.482034 26.863246,330.967789 C22.6888246,326.703011 19.1426614,317.585976 18.8284617,315.37939 C18.514262,313.172805 19.2747761,309.607387 19.4421486,306.510869 C19.5958523,303.667235 25.1250562,304.384808 26.8632458,304.384808 C28.6014355,304.384808 34.1203384,315.136616 34.4897352,311.960089 C34.6288821,310.763534 39.7709869,314.80114 43.2369613,315.37939 C47.9857077,316.171653 52.7578897,309.289893 51.6754633,316.708542 Z" id="боты" fill="#343434"></path>
                <path d="M142.588599,318.116077 C143.907313,317.790193 143.450104,321.743155 144.350509,322.922057 C146.918611,326.28448 151.521523,328.820768 153.541811,326.436268 C156.361895,323.107788 158.007336,318.116077 158.007336,318.116077 C158.007336,318.116077 160.016031,318.001123 161.935549,319.942136 C165.675062,323.723526 170.661183,331.066796 170.991499,334.788616 C171.358396,338.922607 159.736006,341.291844 158.007337,341.78915 C157.641561,341.894377 154.027127,340.382142 150.613229,341.720219 C147.904698,342.781828 145.715142,346.692105 142.588599,347.148036 C133.074896,348.535379 123.414048,346.640559 121.423031,344.160983 C119.589225,341.877196 123.205987,338.266216 132.010407,335.618846 C134.031621,335.011094 135.609495,329.770042 137.530368,325.072117 C137.831587,324.335421 138.483032,323.612081 138.784216,322.922057 C139.386526,321.542141 141.889844,318.288755 142.588599,318.116077 Z" id="боты-copy" fill="#343434"></path>
                <path d="M69.5512768,105.658653 C69.3192288,104.751358 68.3902412,103.592298 68.329918,102.86051 C68.2643646,102.065274 67.7493831,100.969671 67.9795082,100.053606 C69.7075348,93.1748094 79.4270887,84.1039937 87.5805895,87.2967446 C90.4591428,88.4239295 90.8327662,91.8211546 93.8217528,92.7439163 C96.8586522,93.6814698 99.8488125,93.7270044 102.612064,94.2891713 C103.68846,94.5081578 107.644786,94.8541148 111.08205,94.1530725 C114.053336,93.5470682 116.468312,92.0176736 116.468312,92.0176736 C116.797798,91.8258104 116.979522,91.9740723 116.874125,92.3337185 C116.874125,92.3337185 116.244233,94.7201391 114.781498,98.1092853 C113.844042,100.281363 112.393424,102.651383 111.546139,105.056193 C111.33915,105.64368 110.007853,108.35151 109.085149,110.815843 C108.12233,113.38731 107.232266,117.032355 107.232266,117.032355 C107.185308,117.22018 106.994352,117.35574 106.79179,117.333499 C106.79179,117.333499 99.910109,116.585716 97.1830556,116.159865 C94.0280681,115.667189 87.5805891,114.322617 87.5805891,114.322617 C87.5805891,114.322617 78.7853658,113.748648 75.2650831,113.086852 C73.6707154,112.787118 69.7173684,111.085367 69.7173684,111.085367 C69.3645466,110.936513 69.2033432,110.527374 69.3363764,110.163784 C69.3363764,110.163784 70.2614895,108.435546 69.5512768,105.658653 Z" id="топ" fill="#000000"></path>
                <path d="M107.246472,81.8546059 C103.753499,83.5074039 98.3564687,84.0339938 94.1548816,86.1327254 C90.7686328,87.8241879 87.7368132,90.0941867 84.2969392,92.0026347 C80.2735196,94.2348349 75.8208288,96.1013806 71.5410157,97.9201871 C61.4537736,102.206996 51.6243468,104.342953 46.3268262,105.401343 C44.1016131,105.845917 42.6760111,106.677519 42.3667878,106.470208 C42.1214325,106.305716 40.7109327,105.283217 38.5513064,103.010988 C34.5803288,98.8329641 27.7261886,91.6143624 21.2759453,83.2766218 C16.2877106,76.8287088 11.8564362,69.7114886 7.60045102,62.8136279 C6.5877469,61.1722942 5.83283772,61.8098439 4.9429229,60.1258691 C2.0381485,54.6292007 1.07585989,46.0924165 0.568837644,39.8470686 C0.31540081,36.7253098 0.149190873,34.3578217 0.0651526816,32.5646808 C-0.097289569,29.0986156 2.0833857,33.3954943 2.49847497,32.9218863 C3.0639864,32.2766498 1.38462933,29.2905654 1.72098251,26.9063518 C1.96825668,25.1535678 3.75966941,23.02527 4.5925132,23.0922905 C5.51337817,23.1663943 6.65719139,27.4738344 7.65267596,32.9861627 C8.02431364,35.0440439 8.07370562,37.2698508 8.51881775,39.5060126 C8.88960111,41.3687603 10.2891508,43.2386933 10.600506,45.0247306 C10.9252963,46.8878361 10.7742499,48.6596493 10.9376024,50.2367826 C11.2963697,53.7006031 11.8318439,56.2253596 12.7904819,56.7157604 C15.5343124,58.1193939 17.7002753,62.9847328 21.2967788,67.0704948 C28.7374072,75.5233259 41.1896197,87.2546458 48.1765727,89.0402952 C49.7471301,89.4416812 45.4069289,87.1355639 40.8523783,83.7478333 C34.9222388,79.3369229 28.9591878,67.6876101 26.8632445,65.3184867 C26.2885282,64.6688632 25.889519,62.6890433 25.0532162,60.1258682 C24.3811271,58.0659898 24.2275921,58.7829703 24.3187196,56.3572116 C24.3607962,55.2371598 26.7665035,57.2442827 26.7366807,56.0828974 C26.6086762,51.0980396 25.2656625,45.2265016 25.4756222,41.519101 C25.512352,40.8705394 25.6056505,40.2979997 25.7363394,39.8028307 C25.8578095,39.3425913 26.7124006,40.0003968 26.8830741,39.6749204 C27.3189389,38.8437212 27.1642169,37.4043014 27.5640642,37.4771075 C27.822758,37.5242117 28.8187853,37.9539301 29.1381997,38.6700617 C29.5512019,39.5960184 29.6306773,41.000813 30.0594961,42.6764886 C30.4411383,44.1678145 31.536766,45.873698 31.9264837,47.6475431 C32.3942815,49.7767786 32.0908482,52.0039361 32.4240964,54.0754763 C32.5706466,54.986463 32.7296885,55.8673547 32.8923713,56.6965887 C33.5928335,60.2670163 34.3607923,62.8797621 34.4897346,62.8136273 C34.7079014,62.701729 34.6175287,67.3520665 36.4224871,68.9042757 C38.8204884,70.9664838 44.5812333,74.6533194 44.5812333,74.6533194 C44.5812333,74.6533194 54.3436305,83.7478314 59.049089,83.7478333 C63.7545476,83.7478353 77.9258844,71.7478508 77.9258844,71.7478508 C77.9258844,71.7478508 91.3428726,56.0828977 99.1490665,56.0828977 C102.122558,56.0828977 107.565947,53.6397026 111.931399,58.407826 C117.026323,63.9727075 118.46415,74.6533185 118.46415,74.6533185 C118.46415,74.6533185 114.69997,78.3277744 107.246472,81.8546059 Z" id="руки" fill="#B97B5F"></path>
                <path d="M92.1676299,57.9456994 C92.1676299,57.9456994 90.9343858,59.9942836 91.0338982,60.0396978 C91.1417034,60.0888967 92.7895827,58.2295386 92.7895827,58.2295386 L92.1676299,57.9456994 Z" id="Rectangle-24-Copy" fill="#FFCC00"></path>
                <path d="M90.5861401,59.7789701 C90.5861401,59.7789701 93.0912227,58.3339582 94.757362,57.7234697 C96.7424626,56.9961109 99.2902603,56.1470992 100.923696,55.9190532 C102.110286,55.753392 105.384523,55.7828793 107.521048,56.6111153 C110.481993,57.7589418 113.528851,60.4437165 113.528851,60.4437165 C113.528851,60.4437165 114.80575,62.1778339 115.969646,64.1498677 C117.342031,66.4751507 117.930234,69.1207417 117.946348,69.2694486 C118.162641,71.2655122 118.525723,75.2155785 118.525723,75.2155785 C118.525723,75.2155785 116.686651,68.6253438 113.528851,64.1498677 C111.795504,61.693236 109.127464,59.6960425 107.871458,58.8587469 C107.112697,58.3529307 104.008864,57.187029 101.535282,57.373068 C99.3267349,57.5391737 95.7025991,58.6297108 94.7573619,58.8587469 C91.768574,59.5829462 88.3955411,61.5254099 88.3955411,61.5254099 L90.5861401,59.7789701 Z" id="к-топу" fill="#000000"></path>
                <path d="M81.2028738,22.7830296 C84.0669279,23.9622956 85.6416061,27.5852344 86.121865,28.0230323 C89.101295,30.7390429 84.5377488,21.383769 94.4573881,21.383769 C96.8753367,21.383769 99.8156893,25.9632449 101.049126,29.7774811 C102.330946,33.7413382 101.884295,36.9630598 103.30865,37.9181938 C105.121282,39.1336946 105.87787,37.5659156 107.79656,35.8630677 C110.763549,33.2298495 114.598487,28.9607698 114.598487,23.9818676 C114.598487,21.3770481 112.49307,21.8699197 111.94778,19.5632069 C110.874349,15.022324 110.444763,9.52333851 107.79656,6.03259763 C104.991862,2.33557163 99.8510678,0.614537493 94.4573881,0.614537493 C85.6455093,0.614537493 76.2103702,3.00779418 71.7619163,8.89731947 C70.6025053,10.4323203 69.0331824,12.1050103 68.788141,14.1528771 C68.578496,15.904929 74.3347769,19.4053591 74.3347769,21.383769 C74.3347769,22.9492994 78.41784,21.6362999 81.2028738,22.7830296 Z" id="волосы" fill="#342017"></path>
                <g id="наушнки" transform="translate(84.098361, 0.000000)">
                    <rect id="Rectangle-23" fill="#FFCC00" x="7.00819672" y="36.4417671" width="2.80327869" height="4.20481928" rx="0.0840000041"></rect>
                    <path d="M8.06926928,57.9456994 C8.06926928,57.9456994 8.19197681,57.4229961 8.03818486,56.4093293 C7.92735932,55.6788608 7.51560145,54.6493858 7.55315518,53.5846507 C7.63322771,51.3144094 7.35860656,49.026089 7.35860656,48.4978046 C7.35860656,47.2564554 7.09261772,45.4294313 7.18405139,43.8146771 C7.29205161,41.9073513 7.76024575,40.2961847 7.76024575,40.2961847 L9.11065574,40.2961847 C9.11065574,40.2961847 8.20591356,42.1599294 8.03818483,44.2334779 C7.92102108,45.6819163 8.17192777,47.2327277 8.17192777,48.322174 C8.17192777,48.9108378 8.50780949,51.5578741 8.31255367,54.1384637 C8.25395337,54.912952 8.76794409,55.9809101 8.8114753,56.556488 C8.90577401,57.8033233 8.69122209,58.2295386 8.69122209,58.2295386 L8.06926928,57.9456994 Z" id="Rectangle-24" fill="#FFCC00"></path>
                    <path d="M9.02668656,38.5441767 C14.0119879,38.5441767 18.2213115,34.4788049 18.2213115,29.4639146 C18.2213115,26.7562942 17.0432093,24.3254673 15.1745178,22.6618405 C14.7669954,22.2990384 13.1884655,20.5641731 12.8012809,18.2940492 C11.9112524,13.0756723 13.8046424,4.27445712 12.8012809,0.988394996 C12.6322551,0.434826461 10.5248135,0.150928049 8.64958971,0.222495113 C7.5768763,0.263434734 6.6948197,0.18495794 6.5409386,0.835114441 C5.6227239,4.71462429 7.46002948,13.706301 6.38268254,18.2940498 C5.76571424,20.9213331 3.48280666,22.2721595 3.03385077,22.6733853 C1.17266397,24.3367027 0,26.7625507 0,29.4639146 C0,34.4788049 4.04138523,38.5441767 9.02668656,38.5441767 Z" id="Oval-7" fill="#FFCC00"></path>
                    <ellipse id="Oval-8" stroke="#FFFFFF" stroke-width="0.700000048" fill="#342017" cx="9.28586066" cy="29.2585341" rx="5.7817623" ry="5.78162651"></ellipse>
                </g>
            </g>
        </g>
    </g>
</svg>