<?xml version="1.0" encoding="UTF-8" standalone="no"?>
<svg width="29px" height="29px" viewBox="0 0 29 29" version="1.1" xmlns="http://www.w3.org/2000/svg" xmlns:xlink="http://www.w3.org/1999/xlink">
    <!-- Generator: Sketch 3.6.1 (26313) - http://www.bohemiancoding.com/sketch -->
    <title>Do not  Disturb</title>
    <desc>Created with Sketch.</desc>
    <defs></defs>
    <g id="Page-1" stroke="none" stroke-width="1" fill="none" fill-rule="evenodd">
        <g id="iphone-settings-01" transform="translate(-15.000000, -542.000000)">
            <g id="Group" transform="translate(0.000000, 490.000000)">
                <g id="Sound" transform="translate(0.000000, 44.000000)">
                    <g id="Do-not--Disturb" transform="translate(15.000000, 8.000000)">
                        <rect id="Rectangle-1193" fill="#FF2D55" x="0" y="0" width="29" height="29" rx="6"></rect>
                        <path d="M20.7613908,8.25899642 C20.815283,8.32043041 20.8923228,8.4157288 21.0023094,8.56325633 C22.1935654,10.1611148 23,12.67372 23,15.0070533 C23,17.3403866 22.2061922,19.7959967 21.0975171,21.319129 C20.9497126,21.5221875 20.8443847,21.6480564 20.7713235,21.7259661 C20.6662272,21.8905549 20.4797426,22 20.2672081,22 C19.938893,22 19.6727411,21.7388328 19.6727411,21.4166667 C19.6727411,21.3882939 19.6748054,21.3603942 19.6787947,21.3331044 C19.6887976,21.2468012 19.7199897,21.1625559 19.7732582,21.0901872 C19.7732582,21.0901872 19.9258396,20.8864215 20.1342658,20.5929394 C20.9207445,19.4855097 21.8002537,17.3403864 21.8128225,15.0070533 C21.8002537,12.6737198 20.9369994,10.6368239 20.1342658,9.4255814 C19.9036204,9.07756137 19.7770917,8.93031391 19.7770917,8.93031391 C19.7067401,8.83985806 19.6722959,8.72937214 19.6737775,8.61806688 C19.6730898,8.60657527 19.6727411,8.59499426 19.6727411,8.58333333 C19.6727411,8.26116724 19.938893,8 20.2672081,8 C20.473202,8 20.6547244,8.10281242 20.7613908,8.25899642 L20.7613908,8.25899642 Z M18.3502239,10.5482009 C18.3740968,10.5711465 18.396709,10.5961725 18.4178342,10.6232601 C18.4178342,10.6232601 18.4989407,10.7059075 18.6663818,10.9672783 C19.3992446,12.069196 19.9364139,13.4891515 19.9532116,14.9582895 C19.9364139,16.6074078 19.5394814,17.9142716 18.6663818,19.0690921 C18.4876193,19.3055353 18.4271105,19.3721812 18.4271105,19.3721812 C18.4023745,19.4024662 18.3757046,19.430122 18.3474398,19.4551233 C18.2384009,19.5843443 18.0736676,19.6666667 17.8893401,19.6666667 C17.561025,19.6666667 17.2948731,19.4054995 17.2948731,19.0833333 C17.2948731,18.8971143 17.3837969,18.7312756 17.5222497,18.6244741 C17.5844131,18.5485889 17.690883,18.4213173 17.853492,18.2351076 C18.6050711,17.3744471 18.738568,16.3482274 18.7466869,14.9582894 C18.738568,13.7993059 18.323454,12.6293977 17.7626385,11.7273661 C17.5434557,11.417031 17.4524307,11.3138175 17.4524307,11.3138175 C17.4498702,11.3105802 17.447349,11.3073214 17.4448668,11.3040416 C17.3515535,11.2010219 17.2948731,11.0653395 17.2948731,10.9166667 C17.2948731,10.5945006 17.561025,10.3333333 17.8893401,10.3333333 C18.0752433,10.3333333 18.2412159,10.4170692 18.3502239,10.5482009 L18.3502239,10.5482009 Z M10.4759868,11.5113677 L6.75756077,11.5113677 C6.339056,11.5113677 6,11.8634899 6,12.2981227 L6,17.7018774 C6,18.1365101 6.339056,18.4886323 6.75756077,18.4886323 L10.4759868,18.4886323 L14.682855,21.88667 C15.0202325,22.159187 15.5114721,21.9093313 15.5114721,21.4659827 L15.5114721,8.53401728 C15.5114721,8.09066867 15.0202325,7.84081295 14.682855,8.11333 L10.4759868,11.5113677 L10.4759868,11.5113677 Z" id="Rectangle-950-Copy" fill="#FFFFFF"></path>
                    </g>
                </g>
            </g>
        </g>
    </g>
</svg>