<?xml version="1.0" encoding="UTF-8" standalone="no"?>
<svg width="355px" height="57px" viewBox="0 0 355 57" version="1.1" xmlns="http://www.w3.org/2000/svg" xmlns:xlink="http://www.w3.org/1999/xlink">
    <!-- Generator: Sketch 3.6 (26304) - http://www.bohemiancoding.com/sketch -->
    <title>Group 2</title>
    <desc>Created with Sketch.</desc>
    <defs></defs>
    <g id="Page-1" stroke="none" stroke-width="1" fill="none" fill-rule="evenodd">
        <g id="Экран-2" transform="translate(-10.000000, -522.000000)">
            <g id="Group-2" transform="translate(10.000000, 522.000000)">
                <path d="M341.847826,8.29281834e-08 C349.771413,8.29281834e-08 355,5.12293921 355,13.152174 L355,43.8478262 C355,51.877061 349.771413,57.0000001 341.847826,57.0000001 L13.152174,57 C5.22858704,57 8.29281849e-08,51.8770609 8.29281849e-08,43.8478261 L0,13.1521739 C0,5.12293913 5.22858696,0 13.1521739,0 L341.847826,8.29281834e-08 Z" id="Close-Background" fill="#4A90E2"></path>
                <path d="M165.467112,17.818293 L166.121592,17.1638133 C166.466896,16.8185094 166.47155,16.2461997 166.121432,15.8960808 L166.091005,15.8656539 C165.745197,15.5198466 165.173302,15.5154631 164.823272,15.8654935 L162.252732,18.436033 C161.907429,18.781337 161.902774,19.3536467 162.252893,19.7037656 L162.28332,19.7341925 C162.629127,20.0799998 163.201022,20.0843833 163.551052,19.7343529 L164.267702,19.0177029 L165.082409,19.83241 C165.30159,20.0515901 165.6511,20.0494369 165.868,19.8325372 L166.281946,19.4185906 C166.497701,19.202836 166.498789,18.84997 166.281819,18.6330001 L165.467112,17.818293 Z M178.833782,12.587234 L180.10549,12.587234 C180.812127,12.587234 181.388092,12.014849 181.388092,11.3087763 L181.388092,11.2784578 C181.388092,10.5741911 180.813851,10 180.10549,10 L175.007763,10 C174.301126,10 173.725161,10.572385 173.725161,11.2784578 L173.725161,11.3087763 C173.725161,12.013043 174.299401,12.587234 175.007763,12.587234 L176.439116,12.587234 L176.439116,14.2133395 C176.439116,14.6543102 176.796119,15.012766 177.236505,15.012766 L178.036393,15.012766 C178.48044,15.012766 178.833782,14.6548505 178.833782,14.2133395 L178.833782,12.587234 Z M178.03556,48 C169.218643,48 162.071119,40.7603491 162.071119,31.8297872 C162.071119,22.8992253 169.218643,15.6595745 178.03556,15.6595745 C186.852477,15.6595745 194,22.8992253 194,31.8297872 C194,40.7603491 186.852477,48 178.03556,48 Z M178.03556,46.7561375 C186.174252,46.7561375 192.771966,40.0733828 192.771966,31.8297872 C192.771966,23.5861916 186.174252,16.903437 178.03556,16.903437 C169.896867,16.903437 163.299153,23.5861916 163.299153,31.8297872 C163.299153,40.0733828 169.896867,46.7561375 178.03556,46.7561375 Z M178.273079,31.8297872 L178.273079,18.0851064 C170.815258,18.0851064 164.769499,24.2388096 164.769499,31.8297872 C164.769499,39.4207649 170.815258,45.5744681 178.273079,45.5744681 C185.730901,45.5744681 191.77666,39.4207649 191.77666,31.8297872 L178.273079,31.8297872 Z M191.565869,19.2504706 L192.213604,19.8982053 C192.563014,20.2476156 193.131621,20.2434596 193.484891,19.8901901 L193.503909,19.8711723 C193.857031,19.5180503 193.860767,18.9487283 193.511924,18.5998854 L190.937084,16.0250454 C190.587673,15.675635 190.019066,15.679791 189.665797,16.0330606 L189.646779,16.0520783 C189.293657,16.4052003 189.289921,16.9745224 189.638764,17.3233652 L190.366459,18.0510606 L189.550451,18.8670692 C189.329164,19.0883561 189.326605,19.4455557 189.54534,19.6642913 L189.952639,20.0715897 C190.171717,20.2906684 190.528303,20.2880371 190.749861,20.0664791 L191.565869,19.2504706 Z" id="Shape" fill="#FFFFFF"></path>
            </g>
        </g>
    </g>
</svg>