<?xml version="1.0" encoding="UTF-8" standalone="no"?>
<svg width="20px" height="21px" viewBox="0 0 20 21" version="1.1" xmlns="http://www.w3.org/2000/svg" xmlns:xlink="http://www.w3.org/1999/xlink">
    <!-- Generator: Sketch 3.6 (26304) - http://www.bohemiancoding.com/sketch -->
    <title>общее copy</title>
    <desc>Created with Sketch.</desc>
    <defs></defs>
    <g id="Page-1" stroke="none" stroke-width="1" fill="none" fill-rule="evenodd">
        <g id="Экран-1" transform="translate(-88.000000, -75.000000)" fill="#FFFFFF">
            <g id="Navigation-Bar/Combo">
                <g id="Items" transform="translate(8.000000, 71.000000)">
                    <path d="M90.2056599,9.25 C91.6277105,9.25 92.7805102,8.07474747 92.7805102,6.625 C92.7805102,5.17525253 91.6277105,4 90.2056599,4 C88.7836093,4 87.6308096,5.17525253 87.6308096,6.625 C87.6308096,8.07474747 88.7836093,9.25 90.2056599,9.25 Z M93.5420001,17.547719 C93.5420001,20.0318126 94.0793811,25 94.0793811,25 L85.9111905,25 C85.9111905,25 86.5560477,20.0318126 86.5560477,17.547719 C86.5560477,16.4871534 85.9794852,14.9737871 85.9345787,13.5875799 C85.9345787,13.5875799 85.6583054,10.126848 85.9114099,10.1005249 C85.9111905,10.0954379 88.6339207,9.5434171 89.9952858,9.5434171 C91.3566509,9.5434171 94.0793811,10.0954379 94.0793811,10.0954379 C94.3356826,10.1236951 94.056336,13.5769966 94.056336,13.5769966 C94.0112862,14.9660796 93.5420001,16.4844537 93.5420001,17.547719 Z M85.591706,13.1268207 C85.602997,13.4259924 85.4503142,13.8557013 85.253068,14.0838398 L82.2567916,17.5493854 L85.3465001,21.6188422 C85.6735187,22.0495586 85.6057355,22.6796616 85.1932561,23.0277745 L85.3648057,22.8829948 C84.9531528,23.2304103 84.3449051,23.1704196 84.005729,22.7483582 L80.2586439,18.0855881 C79.9196995,17.663815 79.9131595,16.974136 80.243315,16.5460826 L80.7446511,15.8960899 L84.8166246,10.5801849 C84.9856156,10.3595696 85.2284006,10.2323314 85.4815052,10.206195 C85.4812858,10.201144 85.591706,13.1268207 85.591706,13.1268207 Z M94.5092859,10.201144 C94.7655873,10.2292008 95.012296,10.3568432 95.1833754,10.5801849 L99.2553489,15.8960899 L99.756685,16.5460826 C100.08684,16.974136 100.080301,17.663815 99.7413561,18.0855881 L95.994271,22.7483582 C95.6550949,23.1704196 95.0468472,23.2304103 94.6351943,22.8829948 L94.8067439,23.0277745 C94.3942645,22.6796616 94.3264813,22.0495586 94.6534999,21.6188422 L97.7432084,17.5493854 L94.7261471,14.0597995 C94.534293,13.8378978 94.3881513,13.4094015 94.3991585,13.1178754 L94.5092859,10.201144 Z" id="общее-copy"></path>
                </g>
            </g>
        </g>
    </g>
</svg>