<?xml version="1.0" encoding="UTF-8" standalone="no"?>
<svg width="160px" height="160px" viewBox="0 0 160 160" version="1.1" xmlns="http://www.w3.org/2000/svg" xmlns:xlink="http://www.w3.org/1999/xlink">
    <!-- Generator: Sketch 3.6.1 (26313) - http://www.bohemiancoding.com/sketch -->
    <title>Group 2</title>
    <desc>Created with Sketch.</desc>
    <defs></defs>
    <g id="Page-1" stroke="none" stroke-width="1" fill="none" fill-rule="evenodd">
        <g id="Экран-3.1" transform="translate(-108.000000, -390.000000)">
            <g id="timer" transform="translate(106.000000, 362.000000)">
                <g id="TimerSet">
                    <g id="Group-2" transform="translate(2.000000, 28.000000)">
                        <circle id="Oval-85" fill="#414850" cx="79.5" cy="80.5" r="74.5"></circle>
                        <path d="M79.9019608,160 C35.7733264,160 0,124.18278 0,80 C0,35.81722 35.7733264,0 79.9019608,0 C124.030595,0 159.803922,35.81722 159.803922,80 C159.803922,124.18278 124.030595,160 79.9019608,160 Z M79.9019608,153.846154 C120.636085,153.846154 153.657617,120.784105 153.657617,80 C153.657617,39.2158954 120.636085,6.15384615 79.9019608,6.15384615 C39.1678367,6.15384615 6.14630468,39.2158954 6.14630468,80 C6.14630468,120.784105 39.1678367,153.846154 79.9019608,153.846154 Z" id="Shape" fill="#FFB4A6"></path>
                    </g>
                </g>
            </g>
        </g>
    </g>
</svg>