<?xml version="1.0" encoding="UTF-8" standalone="no"?>
<svg width="100px" height="100px" viewBox="0 0 100 100" version="1.1" xmlns="http://www.w3.org/2000/svg" xmlns:xlink="http://www.w3.org/1999/xlink">
    <!-- Generator: Sketch 3.6.1 (26313) - http://www.bohemiancoding.com/sketch -->
    <title>Group 34</title>
    <desc>Created with Sketch.</desc>
    <defs></defs>
    <g id="Page-1" stroke="none" stroke-width="1" fill="none" fill-rule="evenodd">
        <g id="Artboard-9" transform="translate(-426.000000, -792.000000)">
            <g id="Arms" transform="translate(426.000000, 188.000000)">
                <g id="Group-34" transform="translate(0.000000, 604.000000)">
                    <rect id="Rectangle-114-Copy-19" fill="#EA6A64" x="0" y="0" width="100" height="100" rx="8"></rect>
                    <path d="M52.55609,45.7037581 C52.219151,45.2794964 51.8161397,44.9504765 51.3344221,44.7801909 C50.1748481,44.3702853 45.4685493,47.8201925 45.1315736,47.6873552 C44.794598,47.5545179 44.8875366,48.9602051 46.3696409,49.0701188 C47.6239081,49.1631361 50.1619091,47.6873551 50.1619091,47.6873551 C50.6295627,47.6873551 48.0664561,52.1102782 48.0664561,52.1102782 L47.4261726,52.2760648 C47.7268777,52.1790748 47.9285099,52.087425 47.9964142,52.0029266 C48.3505307,51.562273 48.968557,50.0830103 49.2758126,49.2161471 C49.4230524,48.8007383 49.7057756,48.4299644 49.5492512,48.4775076 C49.1802604,48.589586 48.1871157,49.3700806 47.4647578,49.5106628 C46.6634091,49.6666179 45.9219831,49.5452438 45.6822492,49.4968 C45.3639767,50.0088188 45.1732819,50.3185462 45.1732819,50.3185462 C45.1732819,50.3185462 42.3795017,50.8754191 37.6421369,51.5771027 C36.4213263,51.7579253 32.5769809,51.4816292 30.8370141,51.2946854 C28.2103974,51.0124791 22.6589052,49.3815505 20.2074858,49.744647 C13.1390413,50.7916027 10.6376873,53.8058754 10.6376873,53.8058754 C10.6376873,53.8058754 9.68661983,57.8484775 10.1066603,58.8582606 C10.5267008,59.8680437 11.4290242,60.0597598 13.4966274,60.6788061 C15.3635352,61.2377637 20.8666348,60.6321037 22.0223943,60.6805481 C25.247028,60.8157105 28.4360444,59.1349665 31.6085569,58.0907956 C34.653343,57.0886634 35.6834534,58.3420644 37.5613645,58.4243486 L37.3703332,59.1042767 C37.3703332,59.1042767 39.1399644,61.831139 40.3104952,61.8784471 C41.807146,61.9389355 44.0079242,60.5310558 45.1315736,60.3293765 C45.985832,60.176049 46.2477941,59.5184781 47.2491047,59.1042767 C48.7037954,58.5025304 50.7901621,58.1228985 50.7901621,58.1228985 C50.7901621,58.1228985 52.8061018,54.7662946 53.7569633,52.7603971 C54.8169427,52.5435664 56.5625151,52.3551294 58.0018613,53.0085945 C63.7944273,55.638427 73.6273049,61.3697071 80.8209914,61.8222726 C81.9754833,61.8949034 84.5231969,62.1830235 86.4383046,61.822273 C88.5592892,61.4227413 89.9999999,60.3660487 89.9999999,60.3660487 L90,55.2858335 C90,55.2858335 84.8793468,51.6404808 77.9590607,49.8604067 C75.5590244,49.2430562 73.3816499,49.0959018 70.7399234,49.1020059 C68.9899474,49.1060495 66.58927,49.3134498 65.3940482,49.0060083 L52.55609,45.7037581 Z M37.5664832,58.4061296 C37.5659173,58.405662 37.5653599,58.4051427 37.5648109,58.4045714 C37.4259671,58.2600709 37.9283332,55.0752993 38.4597987,54.4037024 C38.8480655,53.9130614 43.4793084,53.2058578 46.1510558,52.6062268 L38.6503548,54.5483595 L37.5664832,58.4061296 Z M48.0052885,45.8097027 C49.8586143,42.9119042 51.9664976,39.7395698 52.1263684,40.0418429 C52.1760075,40.1356972 52.8535138,40.179525 53.5664872,39.6953345 C54.7282906,38.9063371 56.1084412,37.4724182 55.9428443,38.198365 C55.8985233,38.39266 55.9610983,38.6796107 55.8694618,38.896552 C55.5098204,39.7479714 54.7076427,40.696996 54.1713092,41.944927 C54.0112826,42.317274 59.711845,40.4292073 59.5392198,40.8209649 C59.4232221,41.0842113 59.7113013,41.5528441 59.173175,42.0120898 C58.50989,42.578148 57.1012878,43.1746092 56.1449859,43.6685174 C54.8769434,44.3234325 53.3599376,44.5317545 53.0048319,45.0391249 C52.9360044,45.1374646 52.8686326,45.2251022 52.8025545,45.3044417 C52.6717885,45.1242281 52.4575875,44.8651998 52.2098047,44.7064483 C51.8634016,44.4845119 51.534931,44.4118473 51.365978,44.4118473 C50.3628953,44.4118473 48.6824586,45.3889255 48.0052885,45.8097027 Z" id="Rectangle-184" fill="#FFFFFF"></path>
                </g>
            </g>
        </g>
    </g>
</svg>