<?xml version="1.0" encoding="UTF-8" standalone="no"?>
<svg width="100px" height="100px" viewBox="0 0 100 100" version="1.1" xmlns="http://www.w3.org/2000/svg" xmlns:xlink="http://www.w3.org/1999/xlink">
    <!-- Generator: Sketch 3.6.1 (26313) - http://www.bohemiancoding.com/sketch -->
    <title>Group 24</title>
    <desc>Created with Sketch.</desc>
    <defs></defs>
    <g id="Page-1" stroke="none" stroke-width="1" fill="none" fill-rule="evenodd">
        <g id="Artboard-9" transform="translate(-574.000000, -490.000000)">
            <g id="Abs" transform="translate(574.000000, 188.000000)">
                <g id="Group-24" transform="translate(0.000000, 302.000000)">
                    <rect id="Rectangle-114-Copy-17" fill="#EA6A64" x="0" y="0" width="100" height="100" rx="8"></rect>
                    <g id="Group-10" transform="translate(27.000000, 10.000000)">
                        <path d="M41.2771605,46.1997985 L27.63369,44.6446491 C26.8527873,44.555638 25.5992838,44.6649954 24.8392566,44.8895148 L16.6382681,47.3121668 C16.4825662,47.3581627 16.3595278,47.4064676 16.2691407,47.4551971 L15.3333333,47.4551971 L15.3333333,75.8422939 L17.6477987,75.8422939 L17.6477987,48.0740782 L31.9685535,50.2073691 L31.9685535,80 L34.572327,80 L34.572327,50.0769709 C34.7388086,50.0323063 34.8940389,49.9815615 35.0317621,49.9254843 L41.2286939,47.4022586 C41.2378681,49.812843 41.2839776,56.2247954 41.5157233,59.7849462 C41.8050314,64.2293907 42.8176101,73.1182796 42.8176101,73.1182796 L44.2061356,73.0418245 C44.6112183,73.0195198 45.4213836,72.9749104 45.4213836,72.9749104 C45.4213836,72.9749104 44.408805,64.2293907 44.1194969,59.7849462 C43.8740506,56.014323 43.8368386,49.0447397 43.8311969,47.0180957 L44.0058315,47.0180957 L44.9319672,25.0896057 L46,25.0896057 L46,21.3620072 L31.5345912,21.3620072 L31.5345912,25.0896057 L42.7786919,25.0896057 L41.2771605,46.1997985 Z" id="Rectangle-146" fill-opacity="0.4" fill="#000000"></path>
                        <path d="M7.46503443,61.9883802 C6.68067064,63.2568753 6.08163636,64.2252539 5.88442108,64.8632325 C5.68264017,65.5159807 6.71947566,66.1317226 6.93001968,65.9152555 C7.43090381,65.4002803 8.7884087,66.3558057 10.0534591,65.2874816 C12.2597237,63.4243101 15.6615012,59.192564 16.2803893,57.9233165 C16.811241,56.8346187 15.3066362,55.0793411 15.8025095,54.0698849 C16.9963743,51.6395175 17.9574787,49.7253616 18.6320429,49.1255215 C20.6919097,47.293834 19.7901282,45.7872807 22.1104517,45.2956612 C24.4307751,44.8040416 30.4505605,47.6737948 33.3692255,45.7872813 C34.4101294,45.1144809 36.115901,42.8964775 36.7303357,39.9416376 C37.0844045,38.2389072 36.4396415,35.9825412 36.7303357,34.4293601 C37.1155405,32.3712082 36.7303357,29.0128586 36.7303357,29.0128586 C36.7303357,29.0128586 38.1881437,27.4929351 38.3836646,24.5859032 C38.559161,21.9765997 37.6862571,18.4969374 37.8993705,16.284192 C37.9809547,15.4371079 38.2678684,14.6799055 38.5973266,14.2365065 C38.9552295,13.7548254 39.4057964,13.6183185 39.1819775,13.4767025 C37.9158877,12.6756145 34.571088,12.1475562 31.4596878,12.17 C30.7186285,12.1753456 24.2278071,13.1701584 23.7936005,13.4767025 C22.7055291,14.2448666 22.6259177,18.1107815 22.8553454,22.0718203 C23.0288266,25.0669502 23.7694069,27.5883033 23.3361046,27.9365173 C22.3297628,28.7452419 20.6854932,26.0584371 18.6320432,28.4672705 C18.6291206,28.4706989 18.6261654,28.4741914 18.6231779,28.4777482 C17.003632,28.0353259 14.3952344,26.6497744 12.8458796,28.4672705 C12.3862562,29.0064393 11.1213655,31.1311332 10.0163465,35.1742318 C8.89582751,39.2740423 7.92916356,45.3179319 6.59946516,49.5284492 C6.10300815,51.1004906 6.39078219,52.6872346 5.84376546,54.0698849 C3.70526808,59.4751932 0.600218398,63.2394218 0.0982575581,64.8632325 C-0.103523351,65.5159807 0.933312138,66.1317226 1.14385616,65.9152555 C1.64474029,65.4002803 3.00224518,66.3558057 4.26729559,65.2874816 C5.21740734,64.4851204 6.38923072,63.2434996 7.46503443,61.9883802 Z M10.4907663,56.6455566 C10.8864214,55.8346054 11.2717338,54.975266 11.629929,54.0698849 C12.1493611,52.7569579 11.9160722,51.2600021 12.3162988,49.7663549 C11.7006664,50.6656972 10.9260835,52.2179194 10.016346,54.0698849 C9.68806598,54.738169 10.2365468,55.7333285 10.4907663,56.6455566 Z M32.9811321,11.4695341 C36.1767419,11.4695341 38.7672956,8.9019914 38.7672956,5.73476703 C38.7672956,2.56754265 36.1767419,0 32.9811321,0 C29.7855222,0 27.1949686,2.56754265 27.1949686,5.73476703 C27.1949686,8.9019914 29.7855222,11.4695341 32.9811321,11.4695341 Z M38.8807105,24.5619936 C38.9094416,22.7004087 39.0232708,21.3711928 38.8807105,19.9247043 C38.7063929,18.1559892 38.1796007,18.0378562 38.1796008,16.8773031 C38.1796009,15.71675 38.6229163,12.9304237 40.7000305,14.1311499 C41.2388057,14.442602 42.4830061,14.8172912 42.8436633,15.9971033 C43.8734303,19.365764 42.9683591,26.6649179 42.8436633,29.7293874 C42.7151526,32.88761 41.3483572,37.2284023 41.3483572,37.2284023 C41.3483572,37.2284023 40.1755807,38.9061887 39.3621413,41.2270023 C38.6105291,43.3714175 38.2551651,46.1014032 37.3160282,47.7057825 C36.1903632,49.6288182 34.8909722,48.1108929 35.4261279,46.4636043 C35.8293509,45.2224243 35.8143412,44.0288276 36.8239138,40.3317609 C37.1542415,39.1220973 37.6488183,38.3011279 37.9411791,36.4393621 C37.9571526,36.3376422 38.7946136,30.1405197 38.8807105,24.5619936 Z" id="Oval-37" fill="#FFFFFF"></path>
                    </g>
                </g>
            </g>
        </g>
    </g>
</svg>