<?xml version="1.0" encoding="UTF-8" standalone="no"?>
<svg width="100px" height="100px" viewBox="0 0 100 100" version="1.1" xmlns="http://www.w3.org/2000/svg" xmlns:xlink="http://www.w3.org/1999/xlink">
    <!-- Generator: Sketch 3.6.1 (26313) - http://www.bohemiancoding.com/sketch -->
    <title>Group 3</title>
    <desc>Created with Sketch.</desc>
    <defs></defs>
    <g id="Page-1" stroke="none" stroke-width="1" fill="none" fill-rule="evenodd">
        <g id="Artboard-10" transform="translate(-229.000000, -63.000000)">
            <g id="Group" transform="translate(229.000000, 63.000000)">
                <g id="Group-3">
                    <rect id="Rectangle-114-Copy-6" fill="#EA6A64" x="0" y="0" width="100" height="100" rx="8"></rect>
                    <path d="M17.0291649,67.9214543 C16.884441,67.2449834 16.0936891,63.520664 15.3183328,59.3097502 C15.0023252,57.5935316 14.9881978,55.8069831 14.6206131,54.0951681 C14.2693446,52.4593362 13.2832962,52.3451808 12.7390784,51.0315929 C12.5072686,50.4720694 12.4336777,48.535892 12.3960557,48.06349 C12.3028493,46.8931414 14.3283909,43.9683868 14.3283909,43.9683868 C14.3642226,43.9135923 14.4048284,43.8616296 14.4494861,43.8127394 C14.4726974,43.7715117 14.4990317,43.7309503 14.5285472,43.6912912 C14.5285472,43.6912912 14.5574738,43.6438501 14.6763987,43.4988555 C15.1760902,42.8896263 16.2526306,41.1401627 16.2526306,39.4242331 C16.2526306,36.9465558 13.8458433,33.3028135 13.1154599,29.8066915 C12.2743624,25.7806153 14.3103054,22.6808236 14.3103054,22.6808236 C14.6016203,22.1377193 15.33117,21.7589418 15.9436526,21.8352805 L20.910183,22.4542998 C21.1345471,22.4822642 21.3673618,22.5727188 21.5823681,22.7038576 L48.8831277,23.2489044 C49.499959,23.2612192 49.9999997,23.7675437 49.9999999,24.3827339 L50,24.6123755 C50.0000002,25.2262575 49.5011767,25.8192001 48.9005377,25.9321915 C48.9005377,25.9321915 35.2281211,28.5879838 29.6208176,28.5879838 C27.9761774,28.5879838 26.0523849,28.7328506 24.1929033,28.9305195 C24.5394767,30.1112765 24.8294944,31.2672579 24.9393346,32.1304043 C25.2200175,34.336068 24.723546,40.9497904 23.9471082,44.5945944 C23.763509,45.4564572 23.5830336,46.1281242 23.4170773,46.6497403 C23.4236575,46.7085792 23.4261799,46.7675204 23.4243403,46.8261246 C23.4243403,46.8261246 23.2430638,51.146078 23.4616174,54.0951683 C23.7664053,58.2078739 21.8922007,68.0327913 21.8922007,68.0327913 C21.8643491,68.1851499 21.805851,68.3302529 21.7242362,68.4621122 C21.6598247,69.1121092 21.0257759,75.5022622 20.6820532,78.6513471 C20.2995585,82.1556482 19.493156,88.8991778 19.493156,88.8991778 C19.42074,89.5071451 18.8602008,90 18.2431343,90 L17.8781963,90 C17.2602444,90 16.7116566,89.497866 16.6554609,88.8905218 C16.6554609,88.8905218 15.7715941,79.8295413 15.7715941,74.8815737 C15.7715941,73.0089865 16.8210338,68.3875992 16.8210338,68.3875992 C16.8572874,68.2207394 16.9299261,68.0626778 17.0291649,67.9214543 Z M17.5401174,21.1090401 C20.5998397,21.1090401 23.0802347,18.6221967 23.0802347,15.55452 C23.0802347,12.4868433 20.5998397,10 17.5401174,10 C14.480395,10 12,12.4868433 12,15.55452 C12,18.6221967 14.480395,21.1090401 17.5401174,21.1090401 Z" id="Oval-101" fill="#FFFFFF"></path>
                    <path d="M83.3663048,61.2826087 L64.895021,61.2826087 L64.895021,63.2608696 L64.895021,87 L68.5287162,87 L68.5287162,64.9347826 L83.3663048,64.9347826 L83.3663048,87 L87,87 L87,40.2826087 L83.3663048,40.2826087 L83.3663048,61.2826087 Z" id="Rectangle-85" fill-opacity="0.4" fill="#000000" transform="translate(75.947511, 63.641304) scale(-1, 1) translate(-75.947511, -63.641304) "></path>
                </g>
            </g>
        </g>
    </g>
</svg>