<?xml version="1.0" encoding="UTF-8" standalone="no"?>
<svg width="100px" height="100px" viewBox="0 0 100 100" version="1.1" xmlns="http://www.w3.org/2000/svg" xmlns:xlink="http://www.w3.org/1999/xlink">
    <!-- Generator: Sketch 3.6.1 (26313) - http://www.bohemiancoding.com/sketch -->
    <title>Group 28</title>
    <desc>Created with Sketch.</desc>
    <defs></defs>
    <g id="Page-1" stroke="none" stroke-width="1" fill="none" fill-rule="evenodd">
        <g id="Artboard-9" transform="translate(-426.000000, -1094.000000)">
            <g id="Arms" transform="translate(426.000000, 188.000000)">
                <g id="Group-28" transform="translate(0.000000, 906.000000)">
                    <rect id="Rectangle-114-Copy-21" fill="#EA6A64" x="0" y="0" width="100" height="100" rx="8"></rect>
                    <g id="Group-13" transform="translate(10.000000, 22.000000)">
                        <g id="Group-12">
                            <path d="M4.68143201,33.9531302 C4.91181093,33.650203 5.40660666,33.404632 5.78262088,33.404632 L21.3298403,33.404632 C21.7076312,33.404632 21.9280957,33.6926324 21.8151407,34.0718026 L20.2159474,39.4400157 C20.1061805,39.8084839 19.7027936,40.1071864 19.3282015,40.1071864 L0.690210589,40.1071865 C0.309688939,40.1071865 0.182632747,39.868639 0.418353125,39.5586883 L4.68143201,33.9531302 Z" id="Rectangle-182" fill-opacity="0.4" fill="#000000"></path>
                            <path d="M18.4160531,24.3026746 C16.9911605,24.7319599 15.2164925,25.268236 13.6026133,25.76056 C14.8122998,29.6346609 16.4560332,33.1972473 16.4560332,33.1972473 C16.4560332,33.1972473 16.7179005,34.0016008 16.1929697,34.2646319 C15.6680388,34.527663 15.0356339,34.2646319 15.0356339,34.2646319 C15.0356339,34.2646319 12.4967574,30.2281801 11.4662035,27.9125493 C11.4417518,27.8576071 11.4167543,27.8003889 11.3912558,27.7410505 C11.5178679,28.6132755 11.8252753,29.8707157 12.3171505,31.3919291 C13.2605963,34.3097068 15.1034686,36.8268643 15.3334056,37.3542769 C15.5633426,37.8816895 15.5649021,38.2144817 15.3334056,38.6312442 C14.9924997,39.2449761 13.9953297,39.3886456 13.5376799,38.8894861 C11.1754535,36.313001 8.02722262,30.0918824 7.27968711,28.7496988 C6.5321516,27.4075151 6.01669902,26.4067717 6.01655117,25.6042761 C6.01646724,25.1487095 6.84598861,23.9900372 8.12058098,23.1796987 C8.5295562,22.9196875 8.97863621,22.6538691 9.45415778,22.3866235 C9.06052792,21.2058747 8.78266802,20.3350047 8.78266802,20.3350047 L12.3444385,17.6654778 C12.3444385,17.6654778 17.2608938,15.1955134 18.9301822,14.6278468 C19.0899481,14.4647147 19.2683007,14.3156533 19.4673344,14.1875761 C20.7669454,13.3512834 23.4406845,13.8475945 24.233664,14.1875761 C26.1887859,15.025814 29.9792355,19.0190425 29.9792355,19.0190425 C29.9792355,19.0190425 31.5948366,21.8085557 31.8652279,23.263702 C32.9517152,29.110775 38.4619538,28.9595731 38.4619538,28.9595731 C38.4619538,28.9595731 45.7165772,26.488539 53.6850371,22.7482101 C58.6093571,20.4367751 64.2513014,18.200845 69.0139279,16.0682944 C70.7668525,15.2833913 78.2634236,10.0328042 79.0293404,10.0323038 C80.0176967,10.0316581 80.8307821,12.2918048 78.4107515,14.1875761 C74.1245723,17.545226 69.2566143,21.2566392 66.0972304,23.263702 C62.9378465,25.2707648 63.8074684,25.0564537 58.9984901,26.7163136 C54.1895118,28.3761735 50.720714,32.1959306 51.2375493,32.5580479 C51.6965084,32.8796145 61.3098994,31.0673948 61.5248397,31.4514742 C61.8339006,32.003739 64.6159683,33.3563205 63.6608413,34.1982597 C63.2427942,34.5667659 57.9436485,54.4969738 57.2667039,54.8683154 C56.6798021,55.1902634 55.6197182,56.698723 55.184199,55.6019713 C54.7486799,54.5052197 54.7093726,47.1243278 55.7829922,42.6024828 C56.2000604,40.8458851 57.4579493,40.1111431 57.2667039,39.1192896 C56.9256424,37.3504469 51.2505592,40.3006244 51.2375493,40.6408279 C51.1815137,42.106141 41.787866,43.2964771 40.8190864,44.1601721 C36.876398,47.6751928 33.413961,45.7025763 29.0920749,41.8464279 C24.3765773,37.6390847 20.4557114,30.8021672 19.4673344,28.4237222 C19.0442415,27.4055852 18.6944346,25.8819075 18.4160531,24.3026746 Z M23.9380911,12.5505481 C27.4332036,12.5505481 30.266552,9.74101222 30.266552,6.27527406 C30.266552,2.80953589 27.4332036,0 23.9380911,0 C20.4429787,0 17.6096303,2.80953589 17.6096303,6.27527406 C17.6096303,9.74101222 20.4429787,12.5505481 23.9380911,12.5505481 Z" id="Oval-45" fill="#FFFFFF"></path>
                        </g>
                    </g>
                </g>
            </g>
        </g>
    </g>
</svg>