<?xml version="1.0" encoding="UTF-8" standalone="no"?>
<svg width="100px" height="100px" viewBox="0 0 100 100" version="1.1" xmlns="http://www.w3.org/2000/svg" xmlns:xlink="http://www.w3.org/1999/xlink">
    <!-- Generator: Sketch 3.6.1 (26313) - http://www.bohemiancoding.com/sketch -->
    <title>Group 27</title>
    <desc>Created with Sketch.</desc>
    <defs></defs>
    <g id="Page-1" stroke="none" stroke-width="1" fill="none" fill-rule="evenodd">
        <g id="Artboard-9" transform="translate(-574.000000, -792.000000)">
            <g id="Abs" transform="translate(574.000000, 188.000000)">
                <g id="Group-27" transform="translate(0.000000, 604.000000)">
                    <rect id="Rectangle-114-Copy-22" fill="#EA6A64" x="0" y="0" width="100" height="100" rx="8"></rect>
                    <g id="Group-8" transform="translate(10.000000, 21.000000)">
                        <path d="M63.4005764,12.5188119 L80,12.5188119 L80,28.9425743 L63.4005764,28.9425743 L63.4005764,12.5188119 Z" id="Rectangle-141" fill-opacity="0.3" fill="#000000"></path>
                        <path d="M63.4005764,28.9425743 L80,28.9425743 L80,58 L61.0951009,58 L63.4005764,28.9425743 Z" id="Rectangle-141-Copy" fill-opacity="0.5" fill="#000000"></path>
                        <path d="M65.4971063,19.9051432 C64.4993213,21.2389385 62.7252763,22.0735357 60.9668411,23.7649313 C61.3738072,23.9604842 61.7733178,24.1034036 62.1075977,24.1307176 C63.1035282,24.212095 65.0694836,23.8828483 66.4956732,24.1307176 C69.3806185,24.632116 72.195612,25.2468694 72.8971275,25.8202014 C73.5986429,26.3935335 70.4453971,27.1703127 70.4453971,27.1703127 C70.4453971,27.1703127 65.3156139,27.5967429 62.1075977,27.1703127 C61.0401748,27.028424 59.6649795,26.3447269 58.5094608,25.6616291 C54.6019033,28.0026881 47.5054035,30.7968686 47.5054035,30.7968686 C47.5054035,30.7968686 38.6556507,36.1908846 34.3014588,37.8950518 C29.3518279,39.8322651 19.593935,41.7210103 19.593935,41.7210103 C19.593935,41.7210103 11.6523419,45.8653917 7.60051496,47.2039595 C6.97261331,47.4113941 1.57858669,49.4319088 0.409130569,48.9812449 C-1.1787176,48.3693486 2.99711824,44.7490756 2.99711824,44.7490756 C2.99711824,44.7490756 13.4739654,40.1579846 13.4739654,38.6696929 C13.4739654,36.8384827 24.0683931,33.0175527 28.357348,29.884888 C32.6463029,26.7522232 31.5067303,25.2959688 35.2960955,22.7307477 C39.0854606,20.1655265 43.1541062,18.7957902 43.1541062,18.7957902 C43.1541062,18.7957902 51.6682908,14.3196509 52.9536436,12.5223836 C54.2389963,10.7251163 52.5119124,7.85573728 52.9536436,7.30847287 C53.3128665,6.86342861 54.7529494,6.3884992 54.7529494,6.3884992 C54.7529494,6.3884992 62.5300743,7.12615774 65.2449568,10.3366337 C67.3200476,12.7905259 67.2992658,14.7136269 66.6048745,17.1589549 C68.8492956,17.5455502 71.0382155,17.9401686 71.5768371,18.3803306 C72.2096607,18.8974745 68.7856992,19.8132078 68.7856992,19.8132078 C68.7856992,19.8132078 67.3053173,19.9035773 65.4971063,19.9051432 Z M71.5273775,12.5188119 C74.9970627,12.5188119 77.8097983,9.71638038 77.8097983,6.25940594 C77.8097983,2.8024315 74.9970627,0 71.5273775,0 C68.0576923,0 65.2449568,2.8024315 65.2449568,6.25940594 C65.2449568,9.71638038 68.0576923,12.5188119 71.5273775,12.5188119 Z" id="Oval-36" fill="#FFFFFF"></path>
                    </g>
                </g>
            </g>
        </g>
    </g>
</svg>