<?xml version="1.0" encoding="UTF-8" standalone="no"?>
<svg width="100px" height="100px" viewBox="0 0 100 100" version="1.1" xmlns="http://www.w3.org/2000/svg" xmlns:xlink="http://www.w3.org/1999/xlink">
    <!-- Generator: Sketch 3.6.1 (26313) - http://www.bohemiancoding.com/sketch -->
    <title>Group 6</title>
    <desc>Created with Sketch.</desc>
    <defs></defs>
    <g id="Page-1" stroke="none" stroke-width="1" fill="none" fill-rule="evenodd">
        <g id="Artboard-10" transform="translate(-470.000000, -135.000000)">
            <g id="Group" transform="translate(308.000000, 132.000000)">
                <g id="Group-6" transform="translate(162.000000, 3.000000)">
                    <rect id="Rectangle-114-Copy-9" fill="#EA6A64" x="0" y="0" width="100" height="100" rx="8"></rect>
                    <path d="M55.8878687,52.227105 C55.7814137,52.2419872 55.6768388,52.2584103 55.5742482,52.2764998 C54.5319004,52.4602938 48.9437655,53.9147225 44.8959656,54.7234082 C42.3564508,55.2307626 37.7413012,54.7398286 34.0443101,54.0887641 C31.5198718,53.6441939 29.3226304,52.9619126 28.6085322,53.1136675 C25.4826661,53.7779536 22.7506402,53.2265067 20.4760722,53.5526505 C15.5059647,54.2653 12.6730849,55.039788 12.6730849,55.039788 C11.8629279,55.2387275 10.8649025,54.8170218 10.4452775,54.1001794 L10.197108,53.6762331 C9.776881,52.9583621 10.0294294,52.0476479 10.7558679,51.651968 C10.7558679,51.651968 15.8016685,48.79574 18.4772985,48.0617569 C20.7588585,47.4358756 23.2760419,47.433804 26.0580207,46.7250711 C30.8857356,45.4951693 36.717547,41.8688125 42.0389912,40.5330194 C46.3122384,39.4603455 48.7666868,41.6146451 52.5439946,40.9099741 C56.7854547,40.1187137 60.7106589,37.6831653 63.9070294,36.6770942 C67.5733857,35.5230931 70.1388522,35.443461 70.1388522,35.443461 C70.9623283,35.372705 71.7931467,35.9743426 71.9936908,36.7838398 L74.3843136,46.4336019 C74.4369779,46.6461815 74.449069,46.8738791 74.4253885,47.1024707 C74.445528,47.5616215 74.3949961,48.5254188 73.9347071,50.2612714 C73.230883,52.9155499 72.1401418,54.9581719 72.1401418,56.2990074 L72.1401418,64.9592486 C72.1401418,65.7924161 71.5144514,66.7023997 70.7287019,66.9969729 L71.5032717,66.7065909 C70.723755,66.9988275 69.8998491,66.5908928 69.6700518,65.7962795 C69.6700518,65.7962795 67.5375966,58.8698765 67.5375966,55.4851117 C67.5375966,54.4397037 67.6368947,53.0216227 67.7636441,51.6373383 C67.372948,51.7553944 66.9810786,51.8523962 66.5948528,51.9204983 C65.8515833,52.0515567 65.0785253,52.1238739 64.2943061,52.1598645 C63.8435407,52.6498346 63.138814,53.4817858 62.5604665,54.4586838 C61.7124986,55.891003 60.8796883,57.7090697 60.7994629,58.8023105 C60.6536178,60.7897577 59.4631698,62.6410572 59.4631698,64.5656302 C59.4631698,65.5072944 60.03261,69.5061498 60.03261,69.5061498 C60.1462062,70.3311805 59.5597722,71 58.725447,71 L58.2320205,71 C57.3964981,71 56.5257026,70.3537653 56.2953147,69.555317 C56.2953147,69.555317 54.911331,65.1391822 54.911331,62.8691937 C54.911331,61.2219631 54.4970839,57.496312 54.911331,55.5425428 C55.094276,54.6796947 55.561056,53.2129039 55.8878687,52.227105 Z M82.1071152,45.9727047 C86.4662351,45.9727047 90,42.397093 90,37.9863524 C90,33.5756117 86.4662351,30 82.1071152,30 C77.7479952,30 74.2142303,33.5756117 74.2142303,37.9863524 C74.2142303,42.397093 77.7479952,45.9727047 82.1071152,45.9727047 Z" id="Rectangle-296" fill="#FFFFFF"></path>
                </g>
            </g>
        </g>
    </g>
</svg>