<?xml version="1.0" encoding="UTF-8" standalone="no"?>
<svg width="100px" height="100px" viewBox="0 0 100 100" version="1.1" xmlns="http://www.w3.org/2000/svg" xmlns:xlink="http://www.w3.org/1999/xlink">
    <!-- Generator: Sketch 3.6.1 (26313) - http://www.bohemiancoding.com/sketch -->
    <title>Group 15</title>
    <desc>Created with Sketch.</desc>
    <defs></defs>
    <g id="Page-1" stroke="none" stroke-width="1" fill="none" fill-rule="evenodd">
        <g id="Artboard-9" transform="translate(-60.000000, -515.000000)">
            <g id="Stretching" transform="translate(60.000000, 60.000000)">
                <g id="Group-15" transform="translate(0.000000, 455.000000)">
                    <rect id="Rectangle-114-Copy-6" fill="#EA6A64" x="0" y="0" width="100" height="100" rx="8"></rect>
                    <path d="M17,10 L57.701477,10 L58.9486841,66.2456625 L17,86.7624268 L17,10 Z" id="Rectangle-89" fill-opacity="0.3" fill="#000000"></path>
                    <path d="M48.7590339,24.0206186 C51.8426237,24.0206186 54.3423672,21.6512664 54.3423672,18.7285223 C54.3423672,15.8057783 51.8426237,13.4364261 48.7590339,13.4364261 C45.675444,13.4364261 43.1757005,15.8057783 43.1757005,18.7285223 C43.1757005,21.6512664 45.675444,24.0206186 48.7590339,24.0206186 Z M70.3183901,73.188906 C73.1190834,78.013028 65.5850315,65.0248947 63.0844759,61.2810099 C62.663824,60.6512009 60.167825,64.9146143 59.8702574,64.2593281 C59.6027947,63.6703371 62.0056762,81.2663701 61.3595485,81.2040256 C60.7104631,81.1413958 58.7154146,81.4954726 57.2281951,78.013028 C54.9739111,72.7344399 53.1720755,62.7141645 53.343259,61.2810096 C53.5776965,59.3182901 59.0937036,50.8690393 58.3863598,49.8913863 C56.7983354,47.6965034 57.1538042,47.7688906 55.4509041,46.2473819 C53.1413179,44.1838107 48.9567938,40.786587 48.8279639,39.7304391 C48.6115738,37.9564716 46.7408269,35.924019 45.8598475,32.5205564 C45.7190678,31.9766861 36.9117755,32.1667391 30.4725745,31.4264336 C25.8624325,30.8964123 23.0019303,29.4069748 22.93526,29.0539147 C22.6644957,27.6200514 30.0020924,27.6002002 36.2826519,27.0499425 C40.6587825,26.6665373 44.6523986,25.5396494 44.6523986,25.5396494 C44.6523986,25.5396494 49.0925447,24.8488812 51.2098152,24.6259521 C53.3098886,24.4048337 57.2281951,24.6259521 57.2281951,24.6259521 C57.2281951,24.6259521 59.3300851,31.0493215 63.084474,37.1396736 C65.6379494,41.2819096 70.3183894,44.8097057 70.3183894,47.8497923 C70.3183894,50.3283951 70.3183881,54.6878662 70.3183881,54.6878662 C70.3183881,54.6878662 72.954583,63.2399347 76.1754599,68.848501 C77.4919327,71.1408968 82.2498829,82.597319 83.1850655,85.8914795 C83.279557,86.2243237 84.5571843,89.3699647 83.5986457,89.8387048 C82.658841,90.2982839 81.2938059,89.7981322 79.2238937,87.6766257 C77.1539814,85.5551191 67.5176969,68.3647841 70.3183901,73.188906 Z" id="Oval-26" fill="#FFFFFF"></path>
                </g>
            </g>
        </g>
    </g>
</svg>