<?xml version="1.0" encoding="UTF-8" standalone="no"?>
<svg width="100px" height="100px" viewBox="0 0 100 100" version="1.1" xmlns="http://www.w3.org/2000/svg" xmlns:xlink="http://www.w3.org/1999/xlink">
    <!-- Generator: Sketch 3.6.1 (26313) - http://www.bohemiancoding.com/sketch -->
    <title>Group</title>
    <desc>Created with Sketch.</desc>
    <defs></defs>
    <g id="Page-1" stroke="none" stroke-width="1" fill="none" fill-rule="evenodd">
        <g id="Artboard-10" transform="translate(-229.000000, -63.000000)">
            <g id="Group" transform="translate(229.000000, 63.000000)">
                <rect id="Rectangle-114-Copy-6" fill="#EA6A64" x="0" y="0" width="100" height="100" rx="8"></rect>
                <path d="M40.0291649,67.9214543 C39.884441,67.2449834 39.0936891,63.520664 38.3183328,59.3097502 C38.0023252,57.5935316 37.9881978,55.8069831 37.6206131,54.0951681 C37.2693446,52.4593362 36.2832962,52.3451808 35.7390784,51.0315929 C35.5072686,50.4720694 35.4336777,48.535892 35.3960557,48.06349 C35.3028493,46.8931414 37.3283909,43.9683868 37.3283909,43.9683868 C37.3642226,43.9135923 37.4048284,43.8616296 37.4494861,43.8127394 C37.4726974,43.7715117 37.4990317,43.7309503 37.5285472,43.6912912 C37.5285472,43.6912912 37.5574738,43.6438501 37.6763987,43.4988555 C38.1760902,42.8896263 39.2526306,41.1401627 39.2526306,39.4242331 C39.2526306,36.9465558 36.8458433,33.3028135 36.1154599,29.8066915 C35.2743624,25.7806153 37.3103054,22.6808236 37.3103054,22.6808236 C37.6016203,22.1377193 38.33117,21.7589418 38.9436526,21.8352805 L43.910183,22.4542998 C44.1345471,22.4822642 44.3673618,22.5727188 44.5823681,22.7038576 L71.8831277,23.2489044 C72.499959,23.2612192 72.9999997,23.7675437 72.9999999,24.3827339 L73,24.6123755 C73.0000002,25.2262575 72.5011767,25.8192001 71.9005377,25.9321915 C71.9005377,25.9321915 58.2281211,28.5879838 52.6208176,28.5879838 C50.9761774,28.5879838 49.0523849,28.7328506 47.1929033,28.9305195 C47.5394767,30.1112765 47.8294944,31.2672579 47.9393346,32.1304043 C48.2200175,34.336068 47.723546,40.9497904 46.9471082,44.5945944 C46.763509,45.4564572 46.5830336,46.1281242 46.4170773,46.6497403 C46.4236575,46.7085792 46.4261799,46.7675204 46.4243403,46.8261246 C46.4243403,46.8261246 46.2430638,51.146078 46.4616174,54.0951683 C46.7664053,58.2078739 44.8922007,68.0327913 44.8922007,68.0327913 C44.8643491,68.1851499 44.805851,68.3302529 44.7242362,68.4621122 C44.6598247,69.1121092 44.0257759,75.5022622 43.6820532,78.6513471 C43.2995585,82.1556482 42.493156,88.8991778 42.493156,88.8991778 C42.42074,89.5071451 41.8602008,90 41.2431343,90 L40.8781963,90 C40.2602444,90 39.7116566,89.497866 39.6554609,88.8905218 C39.6554609,88.8905218 38.7715941,79.8295413 38.7715941,74.8815737 C38.7715941,73.0089865 39.8210338,68.3875992 39.8210338,68.3875992 C39.8572874,68.2207394 39.9299261,68.0626778 40.0291649,67.9214543 Z M40.5401174,21.1090401 C43.5998397,21.1090401 46.0802347,18.6221967 46.0802347,15.55452 C46.0802347,12.4868433 43.5998397,10 40.5401174,10 C37.480395,10 35,12.4868433 35,15.55452 C35,18.6221967 37.480395,21.1090401 40.5401174,21.1090401 Z" id="Oval-101" fill="#FFFFFF"></path>
            </g>
        </g>
    </g>
</svg>