<?xml version="1.0" encoding="UTF-8" standalone="no"?>
<svg width="100px" height="100px" viewBox="0 0 100 100" version="1.1" xmlns="http://www.w3.org/2000/svg" xmlns:xlink="http://www.w3.org/1999/xlink">
    <!-- Generator: Sketch 3.6.1 (26313) - http://www.bohemiancoding.com/sketch -->
    <title>Group 33</title>
    <desc>Created with Sketch.</desc>
    <defs></defs>
    <g id="Page-1" stroke="none" stroke-width="1" fill="none" fill-rule="evenodd">
        <g id="Artboard-9" transform="translate(-428.000000, -941.000000)">
            <g id="Arms" transform="translate(426.000000, 188.000000)">
                <g id="Group-33" transform="translate(2.000000, 753.000000)">
                    <rect id="Rectangle-114-Copy-20" fill="#EA6A64" x="0" y="0" width="100" height="100" rx="8"></rect>
                    <path d="M53.7816855,73.3504299 C52.8977599,72.7766583 52.5313341,72.0838341 52.2520186,70.0153669 C51.9957958,68.1179124 52.9771165,65.3633273 53.0923444,63.8000726 C53.2481607,61.6861694 55.677885,56.600796 55.677885,56.600796 C55.677885,56.600796 60.7692825,55.4593553 63.7818479,55.4593553 C66.059618,55.4593553 68.8811423,56.3530347 71.4834158,56.600796 C74.7902771,56.9156409 77.656482,56.600796 77.656482,56.600796 C77.656482,56.600796 81.6495207,63.3508007 81.3546156,66.2861909 C81.2339288,67.4874677 77.656482,70.0153669 77.656482,70.0153669 C77.656482,70.0153669 77.4187473,73.2072108 74.3757581,73.2072108 C73.2260279,73.2072108 72.0963084,72.8142951 71.4834158,73.0885549 C70.4741663,73.540178 70.9609016,75.3653984 68.2257143,75.3653984 C65.1276709,75.3653984 67.0752319,70.003538 66.0085361,70.0153669 C64.8580747,70.0281248 65.7027354,75.9127266 62.1041997,75.9127266 C58.505664,75.9127266 60.2270783,69.2124847 59.0967444,69.2124847 C57.6433778,69.2124847 58.0243759,74.9185625 56.2104081,74.0187104 C55.7212261,73.7760427 54.1080783,73.5622972 53.7816855,73.3504299 Z M46.9706105,71.015448 C46.5250097,69.9852601 48.4557554,67.0126077 48.4557554,67.0126077 C48.4557554,67.0126077 51.7794186,63.7213043 52.341906,63.8471873 C53.055127,64.0068041 51.6964072,68.4798573 51.6964072,68.4798573 C51.6964072,68.4798573 52.5833442,72.9884454 53.1744251,74.4533529 C53.7655059,75.9182604 52.2238556,76.4369149 50.3931921,75.9182605 C48.5625286,75.3996061 47.6855453,72.6683112 46.9706105,71.015448 Z M10,64.6265988 C10,62.9981236 11.6926286,58.5270088 11.6926286,58.5270088 L16.1945869,57.5883008 C16.1945869,57.5883008 16.8743071,57.489573 19.8198479,57.3663511 C20.5460084,57.3359733 21.4098774,56.7468845 22.4352197,56.8045349 C23.8501655,56.884091 25.8933695,57.5928458 27.2495616,57.7320688 C30.8625527,58.1029688 31.8118403,58.1334209 32.3059188,58.5270088 C33.6352257,59.5859479 37.6471989,62.9231762 36.4044469,63.8773647 C35.4065968,64.6435168 34.4852596,67.3463396 32.8899926,68.0106769 C32.4757562,68.1831826 32.3077659,70.544759 31.4911174,72.2625314 C30.6708518,73.9879125 29.2018075,75.0694358 28.7344099,75.2044194 C28.0191757,75.4109778 25.5397985,75.9994647 25.0813198,74.2586696 C24.506916,72.0777189 25.9688571,67.4255181 25.0813198,67.3114248 C24.0119354,67.173955 25.4397247,72.0310689 24.1008558,74.2586696 C23.6697661,74.9759138 22.9261268,75.2279948 21.7535494,75.2044194 C21.0834767,75.1909472 20.0866072,74.8354558 19.8198482,73.6253188 C19.3191718,71.3540293 19.8074153,67.4422594 18.7195685,66.7691273 C17.7450872,66.1661429 20.4582773,74.6111396 16.9453248,74.6111396 C13.4323724,74.6111396 13.4358763,66.0120844 13.4358763,66.0120844 C13.4358763,66.0120844 13.7841923,72.0447376 13.4358763,72.7952702 C13.0196664,73.692097 10.7987849,71.2694929 10.7987849,71.2694929 C10.7987849,71.2694929 10,66.7357866 10,64.6265988 Z M28.9411123,76.5963838 C29.2768917,75.2919067 31.5321584,73.9113719 31.5321584,73.3929044 C31.5321584,72.3066324 33.6899348,68.3507446 33.6899348,68.3507446 L36.8438777,64.1758581 C36.8438777,64.1758581 39.408398,68.9976574 39.408398,70.3905465 C39.408398,71.8256246 38.3529276,74.6324974 38.3529276,74.6324974 L30.2258748,79 C30.2258748,79 28.6243018,77.8271683 28.9411123,76.5963838 Z M74.0631891,53.5117351 C82.8648467,53.5117351 90,46.2337353 90,37.2558676 C90,28.2779998 82.8648467,21 74.0631891,21 C65.2615315,21 58.1263782,28.2779998 58.1263782,37.2558676 C58.1263782,46.2337353 65.2615315,53.5117351 74.0631891,53.5117351 Z" id="Rectangle-175" fill="#FFFFFF"></path>
                </g>
            </g>
        </g>
    </g>
</svg>