<?xml version="1.0" encoding="UTF-8" standalone="no"?>
<svg width="100px" height="100px" viewBox="0 0 100 100" version="1.1" xmlns="http://www.w3.org/2000/svg" xmlns:xlink="http://www.w3.org/1999/xlink">
    <!-- Generator: Sketch 3.6.1 (26313) - http://www.bohemiancoding.com/sketch -->
    <title>Group 17</title>
    <desc>Created with Sketch.</desc>
    <defs></defs>
    <g id="Page-1" stroke="none" stroke-width="1" fill="none" fill-rule="evenodd">
        <g id="Artboard-9" transform="translate(-60.000000, -60.000000)">
            <g id="Stretching" transform="translate(60.000000, 60.000000)">
                <g id="Group-17">
                    <rect id="Rectangle-114-Copy-3" fill="#EA6A64" x="0" y="0" width="100" height="100" rx="8"></rect>
                    <path d="M43.8372902,44.7981932 C43.8093437,44.6986045 43.821853,44.5775333 43.8798645,44.4476369 C43.8798645,44.4476369 44.6727431,43.221391 44.8033874,40.4906263 C44.6317423,40.7032863 44.5274552,40.8311509 44.5274552,40.8311509 C44.5274552,40.8311509 43.9200864,42.2862425 42.8140662,42.351919 C41.708046,42.4175955 40.7406557,41.6215834 40.5796903,40.8311509 C40.3274641,39.5925751 40.129848,38.1240273 40.0513573,36.3474066 C39.8933617,32.7712103 40.1383096,30.7678473 40.2694398,28.9295007 C40.4005699,27.0911542 40.8158837,25.6293162 40.8158837,25.6293162 C40.8158837,25.6293162 42.565957,29.8152763 43.1256781,31.6052859 C43.6853991,33.3952954 43.9204084,34.5951483 44.0260717,35.8956213 C44.0296004,35.9390517 44.1699451,35.782889 44.3802151,35.5248901 C44.1907356,34.5620894 43.9309705,33.5144501 43.5837563,32.3786898 C41.8925529,26.846654 41.0035683,25.4372483 41.0035683,25.4372483 C41.0035683,25.4372483 44.6247763,21.4443789 49.4374374,21.4443789 C50.0180866,21.4443789 50.5873327,21.5044781 51.1394752,21.6101744 C51.3098697,21.3637294 51.4824528,21.1042614 51.6473113,20.8370234 C51.8624698,20.4882482 52.0563197,20.105669 52.2225208,19.7405748 C51.4418557,20.2511247 50.5083806,20.5480114 49.5054525,20.5480114 C46.7633033,20.5480114 44.5403521,18.3286229 44.5403521,15.5908684 C44.5403521,12.853114 46.7633033,10.6337255 49.5054525,10.6337255 C52.1087702,10.6337255 54.2441316,12.6340732 54.4536799,15.1792481 C56.2110983,12.5886114 58.6194724,10 58.6194724,10 C58.6194724,10 59.7398698,10.2273664 60.1858481,10.6163311 C60.533379,10.9194339 61,12.0762024 61,12.0762024 C61,12.0762024 60.6848621,15.2713743 60.6848621,16.9043952 C60.6848621,18.2222762 59.9433962,20.0415724 59.4409161,21.6553477 C58.946218,23.2441303 58.4969159,24.6858232 58.2343704,25.5280726 C58.264136,25.5574229 58.279397,25.5730604 58.279397,25.5730604 C58.279397,25.5730604 56.5110051,32.3786898 56.5110051,37.5768861 C56.5110051,42.7750823 57.9300197,44.4875871 57.9300197,44.4875871 C57.9830472,44.5743802 58.0101341,44.6566572 58.0140056,44.7303452 C58.2238657,44.9475749 58.3785479,45.2147733 58.4425183,45.504099 C58.4425183,45.504099 59.5456633,50.1107389 59.670517,53.1416149 C59.7889798,56.0173518 59.3979508,62.0008623 59.670517,65.8694352 C59.9386383,69.674923 60.4188567,71.3837223 60.3818254,74.5951058 C60.3309245,79.0092625 59.6705168,82.055275 59.6705168,82.055275 C59.6705168,82.055275 59.3125967,89.7783041 58.55246,89.7783041 C58.3257957,89.7783041 56.5204587,90.2771199 56.3924864,89.7783041 C56.0164925,88.3127388 56.6308896,84.2774854 56.3924864,81.4591352 C56.192601,79.0961333 55.4747982,76.8088295 55.4747982,76.8088295 C55.4747982,76.8088295 55.4173298,72.7790267 55.0596443,70.7457905 C54.4487303,67.2730964 53.0764086,62.3026319 52.1450731,57.7022965 C51.9463424,56.720665 51.3986696,55.7874969 50.9398412,54.8750853 C50.4810128,55.7874969 49.9333401,56.720665 49.7346093,57.7022965 C48.8032738,62.3026319 48.7912536,67.2730964 48.1803396,70.7457905 C47.8226541,72.7790267 47.7651857,76.8088295 47.7651857,76.8088295 C47.7651857,76.8088295 47.047383,79.0961333 46.8474975,81.4591352 C46.6090943,84.2774854 47.2234914,88.3127388 46.8474975,89.7783041 C46.7195252,90.2771199 44.9141882,89.7783041 44.6875239,89.7783041 C43.9273872,89.7783041 43.5694671,82.055275 43.5694671,82.055275 C43.5694671,82.055275 42.9090594,79.0092625 42.8581585,74.5951058 C42.8211272,71.3837223 43.3013456,69.674923 43.569467,65.8694352 C43.8420331,62.0008623 42.0907026,56.0173518 42.2091655,53.1416149 C42.3340191,50.1107389 43.4651646,45.504099 43.4651646,45.504099 C43.5240578,45.244219 43.6567916,45.0021914 43.8372902,44.7981932 Z M53.5759415,22.3822144 C53.7840019,22.4734433 53.9872778,22.5689031 54.1853188,22.6674485 C54.7627308,22.0692435 55.2330443,21.3284911 56.2506292,19.9188968 C57.2605551,18.5199121 59.0623767,16.2545725 59.4409161,14.9518834 C59.6087122,14.3744371 55.0931583,20.4091415 55.1039871,19.9188968 C55.1072479,19.7712748 54.4590411,21.1158754 53.5759415,22.3822144 Z" id="Oval-22-Copy" fill="#FFFFFF"></path>
                </g>
            </g>
        </g>
    </g>
</svg>