<?xml version="1.0" encoding="UTF-8" standalone="no"?>
<svg width="100px" height="100px" viewBox="0 0 100 100" version="1.1" xmlns="http://www.w3.org/2000/svg" xmlns:xlink="http://www.w3.org/1999/xlink">
    <!-- Generator: Sketch 3.6.1 (26313) - http://www.bohemiancoding.com/sketch -->
    <title>Group 20</title>
    <desc>Created with Sketch.</desc>
    <defs></defs>
    <g id="Page-1" stroke="none" stroke-width="1" fill="none" fill-rule="evenodd">
        <g id="Artboard-9" transform="translate(-358.000000, -516.000000)">
            <g id="Arms" transform="translate(358.000000, 63.000000)">
                <g id="Group-20" transform="translate(50.000000, 503.000000) scale(-1, 1) translate(-50.000000, -503.000000) translate(0.000000, 453.000000)">
                    <rect id="Rectangle-114-Copy-18" fill="#EA6A64" x="0" y="0" width="100" height="100" rx="8"></rect>
                    <path d="M34.910007,28.213892 C39.9726559,28.213892 44.0767436,24.1365734 44.0767436,19.106946 C44.0767436,14.0773186 39.9726559,10 34.910007,10 C29.8473582,10 25.7432704,14.0773186 25.7432704,19.106946 C25.7432704,24.1365734 29.8473582,28.213892 34.910007,28.213892 Z M24.7716329,69.7711646 C25.1084069,65.9800357 24.3077152,61.751065 24.7716329,56.6391997 C24.9760348,54.3869144 22.7130285,52.0702873 23.0306096,49.9137567 C23.4971692,46.7455892 25.6322856,41.9273753 27.6928512,38.9746417 C29.5443579,36.3214835 31.0628579,34.6881803 31.0628579,34.6881803 C31.0628579,34.6881803 35.1099805,30.6976351 37.2596678,31.2769958 C38.305921,31.5589707 41.959432,31.7907905 44.4283282,32.8403251 C47.4442381,34.1223967 49.2441544,36.2308738 49.2441544,36.2308738 C49.2441544,36.2308738 53.2750686,36.5116058 53.2750686,40.3286723 C53.2750685,41.9731664 58.8454972,52.1574377 64.820838,61.3329395 C69.6013394,68.6736922 74.7270644,74.7565234 76.8298679,79.8358784 C78.0427788,82.765684 72.3817447,83.2277119 72.1210484,83.9918355 C71.8998122,84.6402983 67.1026831,75.7974793 61.3589325,67.6431618 C59.4699798,64.9614436 57.3117298,62.8776012 55.6159475,60.609753 C52.5972657,56.5727301 49.3217345,53.2352334 49.2441544,53.8289585 C48.7174728,57.8596858 45.0658815,64.9658954 45.2113491,70.449024 C45.3410437,75.3376199 49.2441538,78.7092886 49.2441538,81.0121284 L49.2441538,90 L23.0306096,90 C23.0306096,90 24.1597544,76.6591961 24.7716329,69.7711646 Z" id="Oval-43" fill="#FFFFFF"></path>
                </g>
            </g>
        </g>
    </g>
</svg>