<?xml version="1.0" encoding="UTF-8" standalone="no"?>
<svg width="100px" height="100px" viewBox="0 0 100 100" version="1.1" xmlns="http://www.w3.org/2000/svg" xmlns:xlink="http://www.w3.org/1999/xlink">
    <!-- Generator: Sketch 3.6.1 (26313) - http://www.bohemiancoding.com/sketch -->
    <title>Group 7</title>
    <desc>Created with Sketch.</desc>
    <defs></defs>
    <g id="Page-1" stroke="none" stroke-width="1" fill="none" fill-rule="evenodd">
        <g id="Artboard-10" transform="translate(-470.000000, -435.000000)">
            <g id="Group" transform="translate(308.000000, 132.000000)">
                <g id="Group-7" transform="translate(162.000000, 303.000000)">
                    <rect id="Rectangle-114-Copy-11" fill="#EA6A64" x="0" y="0" width="100" height="100" rx="8"></rect>
                    <path d="M56.6881565,56.6741291 C57.1796177,56.9057379 57.7450613,57.0893673 58.4583602,57.1896148 C61.5573199,57.6251449 61.1665636,56.6027967 65.0116791,57.1431925 C66.3886717,57.3367162 70.0524086,55.1228759 72.3341349,54.7291319 C74.0722965,54.4291876 75.4220307,56.0106937 76.2729122,56.1296578 C77.5228731,58.3723922 79.9224657,59.8899106 82.6773882,59.8899106 C86.721555,59.8899106 90,56.6197178 90,52.5857307 C90,48.5517435 86.721555,45.2815507 82.6773882,45.2815507 C80.5878214,45.2815507 78.7026756,46.1545778 77.3685489,47.5549063 C77.3963365,47.0288368 77.3728638,46.1081408 77.3728638,46.1081408 C77.3647708,45.2567972 76.7420203,44.211214 75.9869566,43.7910515 C75.9869566,43.7910515 74.9635252,43.2051321 72.9583318,42.1581855 C71.9435855,41.6283688 70.4746715,39.4314007 69.1408819,39.4166588 C67.3391109,39.3967446 65.6229618,38.3336922 64.3926283,39.714864 C63.1622948,41.0960357 64.766689,42.6327602 63.5412591,43.5086894 C62.3457635,44.3632218 61.1572904,43.2350372 60.1111316,43.0984078 C58.4616172,42.8829794 56.1588313,43.6092098 54.1659612,42.1910772 C52.173091,40.7729445 49.7690237,39.9316956 47.131637,39.748817 C43.2660049,39.4807707 37.1110681,41.6100848 31.8795064,41.9346675 C29.4595543,42.0848089 27.1331837,40.6794404 25.5091597,40.5724801 C22.5501578,40.3775966 22.3932712,40.7894544 19.9523722,40.6728397 C17.0898824,40.5360833 11.2247393,41.7033814 11.2247393,41.7033814 C10.3852667,41.8564022 9.85019757,42.6672206 10.0379919,43.506523 L10.1383448,43.9550265 C10.3279043,44.8022184 11.1658503,45.5713361 12.0138923,45.6905207 C12.0138923,45.6905207 16.9558671,46.38507 19.7943043,46.7839863 C22.6327416,47.1829027 26.9798981,49.1927765 30.2627799,49.5396016 C31.0127481,49.6188331 32.5304246,49.8593499 34.8704679,51.0892619 C38.2974161,52.8904442 40.554792,54.1887559 43.2116157,54.5018192 C44.7479817,54.6828548 49.4403609,53.6774279 51.4759646,54.0646371 C51.6270419,54.0933748 51.7722855,54.124486 51.9121525,54.1577518 C52.0537713,54.7702567 52.5791411,56.9834451 52.9731036,57.8578918 C53.2390996,58.4483016 54.3073655,60.1291753 54.3073655,60.1291753 C54.7642495,60.8660783 55.7847026,61.1981081 56.5850572,60.8752024 L56.5186883,60.9019792 C57.3252404,60.5765731 57.7364384,59.6584776 57.450967,58.8457707 L56.6881565,56.6741291 Z" id="Oval-103-Copy-2" fill="#FFFFFF"></path>
                </g>
            </g>
        </g>
    </g>
</svg>