<?xml version="1.0" encoding="UTF-8" standalone="no"?>
<svg width="100px" height="100px" viewBox="0 0 100 100" version="1.1" xmlns="http://www.w3.org/2000/svg" xmlns:xlink="http://www.w3.org/1999/xlink">
    <!-- Generator: Sketch 3.6.1 (26313) - http://www.bohemiancoding.com/sketch -->
    <title>Group 19</title>
    <desc>Created with Sketch.</desc>
    <defs></defs>
    <g id="Page-1" stroke="none" stroke-width="1" fill="none" fill-rule="evenodd">
        <g id="Artboard-9" transform="translate(-209.000000, -63.000000)">
            <g id="legs" transform="translate(209.000000, 63.000000)">
                <g id="Group-19" transform="translate(50.000000, 50.000000) scale(-1, 1) translate(-50.000000, -50.000000) ">
                    <rect id="Rectangle-114-Copy-8" fill="#EA6A64" x="0" y="0" width="100" height="100" rx="8"></rect>
                    <path d="M28.2667881,35.6172856 C27.9360823,35.6505499 27.6105167,35.668859 27.2903014,35.6644975 C21.0021392,35.5788511 16.7554991,35.0069907 15.9868496,34.4602826 C12.743286,32.153272 10.3601262,32.821854 10.1565438,33.216891 C8.91403796,35.6278841 15.2353738,36.6602349 23.1753984,39.1233656 C26.1713256,40.0527532 30.9032047,38.8857161 33.987154,40.1932096 C35.2065006,40.7101726 35.672262,43.9913521 36.8625,44.4971152 C40.8921928,46.2094367 47.4765859,46.520382 49.4606134,48.1994626 C50.799703,49.3327328 48.026995,55.931751 48.026995,56.5634282 C48.026995,59.4224143 48.7436121,66.6265498 48.0269928,71.0153656 C47.6466098,73.3449578 43.7454297,73.6089273 44.7344704,74.6084556 C45.723511,75.6079839 50.4102197,74.5312354 51.5823822,74.6084556 C52.7545447,74.6856758 51.5823819,70.0854889 51.5823819,70.0854889 C51.5823819,70.0854889 51.9509718,66.5038443 52.3553093,61.8774976 C52.4813449,60.4354243 52.0835282,58.6381905 52.3553093,57.1415546 C52.8691742,54.3118196 54.377381,52.54369 55.5008273,50.4413013 C56.2393381,49.059271 57.2567694,47.0900197 58.1218486,46.4054057 C59.5921426,45.2418316 60.6142318,46.658039 65.8039327,45.6855865 C70.9936335,44.7131341 72.0845655,43.1402201 75.2320174,42.9154157 C80.1826473,42.5618207 82.1855155,42.0391307 85.2940691,41.8375176 C86.5720906,41.7546283 90.0920688,42.2372438 91.77491,41.8375177 C92.7271591,41.6113295 92.5485437,40.7991929 92.385643,40.1932096 C92.0790086,39.0525433 89.4337174,38.4001548 87.4095154,38.4631557 C86.4579376,38.4927725 85.7643484,39.1233658 85.2940691,39.1233658 C83.8234086,39.1233658 70.4002555,39.5876853 63.4044349,39.1233658 C60.5612826,38.934663 58.4978614,37.7402626 55.5008273,37.5218955 C53.2052913,37.3546402 50.309619,37.7270886 48.0269938,37.5218955 C44.2288748,37.1804692 40.7769245,34.7253905 37.2635233,34.4602825 C36.1654337,34.3774248 35.122957,35.0225101 34.0758182,34.9857022 C34.5003164,34.3709083 34.7486945,33.6267113 34.7486945,32.8248886 C34.7486945,30.7124609 33.0247617,29 30.8981829,29 C28.771604,29 27.0476712,30.7124609 27.0476712,32.8248886 C27.0476712,33.9265092 27.516507,34.9193561 28.2667881,35.6172856 Z" id="Rectangle-88" fill="#FFFFFF"></path>
                </g>
            </g>
        </g>
    </g>
</svg>