<?xml version="1.0" encoding="UTF-8" standalone="no"?>
<svg width="100px" height="100px" viewBox="0 0 100 100" version="1.1" xmlns="http://www.w3.org/2000/svg" xmlns:xlink="http://www.w3.org/1999/xlink">
    <!-- Generator: Sketch 3.6.1 (26313) - http://www.bohemiancoding.com/sketch -->
    <title>Group 17</title>
    <desc>Created with Sketch.</desc>
    <defs></defs>
    <g id="Page-1" stroke="none" stroke-width="1" fill="none" fill-rule="evenodd">
        <g id="Artboard-9" transform="translate(-276.000000, -636.000000)">
            <g id="legs" transform="translate(276.000000, 188.000000)">
                <g id="Group-17" transform="translate(0.000000, 448.000000)">
                    <rect id="Rectangle-114-Copy-11" fill="#EA6A64" x="0" y="0" width="100" height="100" rx="8"></rect>
                    <path d="M50.204141,24.5592289 C50.7392434,24.2770901 51.2871657,24.0758714 51.7573156,24.079815 C52.5553202,24.0865086 54.7660373,24.5032557 56.6673667,25.1892662 C59.3195838,26.1462013 61.3324326,27.4919142 61.3324326,27.4919142 C61.5338728,27.6198482 61.6003412,27.8864041 61.4728818,28.1056604 C61.4728818,28.1056604 59.939388,30.6182211 59.1033036,33.2128036 C58.2021652,36.0092652 58.2178477,38.2944949 58.2178478,39.335419 C58.2178479,42.985655 57.4003358,47.5100385 58.3346513,50.6780821 C58.6303798,51.6808276 58.983789,52.5748881 59.3486793,53.3531343 C61.2317427,50.7391237 64.2193403,46.1781307 64.2193403,43.5526751 C64.2193403,42.1759247 63.1745619,41.1099695 62.341093,39.8746906 C60.8943538,37.7304879 59.3700588,35.9467304 59.3700588,35.9467304 C59.2166538,35.7632779 59.1340902,35.4237585 59.1859278,35.1931712 C59.1859278,35.1931712 59.6446718,33.0312201 60.1134269,31.8957191 C60.6572634,30.5783425 61.789758,28.3892608 61.789758,28.3892608 C61.8991007,28.1755829 62.102792,28.1614898 62.2403739,28.3525635 C62.2403739,28.3525635 64.9148093,32.0338395 67.3265045,35.769122 C69.5937745,39.2807157 71.7406159,42.8395412 70.7763562,45.1573093 C69.6736979,47.8077429 63.8245223,53.4052619 60.9293236,56.0733465 C61.3838206,56.7088436 61.6971724,57.0398794 61.6971724,57.0398794 C61.6971724,57.0398794 60.1349567,63.6616036 60.5736889,69.2875211 C60.8429691,72.7405353 58.7763456,75.6453547 60.5736889,77.5407255 C61.7346332,78.764988 63.5022359,76.1677631 65.5479852,75.828261 C69.1817193,75.2252252 73.5767372,75.8708174 76.1794031,75.828261 C79.9273648,75.7669779 76.8324172,79.7156439 76.1794031,79.7156439 C75.6482941,79.7156439 71.2165538,81.1881876 67.0835451,82.8769922 C63.5356817,84.3266983 59.7783157,86.0558387 56.667366,83.9504724 C53.5302438,81.8273936 53.1597867,76.8259469 51.7573155,73.1022224 C51.306861,71.9062132 50.5601431,65.7972087 47.9041214,65.0167525 C43.0498013,63.5903392 35.3651075,65.2679437 31.1711494,65.5946353 C30.9118742,65.6148318 31.1492339,70.2890089 30.2999569,75.828261 C29.2931638,82.3948826 27.0261218,90 24.3712945,90 C22.4324256,90 23.1269778,85.332556 23.3295903,79.7156439 C23.4571394,76.1796722 22.5279331,71.9329908 23.3295903,69.2875211 C24.4690411,65.5273323 22.9234999,67.8477622 24.3712945,60.6996555 C24.7921616,58.6217346 36.5066852,54.918371 41.4696363,53.4373514 C41.4158739,52.3881493 41.2931012,50.3723091 41.0883735,49.0148852 C40.8462816,47.4097221 40.0870986,46.2019243 39.6730215,44.073115 C39.2921123,42.1148254 39.6730215,38.9771271 39.6730215,38.9771271 C39.6730215,38.9771271 40.1883128,36.4464958 41.0883735,33.5254596 C41.5829493,31.9203744 42.1673612,30.0708663 42.9079467,28.7547412 C43.4193182,27.8459618 44.8861443,26.6174785 45.783812,26.1452499 C46.7190203,25.6532727 49.0356224,24.9055951 50.204141,24.5592289 Z M43.6436711,36.118457 C43.6146156,36.5787566 43.6172681,37.0382759 43.6578738,37.4927661 C43.9757889,41.0511182 45.2967808,44.0043115 45.2967808,45.9854886 C45.2967809,49.8819242 43.6578738,52.799488 43.6578738,52.799488 C43.6578738,52.799488 43.6578726,52.7994884 43.6578702,52.799489 L43.6578737,46.9617197 C43.6578737,46.9617197 43.930458,45.1531122 43.6578737,41.9987725 C43.4675663,39.7965393 43.366494,37.2755297 43.6436711,36.118457 Z M52.787257,23.3188248 C56.4433183,23.3188248 59.4071416,20.3373043 59.4071416,16.6594124 C59.4071416,12.9815205 56.4433183,10 52.787257,10 C49.1311957,10 46.1673724,12.9815205 46.1673724,16.6594124 C46.1673724,20.3373043 49.1311957,23.3188248 52.787257,23.3188248 Z" id="Oval-30" fill="#FFFFFF"></path>
                </g>
            </g>
        </g>
    </g>
</svg>