<?xml version="1.0" encoding="UTF-8" standalone="no"?>
<svg width="100px" height="100px" viewBox="0 0 100 100" version="1.1" xmlns="http://www.w3.org/2000/svg" xmlns:xlink="http://www.w3.org/1999/xlink">
    <!-- Generator: Sketch 3.6.1 (26313) - http://www.bohemiancoding.com/sketch -->
    <title>Group 30</title>
    <desc>Created with Sketch.</desc>
    <defs></defs>
    <g id="Page-1" stroke="none" stroke-width="1" fill="none" fill-rule="evenodd">
        <g id="Artboard-9" transform="translate(-426.000000, -490.000000)">
            <g id="Arms" transform="translate(426.000000, 188.000000)">
                <g id="Group-30" transform="translate(0.000000, 302.000000)">
                    <rect id="Rectangle-114-Copy-17" fill="#EA6A64" x="0" y="0" width="100" height="100" rx="8"></rect>
                    <g id="Group-11-Copy" transform="translate(10.000000, 12.000000)">
                        <path d="M7.4079456,46.9735406 C7.66329443,46.7633537 8.13856086,46.5929635 8.47033834,46.5929635 L27.3197886,46.5929635 C27.6511831,46.5929635 27.8488405,46.8482075 27.7604678,47.165947 L26.2100346,52.7404498 C26.1220206,53.0568998 25.7899269,53.3134332 25.4509234,53.3134332 L0.305576865,53.3134332 C-0.0256546273,53.3134332 -0.0923514164,53.1473083 0.168179157,52.9328561 L7.4079456,46.9735406 Z M72.5575063,46.9735406 C72.3021575,46.7633537 71.8268911,46.5929635 71.4951136,46.5929635 L52.6456633,46.5929635 C52.3142689,46.5929635 52.1166114,46.8482075 52.2049841,47.165947 L53.7554173,52.7404498 C53.8434313,53.0568998 54.175525,53.3134332 54.5145285,53.3134332 L79.6598751,53.3134332 C79.9911065,53.3134332 80.0578033,53.1473083 79.7972728,52.9328561 L72.5575063,46.9735406 Z" id="Rectangle-167" fill-opacity="0.4" fill="#000000"></path>
                        <path d="M40.6557377,10.9850746 C43.6846615,10.9850746 46.1400894,8.52598191 46.1400894,5.49253731 C46.1400894,2.45909272 43.6846615,0 40.6557377,0 C37.6268139,0 35.171386,2.45909272 35.171386,5.49253731 C35.171386,8.52598191 37.6268139,10.9850746 40.6557377,10.9850746 Z M32.1656911,29.2323982 C32.1656911,24.2242671 31.5077722,13.3731343 31.5077722,13.3731343 C31.5077722,13.3731343 36.3524852,12.2161494 39.0592791,12.2161494 C42.1746411,12.2161494 48.4053651,13.3731343 48.4053651,13.3731343 C48.4053651,13.3731343 47.7143908,23.3290913 47.7143908,29.2323982 C47.7143908,30.8514793 47.7143914,37.5133924 47.7143914,37.5133924 C47.7143914,37.5133924 49.9837918,43.441524 49.413234,45.9125259 C49.0285654,47.5784696 48.0445861,51.2321029 47.7143914,53.4856843 C46.1416773,64.2194711 44.2201349,74.6391813 42.92338,75.5531728 C42.6001337,75.7810064 41.0427112,77.088926 41.0019405,73.7445353 C40.976681,71.672512 41.8800476,65.3419534 41.7531432,62.8042113 C41.5617897,58.9776622 42.1539431,55.8306131 41.7531432,53.4856843 C41.1224463,49.7957142 39.433928,48.0039037 39.0592788,48.0039037 C38.572776,48.0039037 37.5536953,48.4515431 36.7740844,53.4856843 C35.8671835,59.3417678 36.6730312,69.8440795 36.0830973,74.4088747 C35.8071739,76.5439169 34.1987225,75.8003944 33.8383745,75.5531728 C32.5383541,74.6612761 32.413287,63.5682329 31.5077723,53.4856843 C31.3607965,51.8491676 29.9977334,49.4116696 29.8232433,45.9125259 C29.6487532,42.4133822 30.9026646,37.5133924 30.9026646,37.5133924 C30.9026646,37.5133924 32.1656911,31.7466552 32.1656911,29.2323982 Z M48.9750142,28.2942446 C48.8056318,26.373975 48.6074976,24.3233313 48.5662998,22.7153596 C48.4942774,19.9042931 48.5662998,13.514519 48.5662998,13.514519 C48.5662998,13.514519 51.4965108,15.1371172 52.6974665,16.6177455 C53.2002835,17.237656 52.1514441,19.6385551 52.6974665,26.1238818 C52.8640512,28.1024759 53.2774308,32.1324368 53.7432238,34.6506571 C54.0505722,36.3122772 54.1143076,36.4263329 54.3124103,37.8324471 C55.1804203,43.9935002 56.1378759,47.5909702 56.1378759,47.5909702 C56.1378759,47.5909702 54.3488557,49.3875826 53.7432238,48.2145746 C53.0283117,46.829909 52.9727237,44.209518 52.1390712,41.5948382 C51.3594354,39.1495772 51.0389279,39.833799 50.2768732,37.4408547 C49.7694399,35.8474523 49.3125753,32.1211384 48.9750142,28.2942446 Z M30.8290316,28.2722629 C30.998414,26.3519933 31.1965482,24.3013496 31.237746,22.6933779 C31.3097683,19.8823114 31.237746,13.4925373 31.237746,13.4925373 C31.237746,13.4925373 28.307535,15.1151355 27.1065793,16.5957638 C26.6037623,17.2156744 27.6526016,19.6165734 27.1065793,26.1019001 C26.9399945,28.0804942 26.5266149,32.1104551 26.0608219,34.6286754 C25.7534735,36.2902955 25.6897381,36.4043512 25.4916355,37.8104655 C24.6236255,43.9715185 23.6661699,47.5689885 23.6661699,47.5689885 C23.6661699,47.5689885 25.45519,49.365601 26.0608219,48.1925929 C26.775734,46.8079274 26.831322,44.1875363 27.6649746,41.5728565 C28.4446104,39.1275955 28.7651179,39.8118173 29.5271725,37.418873 C30.0346058,35.8254706 30.4914704,32.0991568 30.8290316,28.2722629 Z" id="Oval-42" fill="#FFFFFF"></path>
                    </g>
                </g>
            </g>
        </g>
    </g>
</svg>