<?xml version="1.0" encoding="UTF-8" standalone="no"?>
<svg width="100px" height="100px" viewBox="0 0 100 100" version="1.1" xmlns="http://www.w3.org/2000/svg" xmlns:xlink="http://www.w3.org/1999/xlink">
    <!-- Generator: Sketch 3.6.1 (26313) - http://www.bohemiancoding.com/sketch -->
    <title>Group 29</title>
    <desc>Created with Sketch.</desc>
    <defs></defs>
    <g id="Page-1" stroke="none" stroke-width="1" fill="none" fill-rule="evenodd">
        <g id="Artboard-9" transform="translate(-426.000000, -339.000000)">
            <g id="Arms" transform="translate(426.000000, 188.000000)">
                <g id="Group-29" transform="translate(0.000000, 151.000000)">
                    <rect id="Rectangle-114-Copy-13" fill="#EA6A64" x="0" y="0" width="100" height="100" rx="8"></rect>
                    <g id="Group-11" transform="translate(10.000000, 13.000000)">
                        <path d="M7.23541703,47.3386675 C7.48481887,47.1328629 7.9490165,46.9660253 8.273067,46.9660253 L26.6835199,46.9660253 C27.0071963,46.9660253 27.2002503,47.2159475 27.1139358,47.5270623 L25.5996117,52.9853391 C25.5136475,53.2951912 25.1892882,53.5463761 24.8581799,53.5463761 L0.298460082,53.5463761 C-0.0250571396,53.5463761 -0.0902005828,53.3837148 0.164262321,53.1737338 L7.23541703,47.3386675 Z M72.7308395,47.3386675 C72.4814377,47.1328629 72.01724,46.9660253 71.6931895,46.9660253 L53.2827367,46.9660253 C52.9590603,46.9660253 52.7660062,47.2159475 52.8523207,47.5270623 L54.3666448,52.9853391 C54.4526091,53.2951912 54.7769684,53.5463761 55.1080766,53.5463761 L79.6677964,53.5463761 C79.9913137,53.5463761 80.0564571,53.3837148 79.8019942,53.1737338 L72.7308395,47.3386675 Z" id="Rectangle-167" fill-opacity="0.4" fill="#000000"></path>
                        <path d="M41.426492,11.7498051 C44.6582019,11.7498051 47.2780204,9.11952167 47.2780204,5.87490257 C47.2780204,2.63028347 44.6582019,0 41.426492,0 C38.1947821,0 35.5749636,2.63028347 35.5749636,5.87490257 C35.5749636,9.11952167 38.1947821,11.7498051 41.426492,11.7498051 Z M30.2298944,41.622747 C30.3075881,38.2797482 32.7219796,33.8843462 32.7219796,31.7572388 C32.7219796,28.3817835 32.0077161,23.1129377 32.0077161,20.3133374 C32.0077161,18.2401798 32.0971008,16.5119499 32.2581133,15.0986792 C32.4512878,13.2045543 33.1756238,11.9913653 33.1756238,11.9913653 C33.2466462,11.8579553 33.4333969,11.7764541 33.5878668,11.8077667 C33.5878668,11.8077667 38.4393032,12.8278722 41.1582838,12.8278722 C43.8541504,12.8278722 47.532722,11.8205401 47.532722,11.8205401 C47.681461,11.7814743 47.900917,11.8317403 48.0217715,11.9389433 C48.0217715,11.9389433 49.4289376,13.0108331 50.0347145,15.0986792 C50.5351535,16.9883013 50.0347145,19.6152324 50.0347145,20.3133374 C50.0347145,24.7422596 48.9665211,27.9041716 48.9665211,31.7572388 C48.9665211,33.8777752 51.2988547,40.0121818 51.2988547,41.622747 C51.2988547,44.1088261 50.6365195,53.8887611 48.84132,63.0730372 C47.9862141,67.447776 47.026615,71.7633407 45.9931652,73.2919885 C44.6826818,75.230416 43.043377,75.5184682 41.7730684,74.0392101 C40.5027597,72.5599519 41.6741864,55.0330479 40.714982,55.0330479 C39.6297591,55.0330479 40.7347488,71.3591755 39.1316496,73.2919885 C38.1322988,74.4968784 35.7055626,75.80317 34.5870798,73.2919885 C33.388823,70.6017007 32.3670165,64.0355575 32.3670165,64.0355575 C32.3670165,64.0355575 30.0579595,47.3822216 30.2298944,41.622747 Z M52.0615331,34.8037692 C52.0615331,28.7403431 50.7382089,21.9235741 50.5840425,19.8512249 C50.4298761,17.7788757 50.8105823,16.9094416 50.31764,14.8922827 C49.9765386,13.4964688 48.1133578,11.9753951 48.307382,11.6962797 C48.8862414,10.8635562 53.472599,13.2552196 54.5200087,15.4132733 C55.3804877,17.1861804 54.7080705,24.9853274 54.7912193,31.1600409 C54.8092826,32.5014372 55.798804,33.6842565 55.798804,34.8037684 C55.798804,39.8715286 60.9070384,49.9284692 60.9070384,49.9284692 C60.9070384,49.9284692 60.9070383,52.9203923 59.4990204,51.3363012 C58.0910026,49.7522102 52.0615331,40.0809511 52.0615331,34.8037692 Z M29.5733074,34.8037692 C29.5733074,28.7403431 31.3307076,21.4939925 31.484874,19.4216433 C31.6390404,17.3492942 31.3378313,17.0375385 31.8307736,15.0203796 C32.171875,13.6245657 33.1384676,11.9641392 32.9444433,11.6850237 C32.365584,10.8523002 28.1622414,13.2552196 27.1148317,15.4132733 C26.2543527,17.1861804 26.9267699,24.9853274 26.8436211,31.1600409 C26.8255578,32.5014372 25.8360364,33.6842565 25.8360364,34.8037684 C25.8360364,39.8715286 20.727802,49.9284692 20.727802,49.9284692 C20.727802,49.9284692 20.7278022,52.1325389 22.13582,51.3363012 C23.5438379,50.5400636 29.5733074,40.0809511 29.5733074,34.8037692 Z" id="Oval-41" fill="#FFFFFF"></path>
                    </g>
                </g>
            </g>
        </g>
    </g>
</svg>