<?xml version="1.0" encoding="UTF-8" standalone="no"?>
<svg width="100px" height="100px" viewBox="0 0 100 100" version="1.1" xmlns="http://www.w3.org/2000/svg" xmlns:xlink="http://www.w3.org/1999/xlink">
    <!-- Generator: Sketch 3.6.1 (26313) - http://www.bohemiancoding.com/sketch -->
    <title>Group 2</title>
    <desc>Created with Sketch.</desc>
    <defs></defs>
    <g id="Page-1" stroke="none" stroke-width="1" fill="none" fill-rule="evenodd">
        <g id="Artboard-10" transform="translate(-146.000000, -136.000000)">
            <g id="растяжка" transform="translate(146.000000, 136.000000)">
                <g id="Group-2">
                    <rect id="Rectangle-114-Copy-3" fill="#EA6A64" x="0" y="0" width="100" height="100" rx="8"></rect>
                    <path d="M52.6794391,22.216394 L54.9306079,22.216394 C56.5801252,22.216394 58.6919257,23.2969483 59.6155065,24.6467924 C59.6155065,24.6467924 61.4991337,27.049182 62.4245065,29.678357 C63.1089578,31.6230242 62.424506,33.8877613 62.424506,35.5166227 C62.424506,39.3692359 61.1073467,47.0828386 61.1073467,47.0828386 C60.9998549,47.7574492 60.6683439,48.3499097 60.1990797,48.7949665 L69.2118103,61.0721554 C69.5425221,61.5226527 69.7363752,62.0475539 69.7996681,62.5871436 C69.9364293,62.8300208 70.0091603,63.1261132 69.9990745,63.4600739 L69.2630012,87.8328547 C69.2301735,88.9198428 68.3136986,89.8010211 67.2135364,89.8010216 L67.7381418,89.8010214 C66.6390814,89.8010219 65.5779251,88.9356659 65.3723891,87.8647477 C65.3723891,87.8647477 63.4336023,78.2781438 63.4336023,74.3329382 C63.4336023,72.0794885 63.7370101,68.5128494 63.9349349,66.4259279 C63.8087442,66.3277464 63.688958,66.2182543 63.5770489,66.0975212 L55.2257311,57.087708 C54.2490383,58.7770801 53.1162149,60.6883408 52.3024302,61.9152592 C50.3600044,64.8437953 46.1824018,70.2001529 46.1824018,70.2001529 C45.6698235,70.8651186 44.7032278,71.4884883 43.8846714,71.636288 L34.2935075,88.2890142 C33.6629943,89.3741749 32.2230142,89.8252036 31.0778688,89.2967136 L32.6017675,90 C31.4563324,89.4713763 30.7679623,88.0560157 31.0718548,86.8419525 C31.0718548,86.8419525 33.3770317,77.0403207 35.3854132,73.2940379 C36.6471095,70.940565 39.7312952,67.8468608 39.7312952,67.8468608 C39.9706687,67.5934134 40.2606059,67.4000866 40.5762047,67.2690097 C40.6090777,67.1895137 40.6455816,67.1109005 40.685779,67.0333841 C40.685779,67.0333841 44.4089025,59.9875722 46.0049518,56.1615299 C46.6072552,54.7176909 45.8035299,51.3332048 46.1187894,49.2730856 C46.3624273,47.6809909 46.9084333,46.9072565 46.9084333,46.9072565 C47.1531175,46.3927341 48.1273505,45.7085492 48.8917793,44.6691307 C49.5485249,43.7761324 50.0075312,42.5216933 50.2082574,42.0265955 L44.8008579,33.8751023 C44.7043496,33.729619 44.6345257,33.5760412 44.5901581,33.4194907 C44.0075499,32.9254764 43.9116173,32.1074649 44.4088103,31.4608538 L49.9092032,24.307464 C50.2310746,23.0970526 51.3314378,22.216394 52.6794391,22.216394 Z M50.1543053,31.1090022 C50.2049808,31.7371823 50.2622774,32.3749036 50.3267901,33.0000059 C50.4906527,34.5877668 51.5569961,36.2014441 51.4966325,37.1708925 C51.4913164,37.2562703 51.4845083,37.3423682 51.4763002,37.4290705 L48.9469208,32.3039506 L50.1543053,31.1090022 L50.1543053,31.1090022 L50.1543053,31.1090022 L50.1543053,31.1090022 Z M56.9595153,21.6253339 C60.2031722,21.6253339 62.8326756,19.0229143 62.8326756,15.8126669 C62.8326756,12.6024196 60.2031722,10 56.9595153,10 C53.7158585,10 51.0863551,12.6024196 51.0863551,15.8126669 C51.0863551,19.0229143 53.7158585,21.6253339 56.9595153,21.6253339 L56.9595153,21.6253339 L56.9595153,21.6253339 L56.9595153,21.6253339 Z" id="Oval-102" fill="#FFFFFF"></path>
                </g>
            </g>
        </g>
    </g>
</svg>