<?xml version="1.0" encoding="UTF-8" standalone="no"?>
<svg width="100px" height="100px" viewBox="0 0 100 100" version="1.1" xmlns="http://www.w3.org/2000/svg" xmlns:xlink="http://www.w3.org/1999/xlink">
    <!-- Generator: Sketch 3.6.1 (26313) - http://www.bohemiancoding.com/sketch -->
    <title>Group 16</title>
    <desc>Created with Sketch.</desc>
    <defs></defs>
    <g id="Page-1" stroke="none" stroke-width="1" fill="none" fill-rule="evenodd">
        <g id="Artboard-9" transform="translate(-127.000000, -485.000000)">
            <g id="Stretching" transform="translate(127.000000, 185.000000)">
                <g id="Group-16" transform="translate(0.000000, 300.000000)">
                    <rect id="Rectangle-114-Copy-5" fill="#EA6A64" x="0" y="0" width="100" height="100" rx="8"></rect>
                    <path d="M41.0690581,62.2601041 C42.0284023,63.5707834 42.9872129,64.865458 43.7781991,66.1629839 C47.2430367,71.846669 59.3878017,72.6376948 62.6593504,76.4828924 C63.3829685,77.3333932 66.5884298,77.6658988 68.2847748,78.1371382 C71.7777593,79.1074786 74.612393,79.6818011 76.4245626,79.6818016 C79.1168005,79.6818024 80.4548322,80.2853879 80.8627672,79.6818024 C81.3522451,78.9575652 80.4769005,77.1511534 79.1168014,76.3322705 C77.7567023,75.5133876 65.4146188,70.8837403 62.2727288,68.9322212 C61.7642174,68.61637 59.0468277,67.9621328 57.4231403,66.7089324 C55.2655878,65.0436823 52.5598266,62.4179221 50.4654367,59.0687972 C49.8584841,58.0982234 51.0563665,56.5358411 50.4654367,55.4561672 C49.8703251,54.3688531 48.064869,52.8624744 47.5686189,51.6909845 C45.4192132,46.6169157 46.9647812,38.8407694 45.3100299,35.3864939 C43.9336058,32.5132232 40.794696,30.9622735 40.794696,30.9622735 C40.794696,30.9622735 37.5512261,31.6226573 37.5512261,33.0591012 C37.5512261,34.4955451 35.0745126,36.2866401 34.7808508,40.9590442 C34.5611665,44.4544034 35.3412198,48.7551343 36.4081801,53.1438801 C34.596703,53.7009264 31.9104385,54.5280742 29.6684427,55.2229095 C26.22402,56.2903989 22.6385829,57.4426321 21.4631597,59.4308784 C20.1822479,61.5975602 20.3019655,65.4368714 20.1624752,68.5738088 C19.9574238,73.185125 19.9345608,77.0147898 20.1624752,77.81505 C20.5454329,79.1597027 21.3142128,80 22.2686995,80 C22.8034927,80 24.1412328,79.3132867 24.6303149,77.81505 C25.119397,76.3168132 25.6478469,65.8560759 27.4613771,64.0929359 C29.2749074,62.3297958 32.55503,62.4401571 36.0509604,62.3297958 C37.7969894,62.2746763 39.5407907,62.2582288 41.0690581,62.2601041 Z M36.8211345,30.7769282 C39.8174084,30.7769282 42.2463684,28.3644306 42.2463684,25.3884641 C42.2463684,22.4124975 39.8174084,20 36.8211345,20 C33.8248606,20 31.3959006,22.4124975 31.3959006,25.3884641 C31.3959006,28.3644306 33.8248606,30.7769282 36.8211345,30.7769282 Z" id="Rectangle-86" fill="#FFFFFF"></path>
                </g>
            </g>
        </g>
    </g>
</svg>