<?xml version="1.0" encoding="UTF-8" standalone="no"?>
<svg width="100px" height="100px" viewBox="0 0 100 100" version="1.1" xmlns="http://www.w3.org/2000/svg" xmlns:xlink="http://www.w3.org/1999/xlink">
    <!-- Generator: Sketch 3.6.1 (26313) - http://www.bohemiancoding.com/sketch -->
    <title>Group</title>
    <desc>Created with Sketch.</desc>
    <defs></defs>
    <g id="Page-1" stroke="none" stroke-width="1" fill="none" fill-rule="evenodd">
        <g id="Artboard-19" transform="translate(-183.000000, -132.000000)">
            <g id="3-иконки" transform="translate(183.000000, 132.000000)">
                <g id="Group">
                    <rect id="Rectangle-114-Copy-4" fill="#EA6A64" x="0" y="0" width="100" height="100" rx="8"></rect>
                    <path d="M51.2612173,20.8831623 C54.2428806,20.8831623 56.6599964,18.4468835 56.6599964,15.4415812 C56.6599964,12.4362789 54.2428806,10 51.2612173,10 C48.2795539,10 45.8624382,12.4362789 45.8624382,15.4415812 C45.8624382,18.4468835 48.2795539,20.8831623 51.2612173,20.8831623 Z M49.3676045,77.2168941 C48.4661852,79.6049473 46.136162,82.4270516 44.8484577,84.843509 C44.4802919,85.5343951 45.2233771,86.2801733 44.8484577,86.8649575 C43.5233538,88.9318012 42.0029992,90.0946195 41.9876393,89.9939629 C41.9326525,89.6336217 40.9795071,89.3959647 40.317209,88.8152068 C39.676963,88.253786 39.326278,87.3514773 39.3068828,86.8649575 C39.2966265,86.6076843 38.1344568,86.8337206 37.1267052,85.8030757 C36.1746442,84.8293865 35.373548,82.5975255 35.3741286,82.3240969 C35.3754911,81.6824277 35.3960016,81.0062939 35.4341742,80.2993297 C35.4692295,79.650101 36.730276,79.8139299 37.1267052,79.8139299 C37.5231344,79.8139299 38.7818316,82.2686692 38.86608,81.5434381 C38.8978152,81.2702533 40.070576,82.192077 40.8610613,82.3240969 C41.9441088,82.504978 42.7354367,81.9416997 42.7856319,81.5434381 C42.8780944,80.8098159 43.6368642,79.9655428 44.0882379,78.9556423 C44.5703432,77.8769832 44.7467511,76.6285509 44.8484575,75.7476055 C45.0205659,74.2568617 44.9440272,72.7096724 45.1023782,71.123011 C45.2958764,69.1841782 46.0857942,67.1937389 46.2632807,65.167998 C46.4932212,62.5435738 46.0828622,59.3173223 46.2632807,56.666095 C46.4930387,53.2898292 47.9956967,50.6966853 48.1992226,47.5650162 C48.4008786,44.4621178 46.8861003,43.5542347 46.9149501,40.8661741 C46.9352251,38.9770653 46.7850507,36.9855988 46.9149501,35.2266993 C46.9972089,34.1128759 46.1446907,33.0531092 46.2632807,32.0803917 C46.3097937,31.6988754 40.2475576,34.0033762 40.3172089,33.6498497 C40.3906431,33.2771222 35.6960734,29.270853 32.7876339,24.5520728 C32.5566663,24.1773408 32.1768215,23.9595263 31.9738585,23.575059 C31.3113661,22.3201176 31.2453716,20.7633345 31.1297349,19.3374626 C30.9602059,17.2470644 30.9618086,15.4380334 31.1054546,15.2739645 C31.3292494,15.0183515 31.6790125,14.4360732 32.1273333,14.4721883 C32.6988412,14.5182269 33.2038372,21.9592595 34.0388844,22.3868843 C34.6646703,22.7073471 35.276659,24.2200101 36.0969142,25.1528281 C37.7938996,27.0826894 39.9012463,28.9196923 41.4947619,29.3273729 C41.8529592,29.4190131 41.8998187,29.4215333 40.8610615,28.6480824 C39.5085736,27.6410298 37.604727,25.6937214 37.1267049,25.1528281 C36.9956292,25.004513 36.9046271,24.5525013 36.7138914,23.9673042 C36.5606079,23.4970145 36.2858371,22.9407079 36.3066206,22.3868843 C36.316217,22.1311659 36.864887,22.269411 36.8580854,22.0042558 C36.8288913,20.8661656 36.602508,19.525638 36.6503936,18.6792033 C36.6864405,18.0420307 36.9613837,17.726244 37.1267049,17.756378 C37.6015377,17.8429285 38.77559,24.6274062 38.8660798,24.580945 C38.9819429,24.5214562 40.8610615,26.2449113 40.8610615,26.2449113 C40.8610615,26.2449113 43.4280285,28.4106622 44.5012033,28.4106627 C45.574378,28.4106631 48.1992232,26.2449111 48.1992232,26.2449111 C48.1992232,26.2449111 51.9595066,22.3868844 53.7398666,22.3868844 C54.4180313,22.3868844 55.5325843,22.4864513 56.5282138,23.575059 C57.6902139,24.845574 58.0181395,27.2840585 58.0181395,27.2840585 C58.0181395,27.2840585 58.4046513,28.881099 58.0181395,30.016538 C57.0478724,32.8668494 55.6840641,37.3415946 55.6499879,39.6377996 C55.6427034,40.1286626 56.1443656,42.0089766 56.7255837,43.0181761 C56.8857491,43.2962795 59.549402,45.2602845 59.7689268,48.1182662 C59.8999479,49.8240246 59.7689268,52.5158662 58.6929719,53.6273243 C58.4004406,53.9295083 60.5348731,60.7961461 60.4155489,63.3793512 C60.3862455,64.0137301 63.6180063,67.6009947 65.268781,71.9625735 C66.3443158,74.8042875 65.8277701,78.3695803 66.4656704,80.3040612 C66.844276,81.4522112 67.0673895,82.5483016 67.0367611,82.7853976 C67.0033934,83.0436978 67.4948842,82.8426633 67.932669,83.285815 C68.7855404,84.1491419 69.922726,85.82568 69.9980612,86.6754068 C70.0817394,87.619236 67.4310189,88.160155 67.0367611,88.2736948 C66.9533386,88.2977191 66.1289939,87.9524615 65.3503855,88.2579572 C64.7326504,88.5003324 64.2332779,89.3930858 63.5202067,89.4971791 C61.3504148,89.8139225 59.1470636,89.3813174 58.6929719,88.8152068 C58.2747356,88.2937966 59.0996111,87.4693755 61.1076367,86.864956 C62.058285,86.5788091 62.0856658,85.0421755 62.4446355,84.2942391 C62.8439066,83.462332 63.5197291,83.1202758 63.5202067,82.7853976 C63.5202072,82.7850545 62.4793312,77.8242361 60.4155489,73.1505697 C58.1619704,68.0470883 53.0473187,62.2793267 53.0473187,62.2793267 C53.0473187,62.2793267 51.7840495,70.8152119 49.3676045,77.2168941 Z" id="Combined-Shape" fill="#FFFFFF"></path>
                </g>
            </g>
        </g>
    </g>
</svg>