<?xml version="1.0" encoding="UTF-8" standalone="no"?>
<svg width="100px" height="100px" viewBox="0 0 100 100" version="1.1" xmlns="http://www.w3.org/2000/svg" xmlns:xlink="http://www.w3.org/1999/xlink">
    <!-- Generator: Sketch 3.6.1 (26313) - http://www.bohemiancoding.com/sketch -->
    <title>Group 14</title>
    <desc>Created with Sketch.</desc>
    <defs></defs>
    <g id="Page-1" stroke="none" stroke-width="1" fill="none" fill-rule="evenodd">
        <g id="Artboard-9" transform="translate(-60.000000, -666.000000)">
            <g id="Stretching" transform="translate(60.000000, 60.000000)">
                <g id="Group-14" transform="translate(50.000000, 656.000000) scale(-1, 1) translate(-50.000000, -656.000000) translate(0.000000, 606.000000)">
                    <rect id="Rectangle-114-Copy-7" fill="#EA6A64" x="0" y="0" width="100" height="100" rx="8"></rect>
                    <path d="M62.1437616,21.5948894 C65.061758,21.5948894 67.4272614,19.2231426 67.4272614,16.2974447 C67.4272614,13.3717468 65.061758,11 62.1437616,11 C59.2257653,11 56.8602619,13.3717468 56.8602619,16.2974447 C56.8602619,19.2231426 59.2257653,21.5948894 62.1437616,21.5948894 Z M55.4055999,83.8610524 C55.0554525,82.993384 56.4746024,80.6863435 56.2271555,79.3854786 C55.3089996,74.558598 54.3177108,65.836363 53.9626765,57.6218605 C53.7801544,53.3988085 54.3724672,49.2926981 53.9626765,45.9550588 C52.9765449,37.9232714 57.3455372,33.4488694 56.2271552,28.7579411 C55.8301203,27.0926223 44.9838476,26.2055465 37.3656974,25.2044223 C35.385298,24.944172 33.2360646,25.705339 32.2899374,25.2044223 C31.3438103,24.7035056 30.8372843,23.1009384 31.0469358,21.859023 C31.2664043,20.5589537 32.2987485,19.8017119 32.2899374,19.5528729 C32.2818371,19.3241075 34.3470761,20.7227497 37.3656974,20.9524024 C45.211036,21.5492655 59.3702824,21.859023 59.3702824,21.859023 L65.0734582,22.5770008 C65.0734582,22.5770008 67.3479918,23.1716896 68.2837619,25.2044225 C69.1807609,27.1529348 68.9810407,29.5300176 68.9810407,30.9017718 C68.9810407,34.7747912 66.3379312,37.6533521 66.0985521,42.5591453 C65.9443011,45.7203373 67.6495892,49.1146448 67.5837959,52.4539027 C67.2469087,69.5522037 67.5837959,90.0062972 67.5837959,90.0062972 C67.5837959,90.0062972 65.2987818,91.2821375 64.2212051,90.9424978 C62.5913063,90.4287725 61.6555833,86.3995718 61.6555833,86.3995718 C61.6555833,86.3995718 57.1841962,88.2684295 55.4055999,83.8610524 Z" id="Oval-27" fill="#FFFFFF"></path>
                </g>
            </g>
        </g>
    </g>
</svg>