<?xml version="1.0" encoding="UTF-8" standalone="no"?>
<svg width="100px" height="100px" viewBox="0 0 100 100" version="1.1" xmlns="http://www.w3.org/2000/svg" xmlns:xlink="http://www.w3.org/1999/xlink">
    <!-- Generator: Sketch 3.6.1 (26313) - http://www.bohemiancoding.com/sketch -->
    <title>Group 2</title>
    <desc>Created with Sketch.</desc>
    <defs></defs>
    <g id="Page-1" stroke="none" stroke-width="1" fill="none" fill-rule="evenodd">
        <g id="Artboard-19" transform="translate(-585.000000, -132.000000)">
            <g id="3-иконки" transform="translate(183.000000, 132.000000)">
                <g id="Group-2" transform="translate(402.000000, 0.000000)">
                    <rect id="Rectangle-114-Copy-6" fill="#EA6A64" x="0" y="0" width="100" height="100" rx="8"></rect>
                    <path d="M46.8912233,25.5654253 C46.2643483,26.1342856 45.5997858,26.6129363 45.5997858,26.6129363 C45.5997858,26.6129363 42.9738083,29.3011153 43.0020048,30.5549688 C43.0146598,31.1177186 43.5992152,31.6996698 43.6167799,32.292795 C43.6488261,33.3749265 42.9581449,34.1667129 43.0020048,35.3371619 C43.0888379,37.6543991 44.9629899,41.2191772 45.1033863,43.7937369 C45.2272998,46.0660363 43.501332,49.6247782 43.6167799,51.9784336 C43.674599,53.1572021 45.0343912,53.8766398 45.1033863,55.0511306 C45.2484892,57.5211901 46.382919,60.6023231 46.5200042,63.0053865 C46.6882819,65.955246 49.1470311,68.3555726 49.2327045,71.0112251 C49.3225274,73.7955022 50.2490488,78.3582143 50.0375509,80.6961898 C49.823379,83.0637255 49.8531871,84.3694623 49.2327045,85.6034406 C48.6122219,86.8374188 47.0662941,86.5593557 46.5200042,86.8713912 C44.6850549,87.9194961 43.2960744,88.1670511 43.2960744,88.1670511 C43.2960744,88.1670511 42.6069121,89.5984187 43.9897125,89.7044855 C45.3668851,89.8101207 47.2310502,90.0246999 49.2327045,89.9976659 C51.1866718,89.971276 53.2896204,89.4113052 53.7433462,89.4113052 C54.6618709,89.4113052 53.9721842,88.610904 54.1722738,86.8713912 C54.4831263,84.1689409 55.7510045,79.7291778 55.8058782,74.0323663 C55.8288713,71.6452961 55.0327848,68.8415868 55.1066618,66.1493319 C55.2074537,62.4762352 55.6257203,58.5807456 55.8058782,54.6098658 C55.849301,53.6527778 56.7217643,53.6320853 57.2535441,52.5679102 C57.7269147,51.620621 57.8665223,49.628679 57.8955762,48.7738086 C57.9192115,48.0783723 57.6644355,46.4269152 57.2535441,44.9924119 C56.9641975,43.9822459 56.4726452,43.1073897 56.4895649,42.6290387 C56.5088975,42.0824701 58.3033739,32.9356358 57.8955765,29.3499179 C57.7593738,28.1523027 55.8058782,23.7019609 55.8058782,23.7019609 C55.8058782,23.7019609 54.0834384,22.3593368 52.4059455,22.3148818 C51.7220824,22.2967589 51.0610288,22.4699651 50.5003277,22.6694559 C51.5404721,23.1587713 52.4089892,24.261059 52.8111295,25.0128673 C53.4443,26.1965906 53.2560758,29.5382735 53.4443001,33.0965069 C53.5734031,35.5370971 54.0033636,37.4053139 53.8894084,40.2003685 C53.7099535,44.601976 52.2643529,48.8283342 52.0492428,52.1745816 C52.0044891,52.8707703 52.4711572,53.5265964 52.4988528,54.1348959 C52.6187528,56.7683455 52.9672677,57.7481652 52.8111294,58.4870103 C52.6549911,59.2258554 51.4012824,60.3864471 50.388615,60.3864466 C49.3759476,60.386446 48.5935855,58.9063182 48.5935855,58.9063182 C48.5935855,58.9063182 48.8507792,55.372084 48.5935855,54.8098961 C48.3544707,54.2872262 46.6658728,56.9857981 46.889072,55.4065147 C46.9614345,54.8945019 47.1734685,54.2443296 47.4928171,53.62861 C47.7805243,53.0738967 48.1553339,52.5471471 48.5935855,52.1745816 C49.5182867,51.3884766 49.1830789,49.0073605 49.2252151,48.1767076 C49.3056587,46.5908806 48.5245935,43.4912536 48.5935855,41.9278209 C48.6451935,40.7583303 49.2127184,39.7927609 49.2252151,38.7065414 C49.2400076,37.4207712 48.618907,36.215608 48.5935855,35.1473807 C48.5635767,33.8814131 48.031808,32.5569391 47.6688844,30.8477748 C47.2045042,28.6608077 46.889072,27.3429744 46.889072,26.1965906 C46.889072,25.9976244 46.8863454,25.785136 46.8912233,25.5654253 Z M50.4140737,20.2874449 C53.5988247,20.2874449 56.1805755,17.7606643 56.1805755,14.6437225 C56.1805755,11.5267806 53.5988247,9 50.4140737,9 C47.2293227,9 44.6475719,11.5267806 44.6475719,14.6437225 C44.6475719,17.7606643 47.2293227,20.2874449 50.4140737,20.2874449 Z M48.7718125,54.487681 C48.553048,54.0134438 47.0081605,56.461955 47.2123641,55.0290145 C47.278568,54.5644469 47.4725566,53.9745222 47.7647266,53.4158577 C48.027948,52.9125464 48.370859,52.4346076 48.7718126,52.0965655 C49.6178158,51.3833042 49.4609156,47.7569302 49.4994657,47.0032489 C49.5730631,45.5643711 48.8584714,42.7519683 48.9215918,41.3334096 C48.9688076,40.2722889 49.4880326,39.3961931 49.4994657,38.4106271 C49.5129993,37.2440016 48.9447583,36.1505138 48.9215918,35.1812728 C48.894137,34.0326149 48.4076252,32.8308721 48.0755887,31.2800859 C47.6507302,29.2957722 47.3621433,27.5136939 47.3621433,26.4735387 C47.3621433,25.4333835 47.2793309,23.9859233 48.9215918,23.2245062 C50.5638528,22.4630891 52.2009123,24.3254695 52.7801959,25.3995041 C53.3594795,26.4735388 53.0374951,30.0919285 53.2097004,33.3204413 C53.3278159,35.5348765 53.721184,37.2299767 53.6169271,39.7660301 C53.452745,43.7597666 51.9803949,49.0603951 51.7835921,52.0965655 C51.7426472,52.7282426 52.1695988,53.3232971 52.1949374,53.875229 C52.3046331,56.2646524 52.7732665,57.5934486 52.6304165,58.2638293 C52.4875666,58.93421 51.3405565,59.9872566 50.4140736,59.987256 C49.4875906,59.9872555 48.7718126,58.6442824 48.7718126,58.6442824 C48.7718126,58.6442824 49.0071174,54.9977743 48.7718125,54.487681 Z" id="Combined-Shape" fill="#FFFFFF"></path>
                </g>
            </g>
        </g>
    </g>
</svg>