<?xml version="1.0" encoding="UTF-8" standalone="no"?>
<svg width="100px" height="100px" viewBox="0 0 100 100" version="1.1" xmlns="http://www.w3.org/2000/svg" xmlns:xlink="http://www.w3.org/1999/xlink">
    <!-- Generator: Sketch 3.6.1 (26313) - http://www.bohemiancoding.com/sketch -->
    <title>Group 21</title>
    <desc>Created with Sketch.</desc>
    <defs></defs>
    <g id="Page-1" stroke="none" stroke-width="1" fill="none" fill-rule="evenodd">
        <g id="Artboard-9" transform="translate(-276.000000, -336.000000)">
            <g id="legs" transform="translate(276.000000, 188.000000)">
                <g id="Group-21" transform="translate(0.000000, 148.000000)">
                    <rect id="Rectangle-114-Copy-9" fill="#EA6A64" x="0" y="0" width="100" height="100" rx="8"></rect>
                    <g id="Group-2" transform="translate(25.000000, 10.000000)">
                        <path d="M49.0171293,33.4639815 L49.4227067,33.6531054 L44.2278357,44.5710041 L49.9068166,75.9493933 L48.3426306,76.2534403 L44.360357,54.2499626 L39.3730531,54.7741493 L33.2338966,67.6766231 L34.1638451,72.8149193 L32.5996591,73.1189662 L32.0608663,70.1419443 L27.4003354,79.9368368 L25.9561681,79.2634105 L31.5746232,67.4552784 L29.4679603,55.8152165 L27.7998453,55.9905425 L27.3861637,52.0546255 L28.6379655,51.2292002 L27.2335473,43.4692903 L13.3437317,72.661083 L11.8995643,71.9876566 L26.7473042,40.7826243 L26.0381824,36.8644739 L27.6023684,36.560427 L27.9203345,38.3173031 L33.9219356,25.7039252 L35.366103,26.3773515 L28.4065776,41.003969 L30.0845458,50.27534 L32.1161149,48.9357442 C32.1161149,48.9357442 36.1251536,49.4290065 39.8580205,50.0463205 L42.5685623,44.3496594 L42.0025504,41.2222427 C40.6058061,40.938798 39.0624065,40.635291 38.0821396,40.4717747 C36.1816018,40.1547499 32.966512,39.8436547 32.966512,39.8436547 L34.2297042,29.5557794 C34.2297042,29.5557794 41.5740074,29.9949107 45.278255,30.9123708 C46.5367703,31.2240772 49.1179929,33.2432788 49.1179929,33.2432788 L49.0171293,33.4639815 Z M43.8735239,41.6070622 L43.7415926,41.8843381 L43.6842885,41.5677128 C43.7488872,41.5811299 43.8120093,41.5942562 43.8735239,41.6070622 Z M32.7476535,64.9899571 L37.5155685,54.9693788 L31.0569479,55.6482072 L32.7476535,64.9899571 Z M43.6903389,50.5478741 C43.0675402,50.4336357 42.2860615,50.3659707 41.5109672,50.2809619 L43.0548053,47.0363253 L43.6903389,50.5478741 Z" id="Rectangle-92" fill-opacity="0.4" fill="#000000"></path>
                        <path d="M17.0427152,22.5980211 C17.1110859,22.4352644 17.1840279,22.2775659 17.260464,22.1263605 C18.1303811,20.4054988 17.8724422,18.2297506 18.6969667,17.1923617 C19.5214912,16.1549729 24.1139708,12.941595 26.8056715,13.1491766 C29.5935645,13.3641765 34.7408244,17.5346693 34.7408244,17.5346693 C34.9467289,17.6968921 34.9058219,17.7812554 34.6486753,17.7351803 C34.6486753,17.7351803 33.7886868,17.4748568 32.9212013,17.8283996 C31.3360156,18.4744405 29.3198305,20.1115975 29.3198305,22.1263605 C29.3198306,27.0298703 29.5821785,34.8063169 29.0368116,40.1063003 C28.9358296,41.0876636 29.4061879,41.8960123 30.1070822,42.5451989 C30.4980756,39.7355398 29.8491948,35.6699287 30.0943396,32.8275583 C30.3279706,30.1186859 30.0632896,27.9613083 29.9709633,26.05865 C29.864202,23.8585184 29.6339243,22.4478318 29.8113207,21.6836401 C29.99772,20.8806661 30.5657766,20.065695 31.3977166,19.3547661 C32.0422423,18.8039908 32.8856385,18.1663765 34.1675351,18.1663765 C37.1040761,18.1663765 36.0918925,22.5379657 36.0918925,25.1899473 C36.0918925,29.8550694 34.8799087,37.495531 34.4339624,43.6277846 C34.4088173,43.9735583 34.3814422,44.311268 34.3520144,44.6410802 C34.4203799,44.658963 34.457649,44.6677789 34.457649,44.6677789 C34.457649,44.6677789 34.4092951,44.8120003 34.3125257,45.0663396 C33.6643273,51.7813728 32.1620801,55.1138478 31.3977166,56.5577941 C30.5806212,58.1013553 26.4228419,58.3285067 25.7427774,56.5577941 C25.3018082,55.4096242 26.5132571,54.8369844 27.4196001,54.1234414 C26.7028618,54.5015698 25.9312194,54.7750571 25.1045993,54.9031834 C18.8586401,55.871309 15.2309399,52.1659558 13.8833292,53.8001078 C12.6868463,55.2509977 14.6619135,56.3820283 15.2309399,59.2225631 C15.8183197,62.1547165 15.0233019,66.807122 15.2309394,68.9209214 C15.7310137,74.0117982 13.726645,74.4622501 12.6424002,74.2496055 C11.931028,74.1100895 11.2760589,72.509415 9.67407203,67.6482098 C9.32178387,66.5791966 8.8137641,65.391896 8.23236284,64.1367235 L8.99202959,71.3232523 C8.99202959,71.3232523 9.09423828,74.0176747 7.7622626,74.0176747 C6.43028691,74.0176747 5.1196559,71.93723 5.1196559,71.93723 C5.1196559,71.93723 2.41807617,63.7474839 0.954584036,56.7062958 C0.341980008,53.7589208 -0.243410321,50.5339374 0.240385667,49.1213648 C0.954584021,47.0360705 3.16075426,46.06899 5.89680813,44.9355411 C8.28370705,43.9467346 15.1053899,43.6444399 18.0302204,37.9891623 C18.5827202,36.9208816 18.438334,32.9898797 18.0302204,31.2758717 C17.6221068,29.5618636 16.0792465,27.6540827 15.7714878,26.6538662 C15.463729,25.6536497 15.4264037,24.6635678 15.7714874,23.9349845 C16.0603733,23.325053 16.5715969,22.8874965 17.0427152,22.5980211 Z M25.8962264,11.96702 C29.2047247,11.96702 31.8867925,9.28811134 31.8867925,5.98351001 C31.8867925,2.67890868 29.2047247,0 25.8962264,0 C22.5877281,0 19.9056604,2.67890868 19.9056604,5.98351001 C19.9056604,9.28811134 22.5877281,11.96702 25.8962264,11.96702 Z" id="Oval-28" fill="#FFFFFF"></path>
                    </g>
                </g>
            </g>
        </g>
    </g>
</svg>