<?xml version="1.0" encoding="UTF-8" standalone="no"?>
<svg width="100px" height="100px" viewBox="0 0 100 100" version="1.1" xmlns="http://www.w3.org/2000/svg" xmlns:xlink="http://www.w3.org/1999/xlink">
    <!-- Generator: Sketch 3.6.1 (26313) - http://www.bohemiancoding.com/sketch -->
    <title>Group 22</title>
    <desc>Created with Sketch.</desc>
    <defs></defs>
    <g id="Page-1" stroke="none" stroke-width="1" fill="none" fill-rule="evenodd">
        <g id="Artboard-9" transform="translate(-276.000000, -487.000000)">
            <g id="legs" transform="translate(276.000000, 188.000000)">
                <g id="Group-22" transform="translate(0.000000, 299.000000)">
                    <rect id="Rectangle-114-Copy-10" fill="#EA6A64" x="0" y="0" width="100" height="100" rx="8"></rect>
                    <g id="Group-3" transform="translate(19.000000, 10.000000)">
                        <path d="M62.1293567,34.3344085 L62.5470816,34.5291968 L57.4343694,45.2749347 L63.0041098,76.0443516 L61.4724919,76.342068 L57.5636592,54.7481523 L52.6830419,55.2611258 L46.6710214,67.8970016 L47.5889246,72.9678563 L46.0573067,73.2655726 L45.5224785,70.3109732 L40.9329002,79.9572046 L39.518802,79.2977998 L45.0462869,67.6803056 L42.9827756,56.2806649 L41.3500594,56.4522703 L40.9440298,52.5891563 L42.1681379,51.7802886 L40.7927355,44.1820297 L27.1689706,72.8160312 L25.7548724,72.1566263 L40.316544,41.5513621 L39.6161106,37.6818951 L41.1477285,37.3841787 L41.465087,39.1373905 L47.3690537,26.7286186 L48.783152,27.3880234 L41.9412785,41.7680582 L43.5842622,50.8445402 L45.5748647,49.5291873 C45.5748647,49.5291873 49.5052052,50.0148444 53.1623977,50.6221188 L55.8096349,45.0582386 L55.2483671,41.9575766 C53.8824201,41.6801489 52.3743969,41.3833765 51.4160463,41.2234153 C49.5551034,40.9127998 46.4069317,40.6083735 46.4069317,40.6083735 L47.6467586,30.5107941 C47.6467586,30.5107941 54.8382752,30.9397231 58.4652662,31.8391398 C59.6975336,32.144716 62.2245338,34.1257729 62.2245338,34.1257729 L62.1293567,34.3344085 Z M57.103198,42.3394684 L56.9581779,42.6442671 L56.8951661,42.2961653 C56.9663933,42.3109725 57.035798,42.3254205 57.103198,42.3394684 Z M46.1948299,65.266334 L50.8642524,55.4522883 L44.5386829,56.1171324 L46.1948299,65.266334 Z M56.9057667,51.1136979 C56.2979923,51.0020553 55.53644,50.9355925 54.7806601,50.8524176 L56.2858265,47.6889063 L56.9057667,51.1136979 Z" id="Rectangle-92-Copy" fill-opacity="0.4" fill="#000000"></path>
                        <path d="M33.3372536,22.2725086 C33.4042008,22.1127624 33.475624,21.9579808 33.5504687,21.8095724 C34.4022731,20.1205416 34.1497048,17.9850384 34.9570618,16.9668383 C35.7644188,15.9486381 40.2612778,12.7946984 42.8969343,12.9984404 C45.6267802,13.2094634 50.6668685,17.3028142 50.6668685,17.3028142 C50.8684858,17.4620363 50.8284305,17.5448391 50.576638,17.4996163 C50.576638,17.4996163 49.7345555,17.244108 48.8851319,17.5911113 C47.3329516,18.2252023 45.3587457,19.8320766 45.3587457,21.8095724 C45.3587458,26.6223814 45.6156314,34.2549862 45.0816196,39.4569352 C44.9827401,40.4201461 45.443305,41.2135427 46.1296059,41.8507213 C46.5124585,39.0930327 45.8770881,35.1026236 46.1171286,32.3128289 C46.3458952,29.6540628 46.0867252,27.5365905 45.9963212,25.6691258 C45.8917828,23.5096903 45.6662997,22.1250973 45.8400025,21.375041 C46.0225208,20.5869196 46.5787499,19.7870232 47.3933679,19.0892444 C48.0244739,18.5486568 48.8503096,17.9228366 50.1055157,17.9228366 C52.9809147,17.9228366 51.9898058,22.213564 51.9898058,24.8164916 C51.9898058,29.3953224 50.8030569,36.8944576 50.3663957,42.9132822 C50.3417741,43.2526601 50.314969,43.5841232 50.286154,43.9078347 C50.353096,43.9253868 50.3895891,43.9340396 50.3895891,43.9340396 C50.3895891,43.9340396 50.342242,44.0755934 50.2474874,44.3252281 C49.6127852,50.9160526 48.1418165,54.1868865 47.3933679,55.6041239 C46.5932854,57.1191337 42.5220756,57.3420834 41.8561708,55.6041239 C41.4243831,54.4771918 42.6106083,53.9151443 43.4980803,53.2147997 C42.7962652,53.5859339 42.0406893,53.8543624 41.2312803,53.9801188 C35.115369,54.9303368 31.5632015,51.478493 30.2436495,53.0824179 C29.8844712,53.5190018 27.5313296,53.835052 23.771125,54.1366776 L25.4541923,70.0964638 C25.4541923,70.0964638 25.5542729,72.7410472 24.2500304,72.7410472 C22.9457879,72.7410472 21.6624457,70.6990847 21.6624457,70.6990847 C21.6624457,70.6990847 19.0171159,62.6608252 17.5840953,55.7498788 C17.4975515,55.3325089 17.4115623,54.9094673 17.3291919,54.4869146 C15.1860604,54.5310033 13.156482,54.4997771 11.0435409,54.4441913 C6.83675019,54.3335221 0.716645961,54.56868 0.16720293,52.8974462 C-0.980140524,49.4075863 10.485271,50.3853077 16.9619935,48.0980988 C17.7331653,46.1931007 19.8363877,45.2711059 22.4234168,44.196849 C24.7606178,43.2263325 31.4402656,42.9296294 34.3041979,37.3789581 C34.845194,36.3304376 34.7038141,32.4721479 34.3041979,30.789844 C33.9045817,29.1075401 32.3938454,27.2350477 32.0924946,26.2533323 C31.7911437,25.2716169 31.7545956,24.2998487 32.0924942,23.5847421 C32.3753651,22.9860925 32.8759446,22.5566295 33.3372536,22.2725086 Z M42.0064249,11.7456647 C45.2460365,11.7456647 47.8722607,9.11630813 47.8722607,5.87283237 C47.8722607,2.62935661 45.2460365,0 42.0064249,0 C38.7668132,0 36.1405891,2.62935661 36.1405891,5.87283237 C36.1405891,9.11630813 38.7668132,11.7456647 42.0064249,11.7456647 Z" id="Oval-28" fill="#FFFFFF"></path>
                    </g>
                </g>
            </g>
        </g>
    </g>
</svg>