<?xml version="1.0" encoding="UTF-8" standalone="no"?>
<svg width="100px" height="100px" viewBox="0 0 100 100" version="1.1" xmlns="http://www.w3.org/2000/svg" xmlns:xlink="http://www.w3.org/1999/xlink">
    <!-- Generator: Sketch 3.6.1 (26313) - http://www.bohemiancoding.com/sketch -->
    <title>Group 23</title>
    <desc>Created with Sketch.</desc>
    <defs></defs>
    <g id="Page-1" stroke="none" stroke-width="1" fill="none" fill-rule="evenodd">
        <g id="Artboard-9" transform="translate(-574.000000, -641.000000)">
            <g id="Abs" transform="translate(574.000000, 188.000000)">
                <g id="Group-23" transform="translate(0.000000, 453.000000)">
                    <rect id="Rectangle-114-Copy-18" fill="#EA6A64" x="0" y="0" width="100" height="100" rx="8"></rect>
                    <g id="Group-9" transform="translate(27.000000, 10.000000)" fill="#FFFFFF">
                        <path d="M20.7274968,35.5232554 C20.9228488,35.0009651 21.6467219,34.898763 21.5597685,33.2478426 C21.4899653,31.9225417 23.118364,30.4957501 23.0467317,29.0576096 C22.9813796,27.7455557 23.1287856,26.4200739 23.0467317,25.1051145 C22.9628017,23.7600911 21.5704003,22.5286592 21.5597685,21.2665901 C21.5443427,19.4354398 22.9994359,17.9632196 23.0467316,16.517631 C23.0923624,15.1229312 24.6656921,12.5776966 24.6656921,12.5776966 C24.6656921,12.5776966 28.5308326,11.270491 31.0945822,11.270491 C32.9713362,11.270491 37.7848405,12.8594387 37.7848405,12.8594387 C37.7848405,12.8594387 35.7423427,12.8133585 34.5078715,14.2447431 C33.4887833,15.4263883 32.4465706,17.2910388 32.5929528,18.9069102 C32.6325919,19.3444756 32.8105502,19.7639848 33.0364003,20.1828154 L33.5301502,20.1828154 C33.0815128,19.2961023 32.7271754,18.480677 33.0424235,17.7211379 C33.6581157,16.2377277 34.1593117,13.7971816 37.0003549,13.1779069 C39.8413982,12.5586323 39.9787111,18.023301 39.9787111,18.023301 C39.9787111,18.023301 40.0552074,18.8748957 40.1689149,20.1828154 L46.8544892,20.1828154 L46.8544892,23.9853748 L45.7801307,23.9853748 L44.8485098,46.3548399 L44.6728408,46.3548399 C44.6785159,48.422239 44.7159484,55.5319785 44.9628483,59.3784278 C45.25387,63.9122486 46.2724458,72.833638 46.2724458,72.833638 L45.0500002,72.9018977 C44.584417,72.9278953 43.6532508,72.9798903 43.6532508,72.9798903 C43.6532508,72.9798903 42.6346749,63.9122486 42.3436533,59.3784278 C42.110535,55.7466835 42.0641524,49.2057887 42.0549238,46.7467281 L35.8419269,49.3121736 C35.6973047,49.3718904 35.5341515,49.4258251 35.3591331,49.4730945 L35.3591331,80 L32.7399381,80 L32.7399381,49.6082486 L23.6661631,48.2375106 C21.9346492,48.5083306 20.0920868,48.7301269 18.3343653,48.8540153 L18.3343653,75.7586837 L16.006192,75.7586837 L16.006192,48.9577104 C14.8224465,48.9755178 13.7293429,48.9307249 12.8005504,48.8049474 C10.9204121,48.5503384 9.75836171,49.4095942 8.48848963,48.8049474 C8.28892604,48.7099257 8.64244899,52.7082302 8.4884897,55.4704998 C8.29302924,58.9773651 6.36728435,61.4308311 6.16524814,61.2750302 C5.9026374,61.072517 5.46983239,68.8590613 4.52103983,72.5978305 C3.8151543,75.3794112 2.52934091,74.5009763 2.38250565,73.9828487 C1.80451012,71.9433152 1.62236864,65.4389638 1.77434366,59.6669647 C1.77791868,59.5311861 1.78344014,59.3935933 1.79070018,59.2544288 C1.02569569,55.6980625 -0.68459098,45.2766387 0.594079016,42.6317581 C1.35329342,41.0613518 6.99850456,38.5192853 12.36714,37.046303 C15.8414493,36.0930633 19.2482331,35.673139 20.7274968,35.5232554 Z M2.52630742,49.7686835 C2.61272033,50.6426348 2.67422151,51.4518302 2.64740866,51.9787845 C2.59789681,52.9518433 2.43472211,54.0863392 2.26226444,55.2605051 C2.3567753,53.3378779 2.45668837,51.241299 2.52630742,49.7686835 Z M32.8806595,44.4539756 L39.6142239,45.2323249 C39.3084927,45.0634418 39.0525148,44.8994524 39.0525148,44.8994524 C39.0525148,44.8994524 38.3333894,38.7365605 37.0003549,31.3895716 C36.6345438,29.3734123 35.3020906,26.1073316 34.7731857,23.9853748 L34.5652749,23.9853748 C34.6727343,24.6230721 34.7214075,25.2231436 34.7214075,25.666958 C34.7214075,28.6945486 33.4802899,33.7681052 33.1617364,37.3629534 C32.9471756,39.7842522 33.6130031,41.535649 33.6130031,41.535649 C33.6130031,41.535649 33.613003,43.020853 32.8806595,44.4539756 Z M41.0408664,45.397234 L42.1036775,45.520087 L43.6141021,23.9853748 L40.4922965,23.9853748 C40.7054966,26.5546695 40.9308394,29.4159606 41.0510786,31.3895715 C41.3264705,35.9098656 41.6160991,44.8994516 41.6160991,44.8994516 C41.6160991,44.8994516 41.3560063,45.19126 41.0408664,45.397234 Z M30.7027864,10.23766 C33.5155059,10.23766 35.7956656,7.94588172 35.7956656,5.11882998 C35.7956656,2.29177825 33.5155059,0 30.7027864,0 C27.8900668,0 25.6099071,2.29177825 25.6099071,5.11882998 C25.6099071,7.94588172 27.8900668,10.23766 30.7027864,10.23766 Z" id="Rectangle-146"></path>
                    </g>
                </g>
            </g>
        </g>
    </g>
</svg>