<?xml version="1.0" encoding="UTF-8" standalone="no"?>
<svg width="100px" height="100px" viewBox="0 0 100 100" version="1.1" xmlns="http://www.w3.org/2000/svg" xmlns:xlink="http://www.w3.org/1999/xlink">
    <!-- Generator: Sketch 3.6.1 (26313) - http://www.bohemiancoding.com/sketch -->
    <title>Group 20</title>
    <desc>Created with Sketch.</desc>
    <defs></defs>
    <g id="Page-1" stroke="none" stroke-width="1" fill="none" fill-rule="evenodd">
        <g id="Artboard-9" transform="translate(-276.000000, -939.000000)">
            <g id="legs" transform="translate(276.000000, 188.000000)">
                <g id="Group-20" transform="translate(0.000000, 751.000000)">
                    <rect id="Rectangle-114-Copy-15" fill="#EA6A64" x="0" y="0" width="100" height="100" rx="8"></rect>
                    <g id="Group-6" transform="translate(33.000000, 10.000000)">
                        <path d="M0.0700395491,0 L34.9920885,0 L34.9920885,64.2422347 L0.0700395491,79.9263052 L0.0700395491,0 Z" id="Rectangle-116-Copy" fill-opacity="0.3" fill="#000000"></path>
                        <path d="M7.85347763,43.3132202 L7.84443558,43.31361 C7.84443558,43.31361 7.77398144,41.8137195 8.53305084,39.9993131 C8.96032828,38.9779903 10.4547414,37.8775648 10.4021493,36.8385528 C10.3309661,35.4322529 8.00405766,33.9971214 7.8522075,32.8437171 C7.5170932,33.4443022 7.24464239,34.1096762 7.15506506,34.9115605 C6.76749048,38.3810763 6.358023,42.3342574 5.8753639,45.5768521 C5.25165838,49.7670231 4.591383,51.2592083 4.591383,51.2592083 C4.591383,51.2592083 4.19142157,51.9917987 3.58564492,51.9405388 C2.97986827,51.8892789 3.03338424,50.9832957 3.03338424,50.9832957 C3.03338424,50.9832957 3.56517729,49.4716599 3.85604142,45.2872975 C4.09852323,41.7989617 4.09798619,37.4223037 4.18940972,34.6327971 C4.28929658,31.585058 5.875364,25.5466215 5.875364,25.5466215 C5.875364,25.5466215 7.56371338,21.5503706 8.45700662,21.7109284 C8.98555965,21.805929 9.67739681,22.1528282 10.1727998,22.8143595 C10.7543618,23.5909426 10.8320062,24.0837411 10.8999359,24.8660246 C10.9678655,25.6483081 10.8860982,25.7458625 10.5471476,26.7659309 C10.2960193,27.5216988 9.97466056,28.2561388 9.7935221,28.8336392 C10.5382921,27.6395906 11.2233707,26.4021167 11.2734583,25.3111781 C11.4057569,22.4296379 8.81801358,21.6024287 8.81801358,21.6024287 C8.66063299,21.5387587 8.64211078,21.3855431 8.7715687,21.2709359 C8.7715687,21.2709359 10.4742513,19.5888633 12.16168,19.753884 C13.1176374,19.8473711 14.2687018,20.4782031 15.7025861,20.9072978 C17.116075,21.3302892 18.4744699,22.1394639 19.1916553,22.6254105 C19.9088407,23.1113571 19.5024806,23.6940652 19.7831275,26.1072578 C19.9403485,27.4591505 20.7344518,28.7014215 20.7344518,29.7027281 C20.7344518,31.3358287 19.3475586,31.393697 19.1916557,33.5497794 C19.1137776,34.626807 19.2203878,35.9983546 19.1916553,37.3559803 C19.1706216,38.3498298 18.9416701,39.3178631 19.1916553,40.2492104 C19.3526492,40.8490109 19.5842882,41.3062567 19.8361865,41.6541141 C21.2858793,41.7265958 23.9189399,41.5557366 24.6253475,41.6232211 C27.7350345,41.9202958 31.197969,42.9748736 32.2354473,43.3044088 C35.6513949,44.3894195 34.981374,47.6792813 34.8812663,50.2528978 C34.8769866,50.3629224 34.3207735,55.2877174 33.9138369,57.6945677 C33.2531558,61.6022052 32.8810036,65.3009358 32.8810036,65.3009358 C32.8810036,65.3009358 31.5455594,67.1044932 31.0447351,62.9603495 C30.9120438,61.8623768 30.7860732,60.4164416 30.5887838,58.7746263 C30.3630614,56.8961951 30.0654055,54.7825134 29.9252606,53.0033803 C29.8720236,52.3275377 29.7776939,51.484435 29.5123149,50.522099 C29.3758081,50.0270887 28.9926814,49.2922535 28.9673977,48.9676455 C28.9433458,48.6588531 27.507057,48.4460935 27.507057,49.4840962 C27.507057,50.522099 26.5567975,53.0167559 26.2072253,54.8077698 C25.3011965,59.4497571 25.170961,69.4091383 24.6253478,69.1678794 C22.9261899,68.4165468 22.7937847,67.7902939 22.4393358,65.0988184 C22.1452321,62.8655692 21.9236805,56.5494334 22.0070964,53.9605223 C22.0624507,52.2425387 23.4158589,51.0322092 22.7750582,49.7490701 C22.279708,48.757181 19.4742185,50.4621981 16.7277073,50.522099 C13.5241092,50.5919688 11.7341015,50.522099 10.3538896,49.4840962 C8.97367778,48.4460935 8.25387098,46.7182812 7.96250391,45.3201256 C7.78942317,44.4895794 7.80388341,43.7847617 7.85347763,43.3132202 Z M13.7765326,19.0138067 C16.3811272,19.0138067 18.4925682,16.8767832 18.4925682,14.2406312 C18.4925682,11.6044791 16.3811272,9.46745562 13.7765326,9.46745562 C11.171938,9.46745562 9.06049697,11.6044791 9.06049697,14.2406312 C9.06049697,16.8767832 11.171938,19.0138067 13.7765326,19.0138067 Z" id="Oval-32-Copy" fill="#FFFFFF"></path>
                    </g>
                </g>
            </g>
        </g>
    </g>
</svg>