<?xml version="1.0" encoding="UTF-8" standalone="no"?>
<svg width="100px" height="100px" viewBox="0 0 100 100" version="1.1" xmlns="http://www.w3.org/2000/svg" xmlns:xlink="http://www.w3.org/1999/xlink">
    <!-- Generator: Sketch 3.6.1 (26313) - http://www.bohemiancoding.com/sketch -->
    <title>Group 4</title>
    <desc>Created with Sketch.</desc>
    <defs></defs>
    <g id="Page-1" stroke="none" stroke-width="1" fill="none" fill-rule="evenodd">
        <g id="Artboard-10" transform="translate(-308.000000, -286.000000)">
            <g id="Group" transform="translate(308.000000, 132.000000)">
                <g id="Group-4" transform="translate(0.000000, 154.000000)">
                    <rect id="Rectangle-114-Copy-7" fill="#EA6A64" x="0" y="0" width="100" height="100" rx="8"></rect>
                    <path d="M36.0300647,61.1899164 C33.0774032,60.6297867 30.023206,59.9783364 28.0497837,56.2388536 C26.0763614,52.4993708 27.2958004,49.4535897 28.3745512,47.6082521 C29.453302,45.7629144 31.417944,44.2235281 31.5722547,44.1227823 C31.5722547,44.1227823 33.9513786,40.67896 34.9614024,36.7852508 C35.6570558,34.1034606 35.4807846,30.27682 36.184843,28.6984429 C38.2202851,24.135334 39.4596817,23.0146007 39.4596817,23.0146007 C39.9504062,22.2208147 41.0323979,21.8972812 41.8765915,22.2920684 L49.0558877,25.649467 C49.0558877,25.649467 55.9129327,26.749467 59.3414552,26.749467 C69.9878372,26.749467 91.2806013,25.649467 91.2806013,25.649467 C92.2125032,25.649467 92.8134005,27.4158788 92.9229571,28.1484429 C93.0325136,28.881007 91.8685228,29.5806809 91.8685228,29.5806809 C91.8685228,30.5143264 75.2777419,32.892524 67.9744641,33.3445629 C62.797372,33.6650008 55.8539508,33.5816111 50.218619,33.4625853 C49.6653191,35.9491793 48.9552148,39.7324477 48.1820768,41.3952207 C47.035894,43.8602939 45.1286011,47.1886767 42.6604384,49.9482533 C41.9724602,50.7174605 46.9356242,52.8703642 48.9670373,53.5079936 C51.9385906,54.4407185 56.6388433,57.2317513 56.6388433,57.2317513 C57.2910921,57.6053694 58.260538,58.7534151 58.6346169,60.1026404 C59.0086957,61.4518657 59.0167143,61.9978284 58.5589592,63.6998344 C58.1012041,65.4018404 56.893001,66.7827864 56.8032559,66.9119304 L41.7333013,90.6823217 C41.2334828,91.4707036 40.0751721,92.05858 39.145555,91.9953404 L37.2836798,91.8686817 C36.3543254,91.8054601 35.9373078,91.0063734 36.0926564,90.0848498 C36.0926564,90.0848498 38.6731612,83.3676265 40.7656676,78.0294391 C42.3173422,74.0709663 42.8242866,72.4329273 43.9775503,70.4259803 C45.130814,68.4190334 48.1662077,66.0149274 48.9670382,63.6998352 C43.8151395,63.2990138 40.0840716,61.958975 36.0300647,61.1899164 Z M47.0386869,20.8008884 C51.6648062,20.8008884 55.4150168,17.0398814 55.4150168,12.4004442 C55.4150168,7.76100698 51.6648062,4 47.0386869,4 C42.4125676,4 38.662357,7.76100698 38.662357,12.4004442 C38.662357,17.0398814 42.4125676,20.8008884 47.0386869,20.8008884 L47.0386869,20.8008884 L47.0386869,20.8008884 Z" id="Oval-102" fill="#FFFFFF"></path>
                </g>
            </g>
        </g>
    </g>
</svg>