<?xml version="1.0" encoding="UTF-8" standalone="no"?>
<svg width="100px" height="100px" viewBox="0 0 100 100" version="1.1" xmlns="http://www.w3.org/2000/svg" xmlns:xlink="http://www.w3.org/1999/xlink">
    <!-- Generator: Sketch 3.6.1 (26313) - http://www.bohemiancoding.com/sketch -->
    <title>Group 25</title>
    <desc>Created with Sketch.</desc>
    <defs></defs>
    <g id="Page-1" stroke="none" stroke-width="1" fill="none" fill-rule="evenodd">
        <g id="Artboard-9" transform="translate(-426.000000, -188.000000)">
            <g id="Arms" transform="translate(426.000000, 188.000000)">
                <g id="Group-25">
                    <rect id="Rectangle-114-Copy-12" fill="#EA6A64" x="5.68434189e-14" y="0" width="100" height="100" rx="8"></rect>
                    <path d="M57.3987544,22.0091735 C60.7106145,22.0091735 63.3954077,19.3208284 63.3954077,16.0045867 C63.3954077,12.6883451 60.7106145,10 57.3987544,10 C54.0868942,10 51.402101,12.6883451 51.402101,16.0045867 C51.402101,19.3208284 54.0868942,22.0091735 57.3987544,22.0091735 Z M54.7757914,29.025568 C54.7207597,28.8885132 54.5905591,27.1079196 55.0223408,26.1609301 C55.5445303,25.0156567 56.6708575,24.6722039 56.9208819,24.5155509 C57.3776434,24.2293667 58.3236409,24.0630783 59.9938974,24.5155509 C61.6966938,24.9768386 61.2092404,25.6238404 63.7722336,26.1609301 C66.3352268,26.6980198 69.0053637,26.921324 70.937118,26.8087647 C72.6240725,26.7104694 73.7597822,26.1609301 73.7597822,26.1609301 C73.7597822,26.1609301 77.4715509,25.7973083 81.9784161,25.181473 C85.7539688,24.6655671 86.2164154,24.1216463 88.0800022,24.1216463 C88.6800308,24.1216463 89.5885322,25.2653554 88.4707619,25.8501642 C86.7107125,26.7710086 84.9113334,27.3306298 83.1019113,28.09468 C80.4613464,29.2096903 77.7249953,30.4102052 74.4428025,30.9097655 C72.243811,31.2444591 68.3117858,31.1631262 65.5481617,30.9097655 C61.3602397,30.5258296 57.8580695,30.5095145 57.8580695,30.5095145 C57.8580695,30.5095145 55.3055541,30.3449267 54.7757914,29.025568 Z M38.7290118,54.3981028 C39.8214545,51.2358761 43.2352908,48.8033157 44.114334,45.8122926 C44.9114541,43.1000202 45.575748,37.9227048 46.5529799,33.971423 C47.35975,30.7093768 48.5697288,28.345145 48.5697288,28.345145 C48.5697288,28.345145 49.7690646,25.3866931 52.07664,23.9975804 C53.3526357,23.2294574 55.7722252,23.3179401 57.0145116,23.6694691 C58.0548102,23.9638417 55.7630145,24.667013 54.8865548,25.6523772 C54.2379212,26.3816066 54.2327572,27.5474952 54.2327572,28.9032541 C54.2327572,29.7258491 55.7295492,30.6498405 57.0145116,30.9881844 C57.8473585,31.2074817 58.6706311,30.9881844 58.6706311,30.9881844 C58.6706311,30.9881844 59.0345542,35.7083585 58.4104458,37.4676214 C57.7440311,39.3461388 54.7615055,43.4186624 53.7565065,45.8122926 C52.8480231,47.976049 52.8458891,50.6577772 52.0766396,52.6578379 C51.9812688,52.9058032 57.9185159,55.3988293 62.7755688,57.8727303 C67.9233926,60.4947331 71.3125663,62.6078667 72.1133414,63.8266433 C72.9141166,65.0454199 66.5214309,89.6308099 64.8983459,89.9061648 C63.250231,90.1857659 63.9809465,89.8686432 63.0168138,88.5735623 C62.1288439,87.380788 62.9473173,76.1027122 63.9342125,71.9896151 C64.4227958,69.9533397 65.4895559,68.1126532 64.8983453,67.3817919 C62.7980223,64.7853488 57.8866976,65.6596557 53.7565065,64.6900306 C49.6263153,63.7204055 47.470696,62.5087985 47.470696,62.5087985 C47.470696,62.5087985 45.8007246,65.1107961 42.2104866,67.9547136 C40.4565893,69.3440197 39.0296437,69.3143546 36.7751349,70.9778332 C35.2809114,72.0803389 33.4296442,73.5978185 31.4054634,75.1674502 C27.9482227,77.8483344 24.1308563,80.6860914 21.7712908,81.9025497 C20.208167,82.7084078 15.2951809,87.0532038 13.7323594,86.7898764 C12.1695379,86.526549 12.6343435,85.8268035 12.1366984,85.7275039 C10.8656365,85.4738774 18.8006748,77.99417 21.7696071,75.6050492 C23.5248812,74.1925678 25.3303725,72.8087383 27.345579,70.9778332 C31.7475489,66.978447 31.8586169,67.1967729 34.4978449,63.3527929 C37.1370729,59.5088128 37.5533577,57.8011968 38.7290118,54.3981028 Z" id="Oval-39" fill="#FFFFFF"></path>
                </g>
            </g>
        </g>
    </g>
</svg>