<?xml version="1.0" encoding="UTF-8" standalone="no"?>
<svg width="100px" height="100px" viewBox="0 0 100 100" version="1.1" xmlns="http://www.w3.org/2000/svg" xmlns:xlink="http://www.w3.org/1999/xlink">
    <!-- Generator: Sketch 3.6.1 (26313) - http://www.bohemiancoding.com/sketch -->
    <title>Group 3</title>
    <desc>Created with Sketch.</desc>
    <defs></defs>
    <g id="Page-1" stroke="none" stroke-width="1" fill="none" fill-rule="evenodd">
        <g id="Artboard-19" transform="translate(-376.000000, -132.000000)">
            <g id="3-иконки" transform="translate(183.000000, 132.000000)">
                <g id="Group-3" transform="translate(193.000000, 0.000000)">
                    <rect id="Rectangle-114-Copy-5" fill="#EA6A64" x="0" y="0" width="100" height="100" rx="8"></rect>
                    <path d="M73.4222312,51.7128197 C73.0524445,50.1586407 71.8493683,47.4391209 69.524277,45.5948511 C66.5360809,43.2246045 61.8819409,42.1756372 61.8819409,42.1756372 C61.8819409,42.1756372 54.6272697,40.2359054 50.189508,40.1412662 C50.1724979,40.1388841 50.1553117,40.137687 50.1379481,40.137687 C50.0923086,40.137687 50.0463218,40.1379064 50,40.1383408 C49.9536782,40.1379064 49.9076914,40.137687 49.8620519,40.137687 C49.8446883,40.137687 49.8275021,40.1388841 49.810492,40.1412662 C45.3727303,40.2359054 38.1180591,42.1756372 38.1180591,42.1756372 C38.1180591,42.1756372 33.4639191,43.2246045 30.475723,45.5948511 C28.1506317,47.4391209 26.9475555,50.1586407 26.5777688,51.7128197 C26.4288224,52.0228423 26.2609183,52.3232027 26.067568,52.5949813 C24.9603704,54.1512895 23.3659798,55.4761468 22.4913892,56.4585696 C18.2032471,61.2754167 13.1716767,69.3956292 14.1153195,72.3610002 C14.6187737,73.943091 16.9909833,73.3100682 20.2260646,73.0691193 C22.5755668,72.8941284 27.2358355,73.9000807 32.7628338,73.0691193 C34.281461,72.8407999 36.2225076,72.5629972 38.2631041,72.2541366 C38.5363744,73.9003934 36.603154,76.2854654 36.9925906,77.6099639 C37.5118924,79.3761418 35.2523738,80.5800906 34.4757,82.0265544 C33.3963525,84.0367124 33.5578142,86 33.5578142,86 L50,86 L66.4421858,86 C66.4421858,86 66.6036475,84.0367124 65.5243,82.0265544 C64.7476262,80.5800906 62.4881076,79.3761418 63.0074094,77.6099639 C63.407433,76.2494582 61.356798,73.769931 61.764166,72.121548 C63.6216675,72.4835894 65.5041894,72.8085734 67.2371662,73.0691193 C72.7641645,73.9000807 77.4244332,72.8941284 79.7739354,73.0691193 C83.0090167,73.3100682 85.3812263,73.943091 85.8846805,72.3610002 C86.8283233,69.3956292 81.7967529,61.2754167 77.5086108,56.4585696 C76.6340202,55.4761468 75.0396296,54.1512895 73.932432,52.5949813 C73.7390817,52.3232027 73.5711776,52.0228423 73.4222312,51.7128197 L73.4222312,51.7128197 L73.4222312,51.7128197 L73.4222312,51.7128197 Z M66.4975091,55.974406 C66.4789225,55.9875135 66.4604803,56.0007414 66.4421861,56.0140917 C64.6795562,57.3003742 65.5080889,60.5613141 64.1271239,62.2682485 C63.3315315,63.2516362 63.0094548,64.521856 62.8361058,65.8567101 C64.8620195,65.9746759 66.6776645,66.0208569 67.237166,65.7121506 C68.6147193,64.9520822 72.0108373,65.5438708 72.988238,64.4366314 C73.1502769,64.2530671 71.5551682,63.0913908 69.9365653,60.9567782 C68.7192434,59.3513748 67.3792196,57.3938909 66.4975091,55.974406 L66.4975091,55.974406 L66.4975091,55.974406 L66.4975091,55.974406 Z M37.1694823,65.9001642 C36.9974757,64.5494421 36.6770971,63.2623016 35.8728761,62.2682485 C34.4919111,60.5613141 35.3204438,57.3003742 33.5578139,56.0140917 C33.5395197,56.0007414 33.5210775,55.9875135 33.5024909,55.974406 C32.6207804,57.3938909 31.2807566,59.3513748 30.0634347,60.9567782 C28.4448318,63.0913908 26.8497231,64.2530671 27.011762,64.4366314 C27.9891627,65.5438708 31.3852807,64.9520822 32.762834,65.7121506 C33.2462046,65.9788515 35.0262702,65.9806729 37.1694823,65.9001642 L37.1694823,65.9001642 Z M50,36 C55.5228475,36 60,31.5228475 60,26 C60,20.4771525 55.5228475,16 50,16 C44.4771525,16 40,20.4771525 40,26 C40,31.5228475 44.4771525,36 50,36 Z" id="Combined-Shape" fill="#FFFFFF"></path>
                </g>
            </g>
        </g>
    </g>
</svg>