<?xml version="1.0" encoding="UTF-8" standalone="no"?>
<svg width="100px" height="100px" viewBox="0 0 100 100" version="1.1" xmlns="http://www.w3.org/2000/svg" xmlns:xlink="http://www.w3.org/1999/xlink">
    <!-- Generator: Sketch 3.6.1 (26313) - http://www.bohemiancoding.com/sketch -->
    <title>Group 5</title>
    <desc>Created with Sketch.</desc>
    <defs></defs>
    <g id="Page-1" stroke="none" stroke-width="1" fill="none" fill-rule="evenodd">
        <g id="Artboard-10" transform="translate(-622.000000, -283.000000)">
            <g id="Group" transform="translate(308.000000, 132.000000)">
                <g id="Group-5" transform="translate(314.000000, 151.000000)">
                    <rect id="Rectangle-114-Copy-13" fill="#EA6A64" x="0" y="0" width="100" height="100" rx="8"></rect>
                    <path d="M57.3642345,66.2773013 C59.0175407,66.1513142 60.677518,65.4432054 62.0506209,64.3737854 C62.3819821,64.3379402 62.7382154,64.2238082 63.1072212,64.0242073 C63.1072212,64.0242073 67.2002145,61.8445754 70.6730198,59.7906092 C72.1485301,58.9179291 75.4734332,55.5638763 78.0167955,53.9807486 C78.2554546,53.8321941 78.482987,53.6964801 78.6989351,53.5725832 C78.7017314,53.628948 78.7044479,53.6855235 78.7070799,53.7422946 C78.8233484,56.2500729 78.5446505,59.1500089 78.7070799,61.1185411 C78.9329165,63.8555239 79.7227194,69.3582751 79.7227194,69.3582751 C79.9132317,70.7384282 81.2010805,71.7547044 82.5937812,71.6119564 L82.4782923,71.6237937 C83.8694341,71.4812055 85,70.2265871 85,68.8218819 L84.9999999,48.6265156 C84.9999999,47.4512355 84.0569102,46.5071189 82.8935501,46.5071189 L81.7742837,46.5071189 C80.9334603,46.0882182 79.9266628,46.013732 78.9906081,46.3823015 L67.442387,50.9293885 C68.1891461,46.9248729 68.9631317,41.8145713 68.9631317,39.2440199 C68.9631317,37.0153229 66.4800096,33.6040814 66.4800096,33.6040814 C64.6901803,30.5991368 60.324914,28.1979931 56.8184962,28.1979931 L57.5209922,28.1979931 C54.9604227,28.1979931 53.211904,29.6398864 52.8677808,31.7166049 C52.8517088,31.7738093 52.8373122,31.8344851 52.8247139,31.8986051 C52.8247139,31.8986051 50.8891344,41.4595491 50.4937888,46.374897 C50.331939,48.3871824 50.2746342,52.9589906 50.2811599,57.2678968 C50.2528089,57.2979598 50.2257109,57.3274577 50.1999247,57.3563708 C49.9247282,57.6649389 49.5017914,58.5926585 49.5017914,58.5926585 C48.7746566,59.9863335 48.6693704,61.3785822 49.0815207,62.5566473 C48.4708628,63.125145 47.6167016,63.8884904 46.5827487,64.7292923 C44.5548399,66.3783707 41.6574499,69.2641018 38.5480965,71.4235573 C35.3346053,73.6553369 31.6216074,75.4225678 28.1235392,77.4421784 C26.0795628,78.6222687 18.7153858,84.8332808 18.7153858,84.8332808 C17.0096518,86.2488468 16.9784266,88.6006451 18.6406582,90.0803971 L15.9916169,87.7221672 C17.6498902,89.1983955 20.4165658,89.2913711 22.1623188,87.9219635 C22.1623188,87.9219635 22.7088865,87.4363319 24.0346208,86.5373816 C25.9663278,85.2275349 29.266095,83.4309275 31.0396481,82.4930272 C33.5120317,81.1855674 35.7118171,79.4907351 39.0309925,77.8792224 C41.409357,76.7244884 43.9876012,76.2170425 46.3878768,75.1298272 C52.7217846,72.2608562 56.5263947,67.582355 56.5263947,67.582355 C56.9143597,67.1885573 57.1924325,66.7439067 57.3642345,66.2773013 Z M54.3807115,53.7053915 C55.5724225,52.579698 56.5423788,51.4008201 56.579955,50.3670252 C56.6424515,48.6476216 56.3409344,46.4727382 55.8920446,44.28132 C55.4825063,46.0453545 55.1010633,47.849348 54.91881,49.1435094 C54.7829904,50.1079499 54.5901994,51.7776065 54.3807115,53.7053915 Z M60.0788475,25.6587383 C64.4314302,25.6587383 67.9598957,22.1534103 67.9598957,17.8293691 C67.9598957,13.505328 64.4314302,10 60.0788475,10 C55.7262647,10 52.1977992,13.505328 52.1977992,17.8293691 C52.1977992,22.1534103 55.7262647,25.6587383 60.0788475,25.6587383 Z" id="Oval-109-Copy" fill="#FFFFFF"></path>
                </g>
            </g>
        </g>
    </g>
</svg>