<?xml version="1.0" encoding="UTF-8" standalone="no"?>
<svg width="100px" height="100px" viewBox="0 0 100 100" version="1.1" xmlns="http://www.w3.org/2000/svg" xmlns:xlink="http://www.w3.org/1999/xlink">
    <!-- Generator: Sketch 3.6.1 (26313) - http://www.bohemiancoding.com/sketch -->
    <title>Group 19</title>
    <desc>Created with Sketch.</desc>
    <defs></defs>
    <g id="Page-1" stroke="none" stroke-width="1" fill="none" fill-rule="evenodd">
        <g id="Artboard-9" transform="translate(-276.000000, -791.000000)">
            <g id="legs" transform="translate(276.000000, 188.000000)">
                <g id="Group-19" transform="translate(0.000000, 603.000000)">
                    <rect id="Rectangle-114-Copy-14" fill="#EA6A64" x="0" y="0" width="100" height="100" rx="8"></rect>
                    <g id="Group-5" transform="translate(31.000000, 10.000000)">
                        <path d="M0,0 L35.4666667,0 L35.4666667,64.2422347 L0,79.9263052 L0,0 Z" id="Rectangle-116" fill-opacity="0.3" fill="#000000"></path>
                        <path d="M14.0796043,23.7843295 C14.8359892,22.5902809 15.5317517,21.352807 15.5826205,20.2618684 C15.7169823,17.3803282 13.0888825,16.5531191 13.0888825,16.5531191 C12.9290475,16.4894491 12.9102365,16.3362334 13.0417133,16.2216262 C13.0417133,16.2216262 14.7709497,14.5395537 16.4846942,14.7045744 C17.45556,14.7980614 19.3400393,15.1206463 20.7962854,15.549741 C22.231818,15.9727323 22.8959335,17.0901542 23.6243036,17.5761008 C24.3526737,18.0620474 23.9399763,18.6447556 24.225,21.0579481 C24.3846729,22.4098408 25.1911605,23.6521118 25.1911605,24.6534184 C25.1911605,26.286519 23.7826383,26.3443873 23.6243041,28.5004697 C23.4187294,31.2998391 23.8215649,35.1361997 24.0625618,37.0603938 C25.1345245,38.6600773 28.3026739,43.4878127 29.1311037,45.8786399 C29.9213194,48.1591821 32.0393419,53.7541456 33.1959525,57.0083688 C34.0315708,59.3594524 35.2259277,63.1176829 35.8620678,65.0348482 C36.9662484,68.3625686 37.320447,69.4468846 37.8972803,71.7487057 C38.3041588,73.3723317 36.5383475,73.1097247 35.3398307,71.7487057 C34.6492072,70.9644433 31.8866261,67.3201195 29.7285719,62.5401114 C28.1415111,59.0248321 25.7798995,48.9914977 24.426784,48.9914977 C23.8050047,48.9914977 25.3491301,50.6857543 25.9602504,53.2323492 C27.0137378,57.6223286 27.9223596,64.3773628 29.1311037,68.1420649 C30.0319201,70.9477087 30.639626,73.1916074 30.6934362,73.6230316 C30.8613356,74.9691692 29.7679776,74.9713572 28.6781265,74.3592745 C27.5882754,73.7471918 25.9279202,71.0446387 22.1836017,63.5595863 C21.4808095,62.1546747 21.3071653,57.9406853 20.5504172,56.47245 C19.6068266,54.6417047 18.0353562,52.5859972 17.1085106,50.7867965 C16.0402696,48.7131179 13.4732173,45.4000474 12.6587496,43.66872 C11.9968969,42.261809 12.0656306,37.553748 12.0656306,37.553748 L12.1309777,37.5480126 C12.1904869,36.9382072 12.354877,35.9964105 12.7994757,34.9500035 C13.2334166,33.9286807 14.7511355,32.8282551 14.6977232,31.7892431 C14.6254299,30.3829433 12.2622328,28.9478117 12.1080145,27.7944075 C11.767674,28.3949925 11.4909742,29.0603665 11.3999999,29.8622508 C11.006381,33.3317666 10.5905278,37.2849478 10.1003415,40.5275424 C9.46690916,44.7177134 8.79633662,46.2098986 8.79633662,46.2098986 C8.79633662,46.2098986 8.3901377,46.942489 7.77491382,46.8912291 C7.15968993,46.8399692 7.2140405,45.933986 7.2140405,45.933986 C7.2140405,45.933986 7.75412699,44.4223503 8.04952722,40.2379878 C8.29579059,36.749652 8.29524517,32.3729941 8.38809447,29.5834875 C8.4895391,26.5357483 10.1003416,20.4973118 10.1003416,20.4973118 C10.1003416,20.4973118 11.8150212,16.5010609 12.7222456,16.6616188 C13.2590415,16.7566193 13.961668,17.1035185 14.4647969,17.7650499 C15.0554285,18.5416329 15.1342838,19.0344314 15.2032729,19.8167149 C15.2722619,20.5989984 15.1892194,20.6965528 14.8449828,21.7166212 C14.5899381,22.4723891 14.2635677,23.2068291 14.0796043,23.7843295 Z M18.1247308,14.122288 C20.7699447,14.122288 22.9143142,11.9852645 22.9143142,9.34911243 C22.9143142,6.71296037 20.7699447,4.57593688 18.1247308,4.57593688 C15.479517,4.57593688 13.3351475,6.71296037 13.3351475,9.34911243 C13.3351475,11.9852645 15.479517,14.122288 18.1247308,14.122288 Z" id="Rectangle-115" fill="#FFFFFF"></path>
                    </g>
                </g>
            </g>
        </g>
    </g>
</svg>