<?xml version="1.0" encoding="UTF-8" standalone="no"?>
<svg width="100px" height="100px" viewBox="0 0 100 100" version="1.1" xmlns="http://www.w3.org/2000/svg" xmlns:xlink="http://www.w3.org/1999/xlink">
    <!-- Generator: Sketch 3.6.1 (26313) - http://www.bohemiancoding.com/sketch -->
    <title>Group 26</title>
    <desc>Created with Sketch.</desc>
    <defs></defs>
    <g id="Page-1" stroke="none" stroke-width="1" fill="none" fill-rule="evenodd">
        <g id="Artboard-9" transform="translate(-574.000000, -339.000000)">
            <g id="Abs" transform="translate(574.000000, 188.000000)">
                <g id="Group-26" transform="translate(0.000000, 151.000000)">
                    <rect id="Rectangle-114-Copy-13" fill="#EA6A64" x="0" y="0" width="100" height="100" rx="8"></rect>
                    <g id="Group-7" transform="translate(10.000000, 16.000000)">
                        <path d="M70.7407407,17.7997777 L79.6811789,27.1317003 C79.9814017,27.4450693 80.0371202,27.8089321 79.8765432,28.0995039 L79.8765432,38.9981851 L77.4074074,38.9981851 L77.4074074,29.3465966 L66.5938951,33.938294 L67.654321,33.938294 L67.654321,45.168784 L65.1851852,45.168784 L65.1851852,34.5357979 C64.5644581,34.7772879 63.7265786,34.5679008 63.2907517,34.0528029 L57.5308642,27.2452686 L57.5308642,34.5553539 L55.5555556,34.5553539 L55.5555556,24.9106777 L55.490177,24.8334077 C55.1029951,24.3758025 55.1486707,23.7777723 55.5555556,23.4064997 L55.5555556,23.3248639 L55.6560388,23.3248639 C55.6868279,23.3026025 55.7191958,23.2814733 55.7531213,23.2615848 L67.6364316,16.2950913 C68.2244701,15.9503586 69.0814036,16.0677814 69.5520154,16.5590003 L70.122308,17.154265 L70.7407407,17.154265 L70.7407407,17.7997777 Z" id="Rectangle-133" fill-opacity="0.3" fill="#000000"></path>
                        <path d="M62.2636564,20.1502168 C63.0068375,24.3576194 64.1041375,29.9665652 65.7673926,30.584921 C68.7675498,31.7003027 75.8734257,26.641952 75.8734257,26.641952 C75.8734257,26.641952 76.8263648,26.1502285 77.2569533,26.641952 C77.7321888,27.1846615 77.1780012,28.725211 76.7631261,28.9450045 C74.5853469,30.0987536 71.4459246,32.9208061 68.1956118,33.9382944 C65.4933897,34.7842066 62.5927477,32.9214299 62.5927477,32.9214299 C62.5927477,32.9214299 61.3942177,30.5868834 60.4982494,27.6695719 C59.7384408,25.195602 59.2933343,22.0866688 58.9650429,21.885902 C58.9148353,21.8551975 58.8606581,21.8288027 58.8033157,21.8062638 C57.4509217,23.0489236 55.5804995,24.5081609 53.5243793,25.9751986 C51.1573364,27.6640791 48.3763326,29.3026737 46.5539573,30.8850575 C43.7661945,33.3056952 39.2870867,38.162882 35.9162492,41.4258369 C26.6029976,50.4410205 16.0821726,61.154508 10.0045057,66.5250894 C8.75886075,67.625814 7.05366221,68.1974752 6.53726474,67.8869447 C5.76499742,67.4225495 6.53726474,65.604535 6.53726474,65.604535 C6.53726474,65.604535 25.6663453,43.1020236 25.6663457,41.425836 C25.666346,39.7496483 13.7728329,54.0447066 5.43607343,60.0174765 C-2.90068606,65.9902464 0.856084054,62.1128849 1.34910113,61.4454636 C5.89480034,55.2917287 17.6531973,41.2009779 28.9458252,29.5062559 C39.7302035,18.3378807 46.9439533,11.4633215 50.1699173,9.40903818 C53.3958812,7.35475485 55.219911,8.22412757 58.3614268,10.7744968 C59.815258,11.9547572 60.7425164,13.4311803 61.17246,14.9183707 L61.2185755,14.846072 C61.2185755,14.846072 61.4075403,15.6124067 61.6983812,17.0776733 C63.806086,17.4090708 67.1147007,16.0276047 68.1946275,15.9060204 C69.76993,15.728664 71.0015176,17.0292077 68.4502296,18.1425851 C66.5677098,18.9641133 63.6591461,19.7792977 62.2636564,20.1502168 Z M66.5432099,14.0689655 C70.4296581,14.0689655 73.5802469,10.9195203 73.5802469,7.03448276 C73.5802469,3.14944521 70.4296581,0 66.5432099,0 C62.6567616,0 59.5061728,3.14944521 59.5061728,7.03448276 C59.5061728,10.9195203 62.6567616,14.0689655 66.5432099,14.0689655 Z" id="Rectangle-130" fill="#FFFFFF"></path>
                    </g>
                </g>
            </g>
        </g>
    </g>
</svg>