<?xml version="1.0" encoding="UTF-8" standalone="no"?>
<svg width="100px" height="100px" viewBox="0 0 100 100" version="1.1" xmlns="http://www.w3.org/2000/svg" xmlns:xlink="http://www.w3.org/1999/xlink">
    <!-- Generator: Sketch 3.6.1 (26313) - http://www.bohemiancoding.com/sketch -->
    <title>Group 31</title>
    <desc>Created with Sketch.</desc>
    <defs></defs>
    <g id="Page-1" stroke="none" stroke-width="1" fill="none" fill-rule="evenodd">
        <g id="Artboard-9" transform="translate(-127.000000, -640.000000)">
            <g id="Stretching" transform="translate(127.000000, 185.000000)">
                <g id="Group-31" transform="translate(0.000000, 455.000000)">
                    <rect id="Rectangle-114-Copy-6" fill="#EA6A64" x="0" y="0" width="100" height="100" rx="8"></rect>
                    <g id="Group" transform="translate(17.000000, 10.000000)">
                        <path d="M0,0 L40.701477,0 L41.9486841,56.2456625 L0,76.7624268 L0,0 Z" id="Rectangle-89" fill-opacity="0.3" fill="#000000"></path>
                        <path d="M31.7590339,14.0206186 C34.8426237,14.0206186 37.3423672,11.6512664 37.3423672,8.72852234 C37.3423672,5.8057783 34.8426237,3.43642612 31.7590339,3.43642612 C28.675444,3.43642612 26.1757005,5.8057783 26.1757005,8.72852234 C26.1757005,11.6512664 28.675444,14.0206186 31.7590339,14.0206186 Z M53.3183901,63.188906 C56.1190834,68.013028 48.5850315,55.0248947 46.0844759,51.2810099 C45.663824,50.6512009 43.167825,54.9146143 42.8702574,54.2593281 C42.6027947,53.6703371 45.0056762,71.2663701 44.3595485,71.2040256 C43.7104631,71.1413958 41.7154146,71.4954726 40.2281951,68.013028 C37.9739111,62.7344399 36.1720755,52.7141645 36.343259,51.2810096 C36.5776965,49.3182901 42.0937036,40.8690393 41.3863598,39.8913863 C39.7983354,37.6965034 40.1538042,37.7688906 38.4509041,36.2473819 C36.1413179,34.1838107 31.9567938,30.786587 31.8279639,29.7304391 C31.6115738,27.9564716 29.7408269,25.924019 28.8598475,22.5205564 C28.7190678,21.9766861 19.9117755,22.1667391 13.4725745,21.4264336 C8.8624325,20.8964123 6.00193032,19.4069748 5.93526003,19.0539147 C5.66449568,17.6200514 13.0020924,17.6002002 19.2826519,17.0499425 C23.6587825,16.6665373 27.6523986,15.5396494 27.6523986,15.5396494 C27.6523986,15.5396494 32.0925447,14.8488812 34.2098152,14.6259521 C36.3098886,14.4048337 40.2281951,14.6259521 40.2281951,14.6259521 C40.2281951,14.6259521 42.3300851,21.0493215 46.084474,27.1396736 C48.6379494,31.2819096 53.3183894,34.8097057 53.3183894,37.8497923 C53.3183894,40.3283951 53.3183881,44.6878662 53.3183881,44.6878662 C53.3183881,44.6878662 55.954583,53.2399347 59.1754599,58.848501 C60.4919327,61.1408968 65.2498829,72.597319 66.1850655,75.8914795 C66.279557,76.2243237 67.5571843,79.3699647 66.5986457,79.8387048 C65.658841,80.2982839 64.2938059,79.7981322 62.2238937,77.6766257 C60.1539814,75.5551191 50.5176969,58.3647841 53.3183901,63.188906 Z" id="Oval-26" fill="#FFFFFF"></path>
                    </g>
                </g>
            </g>
        </g>
    </g>
</svg>